<svg width="104" height="105" fill="none" xmlns="http://www.w3.org/2000/svg"><path d="M69.56 56.28c-.141 0-.28-.026-.414-.077l-4.135-1.6a9.867 9.867 0 0 1-4.65-3.718 6.225 6.225 0 0 0-5.183-2.771h-8.21a6.148 6.148 0 0 1-6.14-6.14c0-3.382 2.753-6.146 6.14-6.146h13.694c2.082 0 4.114.402 6.039 1.204a15.697 15.697 0 0 1 5.121 3.42l3.382 3.382a6.751 6.751 0 0 0 4.802 1.987h6.853c.63 0 1.146.516 1.146 1.147a1.15 1.15 0 0 1-1.146 1.146h-6.853a9.026 9.026 0 0 1-6.427-2.662l-3.381-3.382a13.404 13.404 0 0 0-9.536-3.95H46.969a3.853 3.853 0 0 0-3.848 3.849 3.853 3.853 0 0 0 3.848 3.848h8.209a8.511 8.511 0 0 1 7.088 3.783 7.547 7.547 0 0 0 3.573 2.859l4.135 1.6a1.145 1.145 0 0 1 .656 1.483 1.145 1.145 0 0 1-1.07.737Zm-4.657 24.495H58.84a1.149 1.149 0 0 1-1.146-1.147c0-.63.515-1.146 1.146-1.146h6.064c1.415 0 2.829-.171 4.197-.508l7.509-1.854a16.201 16.201 0 0 1 3.873-.471h6.377c.63 0 1.146.515 1.146 1.146a1.15 1.15 0 0 1-1.146 1.146h-6.377c-1.12 0-2.234.134-3.325.402l-7.502 1.854a19.985 19.985 0 0 1-4.754.578Z" fill="url(#a)"/><path d="M53.759 91.813H9.69a6.23 6.23 0 0 1-6.223-6.224V19.267a6.23 6.23 0 0 1 6.223-6.224H53.76a6.23 6.23 0 0 1 6.224 6.224v17.705a1.15 1.15 0 0 1-1.147 1.146 1.149 1.149 0 0 1-1.146-1.146V19.26a3.934 3.934 0 0 0-3.929-3.929H9.691a3.934 3.934 0 0 0-3.93 3.929v66.322a3.934 3.934 0 0 0 3.93 3.929h44.068a3.934 3.934 0 0 0 3.929-3.93v-37.64a1.15 1.15 0 0 1 1.146-1.147c.63 0 1.146.516 1.146 1.147v37.648c.007 3.427-2.79 6.224-6.221 6.224Z" fill="url(#b)"/><path d="M49.287 72.787H14.21a1.15 1.15 0 0 1-1.146-1.146v-8.064a1.15 1.15 0 0 1 1.146-1.146h35.076c.63 0 1.146.515 1.146 1.146v8.064c0 .638-.515 1.146-1.146 1.146Zm-33.93-2.293H48.14v-5.77H15.357v5.77Zm29.088 9.957h-25.4a1.15 1.15 0 0 1-1.146-1.146 1.15 1.15 0 0 1 1.147-1.147h25.401a1.147 1.147 0 1 1-.002 2.293Zm0 5.107h-25.4a1.15 1.15 0 0 1-1.146-1.146c0-.63.516-1.146 1.147-1.146h25.401a1.147 1.147 0 1 1-.002 2.293ZM31.829 57.062h-.084a18.842 18.842 0 0 1-12.667-4.878 18.87 18.87 0 0 1-4.541-6.217 18.715 18.715 0 0 1-1.676-7.796c0-2.72.567-5.336 1.676-7.795a18.87 18.87 0 0 1 4.541-6.217 18.846 18.846 0 0 1 12.667-4.879h.185a18.792 18.792 0 0 1 12.866 5.23 18.774 18.774 0 0 1 4.005 5.56 19.004 19.004 0 0 1 1.79 6.816 1.146 1.146 0 0 1-2.287.16c-.293-4.16-2.1-8.024-5.089-10.879a16.609 16.609 0 0 0-11.317-4.578h-.155c-4.12 0-8.075 1.523-11.128 4.287a16.64 16.64 0 0 0-5.466 12.311c0 4.68 1.995 9.166 5.466 12.312a16.545 16.545 0 0 0 11.128 4.287h.16a16.54 16.54 0 0 0 11.306-4.592l.006-.007a16.592 16.592 0 0 0 2.956-3.777 1.152 1.152 0 0 1 1.567-.427c.548.312.74 1.012.428 1.567a18.884 18.884 0 0 1-3.356 4.292l-.007.007a18.825 18.825 0 0 1-12.866 5.23c-.044-.017-.076-.017-.108-.017Z" fill="url(#c)"/><path d="M31.829 57.063c-.835 0-2.097-.312-3.363-1.796-.853-1-1.604-2.394-2.242-4.16-1.255-3.47-1.944-8.063-1.944-12.928s.69-9.46 1.944-12.928c.638-1.76 1.39-3.16 2.242-4.16 1.266-1.484 2.528-1.796 3.363-1.796.834 0 2.096.312 3.362 1.796.853 1 1.604 2.394 2.242 4.16 1.255 3.47 1.944 8.063 1.944 12.928s-.689 9.46-1.944 12.928c-.638 1.76-1.389 3.16-2.242 4.16-1.266 1.484-2.528 1.796-3.362 1.796Zm0-35.476c-2.191 0-5.256 6.312-5.256 16.592 0 10.28 3.058 16.591 5.256 16.591 2.197 0 5.255-6.311 5.255-16.591 0-10.28-3.065-16.592-5.255-16.592Z" fill="url(#d)"/><path d="M43.715 39.325H14.008c-.631 0-1.147-.515-1.147-1.146 0-.631.516-1.147 1.147-1.147h29.707c.63 0 1.146.516 1.146 1.147a1.15 1.15 0 0 1-1.146 1.146Zm-11.676-7.12h-.229a17.103 17.103 0 0 1-6.076-1.172c-2.866-1.128-5.3-3.04-6.84-5.383a1.14 1.14 0 0 1 .325-1.585 1.14 1.14 0 0 1 1.586.326c1.287 1.955 3.33 3.554 5.764 4.509 1.657.65 3.427.987 5.267 1.012h.196c1.77 0 3.49-.293 5.1-.874 2.46-.885 4.567-2.433 5.924-4.35a1.153 1.153 0 0 1 1.6-.274c.515.37.637 1.084.274 1.6-1.631 2.292-4.12 4.134-7.019 5.178a17.264 17.264 0 0 1-5.872 1.013ZM19.855 52.482a1.165 1.165 0 0 1-.95-.505 1.142 1.142 0 0 1-.007-1.272c1.541-2.343 3.975-4.255 6.84-5.383a17.136 17.136 0 0 1 6.077-1.171h.229c2.038 0 4.019.337 5.879 1.012 2.898 1.045 5.387 2.884 7.019 5.18.37.515.242 1.229-.275 1.598-.516.37-1.23.243-1.6-.275-1.363-1.918-3.464-3.457-5.923-4.349a15.002 15.002 0 0 0-5.1-.874h-.197c-1.84.026-3.617.363-5.274 1.013-2.433.954-4.477 2.553-5.764 4.509a1.133 1.133 0 0 1-.954.517Zm79.532 32.929H86.859a1.15 1.15 0 0 1-1.147-1.146V39.489c0-.63.516-1.146 1.147-1.146h12.528c.631 0 1.146.515 1.146 1.146v44.776c0 .638-.515 1.146-1.146 1.146Zm-11.382-2.293H98.24V40.636H88.005v42.482Z" fill="url(#e)"/><path d="M93.126 80.84a3.37 3.37 0 1 1 3.37-3.37c0 1.86-1.516 3.37-3.37 3.37Zm0-4.447a1.078 1.078 0 1 0 1.077 1.077c0-.591-.485-1.077-1.077-1.077Z" fill="url(#f)"/><defs><linearGradient id="a" x1="45.247" y1="39.934" x2="85.222" y2="92.667" gradientUnits="userSpaceOnUse"><stop stop-color="#007BC4"/><stop offset="1" stop-color="#0B4C97"/></linearGradient><linearGradient id="b" x1="8.76" y1="20.238" x2="81.134" y2="85.496" gradientUnits="userSpaceOnUse"><stop stop-color="#007BC4"/><stop offset="1" stop-color="#0B4C97"/></linearGradient><linearGradient id="c" x1="16.395" y1="25.334" x2="74.339" y2="66.79" gradientUnits="userSpaceOnUse"><stop stop-color="#007BC4"/><stop offset="1" stop-color="#0B4C97"/></linearGradient><linearGradient id="d" x1="25.695" y1="22.745" x2="53.682" y2="36.803" gradientUnits="userSpaceOnUse"><stop stop-color="#007BC4"/><stop offset="1" stop-color="#0B4C97"/></linearGradient><linearGradient id="e" x1="21.073" y1="29.495" x2="69.472" y2="116.151" gradientUnits="userSpaceOnUse"><stop stop-color="#007BC4"/><stop offset="1" stop-color="#0B4C97"/></linearGradient><linearGradient id="f" x1="90.388" y1="74.716" x2="96.454" y2="82.34" gradientUnits="userSpaceOnUse"><stop stop-color="#007BC4"/><stop offset="1" stop-color="#0B4C97"/></linearGradient></defs></svg>