<svg width="104" height="105" fill="none" xmlns="http://www.w3.org/2000/svg"><path d="M28.29 77.296c-10.49-.332-10.491-15.546 0-15.876a7.986 7.986 0 0 1 6.292 12.777 1.625 1.625 0 0 0 2.574 1.983 11.196 11.196 0 1 0-15.376 2.258 19.261 19.261 0 0 0-11.736 11.886A6.051 6.051 0 0 0 15.8 98.2h24.98a6.107 6.107 0 0 0 4.956-2.556 5.815 5.815 0 0 0 .797-5.32A19.281 19.281 0 0 0 28.29 77.296Zm14.803 16.458a2.854 2.854 0 0 1-2.314 1.196H15.8a2.853 2.853 0 0 1-2.313-1.196 2.6 2.6 0 0 1-.366-2.377 16.04 16.04 0 0 1 30.339 0 2.6 2.6 0 0 1-.366 2.377Zm50.861-3.43A19.261 19.261 0 0 0 82.22 78.438c8.739-6.15 4.322-20.296-6.51-20.268a11.2 11.2 0 0 0-11.187 11.188c-.097 2.085 1.583 8.923 4.599 7.117a1.625 1.625 0 0 0 .296-2.278 7.938 7.938 0 1 1 6.293 3.097 19.282 19.282 0 0 0-18.245 13.03A6.05 6.05 0 0 0 63.22 98.2H88.2a6.05 6.05 0 0 0 5.753-7.876Zm-3.441 3.43A2.854 2.854 0 0 1 88.2 94.95H63.22a2.852 2.852 0 0 1-2.312-1.196 2.6 2.6 0 0 1-.366-2.377 16.038 16.038 0 0 1 30.339 0 2.6 2.6 0 0 1-.367 2.377Zm-21.5-49.095a1.637 1.637 0 0 0 2.64-1.267v-7.16h4.231a4.558 4.558 0 0 0 4.553-4.551V11.184a4.558 4.558 0 0 0-4.553-4.551H46.605a4.558 4.558 0 0 0-4.553 4.551v10.241H27.654a4.098 4.098 0 0 0-4.095 4.095v17.251a4.098 4.098 0 0 0 4.095 4.095h3.302v5.77a1.637 1.637 0 0 0 2.64 1.268l8.802-7.04h9.906a4.098 4.098 0 0 0 4.093-4.093v-6.539h2.08l10.537 8.427ZM53.15 42.771a.835.835 0 0 1-.845.845H41.829c-.37 0-.727.125-1.016.356l-6.605 5.285V45.24a1.625 1.625 0 0 0-1.625-1.625h-4.925a.835.835 0 0 1-.846-.844V25.52a.835.835 0 0 1 .845-.844h14.398v7.004a4.558 4.558 0 0 0 4.553 4.553h6.543l-.002 6.54Zm-6.544-9.789a1.304 1.304 0 0 1-1.303-1.301V11.184a1.305 1.305 0 0 1 1.303-1.301h29.278a1.305 1.305 0 0 1 1.303 1.301v20.498a1.303 1.303 0 0 1-1.303 1.3h-5.857a1.625 1.625 0 0 0-1.625 1.625v5.405l-8.338-6.672a1.621 1.621 0 0 0-1.015-.358H46.605Z" fill="url(#a)"/><defs><linearGradient id="a" x1="17.674" y1="14.997" x2="101.342" y2="111.997" gradientUnits="userSpaceOnUse"><stop stop-color="#007BC4"/><stop offset="1" stop-color="#0B4C97"/></linearGradient></defs></svg>