<svg width="104" height="105" fill="none" xmlns="http://www.w3.org/2000/svg"><path d="M13 81.667H8.125a1.625 1.625 0 0 0 0 3.25H13a1.625 1.625 0 1 0 0-3.25Zm6.5 0h-1.625a1.625 1.625 0 1 0 0 3.25H19.5a1.625 1.625 0 1 0 0-3.25Z" fill="url(#a)"/><path d="M95.875 34.542h-3.25v-13a6.509 6.509 0 0 0-6.5-6.5h-68.25a6.508 6.508 0 0 0-6.5 6.5v29.25h-3.25a6.507 6.507 0 0 0-6.5 6.5v26a6.507 6.507 0 0 0 6.5 6.5h16.25a6.509 6.509 0 0 0 6.5-6.5v-4.875h14.168l-.813 3.25H39a1.625 1.625 0 0 0-1.625 1.625v4.875A1.625 1.625 0 0 0 39 89.792h56.875a6.51 6.51 0 0 0 6.5-6.5v-42.25a6.51 6.51 0 0 0-6.5-6.5Zm-68.25 48.75a3.254 3.254 0 0 1-3.25 3.25H8.125a3.254 3.254 0 0 1-3.25-3.25v-26a3.254 3.254 0 0 1 3.25-3.25h2.078l1.255 3.764A1.624 1.624 0 0 0 13 58.917h6.5a1.625 1.625 0 0 0 1.542-1.111l1.255-3.764h2.078a3.255 3.255 0 0 1 3.25 3.25v26ZM13.63 54.042h5.24l-.542 1.625h-4.156l-.542-1.625Zm17.245 21.125v-4.875h29.25v4.875h-29.25Zm29.25 3.25v3.25h-.355l-.813-3.25h1.168Zm-3.707 3.25h-8.836l.813-3.25h7.21l.813 3.25Zm-15.793 4.875v-1.625H60.33c.149.57.374 1.116.67 1.625H40.626Zm19.5-45.5v26h-29.25v-9.75a6.509 6.509 0 0 0-6.5-6.5h-9.75v-29.25a3.255 3.255 0 0 1 3.25-3.25h68.25a3.255 3.255 0 0 1 3.25 3.25v13h-22.75a6.508 6.508 0 0 0-6.5 6.5Zm39 42.25a3.254 3.254 0 0 1-3.25 3.25h-29.25a3.254 3.254 0 0 1-3.25-3.25v-42.25a3.255 3.255 0 0 1 3.25-3.25h29.25a3.255 3.255 0 0 1 3.25 3.25v42.25Z" fill="url(#b)"/><path d="M95.875 39.417h-29.25A1.625 1.625 0 0 0 65 41.042v37.375a1.625 1.625 0 0 0 1.625 1.625h29.25a1.625 1.625 0 0 0 1.625-1.625V41.042a1.625 1.625 0 0 0-1.625-1.625ZM94.25 76.792h-26V42.667h26v34.125Z" fill="url(#c)"/><path d="M79.625 84.917a1.625 1.625 0 1 0 0-3.25 1.625 1.625 0 0 0 0 3.25Z" fill="url(#d)"/><defs><linearGradient id="a" x1="7.87" y1="81.964" x2="8.899" y2="87.786" gradientUnits="userSpaceOnUse"><stop stop-color="#007BC4"/><stop offset="1" stop-color="#0B4C97"/></linearGradient><linearGradient id="b" x1="11.062" y1="21.87" x2="71.519" y2="124.275" gradientUnits="userSpaceOnUse"><stop stop-color="#007BC4"/><stop offset="1" stop-color="#0B4C97"/></linearGradient><linearGradient id="c" x1="68.044" y1="43.128" x2="105.57" y2="80.855" gradientUnits="userSpaceOnUse"><stop stop-color="#007BC4"/><stop offset="1" stop-color="#0B4C97"/></linearGradient><linearGradient id="d" x1="78.304" y1="81.964" x2="81.23" y2="85.64" gradientUnits="userSpaceOnUse"><stop stop-color="#007BC4"/><stop offset="1" stop-color="#0B4C97"/></linearGradient></defs></svg>