<svg width="104" height="105" fill="none" xmlns="http://www.w3.org/2000/svg"><path d="M90.118 60.65a38.851 38.851 0 0 0 0-16.465c11.212-17.33 14.155-31.41 7.847-37.736C92.38.882 80.663 2.503 65.812 10.9l1.6 2.828c13.285-7.512 23.85-9.378 28.255-4.982 4.727 4.74 2.065 16.799-6.721 31.2a38.969 38.969 0 0 0-45.175-25.654C26.441 3.093 12.35.143 6.032 6.453c-5.588 5.602-3.937 17.364 4.53 32.283l2.828-1.605C5.81 23.782 3.92 13.172 8.33 8.75c4.745-4.729 16.804-2.064 31.2 6.72a38.986 38.986 0 0 0 0 73.893c-14.41 8.786-26.47 11.45-31.2 6.724-4.388-4.407-2.535-14.965 4.972-28.244l-2.827-1.599C2.085 81.087.465 92.8 6.035 98.384a12.563 12.563 0 0 0 9.212 3.27c7.285 0 17.212-3.81 28.514-11.12a38.968 38.968 0 0 0 45.185-25.653c8.786 14.407 11.448 26.466 6.724 31.2-4.517 4.507-15.395 2.466-29.087-5.457l-1.625 2.811c9.397 5.445 17.57 8.219 23.796 8.219a12.547 12.547 0 0 0 9.214-3.27c6.305-6.317 3.359-20.404-7.85-37.733Zm-11.143 1.728-1.32-1.755a159.184 159.184 0 0 0 4.602-5.55 140.02 140.02 0 0 1 4.388 6.199 35.565 35.565 0 0 1-4.712 10.658l-2.308-2.304v-5.298a3.302 3.302 0 0 0-.65-1.95Zm-4.225-5.622v-5.25a3.317 3.317 0 0 0-.952-2.305l-2.056-2.04a3.26 3.26 0 0 0-3.313-.823l-3.5 1.137-5.096-1.233-1.218-4.9 2.387-3.55h5.136l3.18 2.112A167.078 167.078 0 0 1 80.23 52.417a159.754 159.754 0 0 1-4.568 5.544l-.912-1.205Zm6.103-25.414a35.794 35.794 0 0 1 3.215 5.294l-4.726 2.698-7.203-1.45-.741-.487c-.715-.74-1.43-1.482-2.162-2.212a175.274 175.274 0 0 0-4.194-4.044c.352.036.707.012 1.05-.072l5.22-1.3 5.115 2.552a3.25 3.25 0 0 0 3.25-.199l1.176-.78Zm4.525 8.288c.496 1.285.917 2.6 1.26 3.934a131.115 131.115 0 0 1-4.387 6.196 167.007 167.007 0 0 0-6.654-7.862l3.154.632a3.348 3.348 0 0 0 2.208-.385l4.418-2.515Zm-1.06 12.787a145.331 145.331 0 0 0 3.162-4.313 34.63 34.63 0 0 1 0 8.627 143.516 143.516 0 0 0-3.162-4.314ZM78.813 28.8l-.925.616L72.8 26.88a3.18 3.18 0 0 0-2.275-.27l-5.22 1.3-2.925-1.937 1.872-2.806h6.76c.4-.01.793-.092 1.16-.245a36.095 36.095 0 0 1 6.64 5.879Zm-11.948-8.884h-2.612a3.273 3.273 0 0 0-2.716 1.454l-1.88 2.81a3.25 3.25 0 0 0-.518 1.672 166.987 166.987 0 0 0-3.403-2.828 3.242 3.242 0 0 0-2.704-3.492l-2.275-.385a147.024 147.024 0 0 0-3.063-2.211 35.997 35.997 0 0 1 4.306-.27 35.536 35.536 0 0 1 14.865 3.25Zm-24.33-1.968 1.15 2.038a3.16 3.16 0 0 0 2.31 1.662l3.43.574c.753.565 1.509 1.137 2.263 1.724l-.699 1.04-5.362 1.34a3.216 3.216 0 0 0-1.768 1.195l-4.3 5.746-5.962 2.98-6.609 1.313a3.25 3.25 0 0 0-2.613 3.188v2.665a3.277 3.277 0 0 0 1.462 2.717l3.413 2.288v3.002l-7.067-3.544-4.431-5.688a35.884 35.884 0 0 1 24.782-24.24ZM16.25 52.417c.003-2.067.184-4.13.543-6.165l2.805 3.596c.3.392.684.71 1.124.933l7.077 3.55c.45.222.947.338 1.45.34h.043a3.03 3.03 0 0 0-.042.325v4.888c.007.856.349 1.676.952 2.283l2.587 2.587c.247.247.533.453.845.61l2.113 1.057v5.252c-.003.349.052.696.162 1.027l2.9 8.697a3.27 3.27 0 0 0 2.07 2.057l1.976.65a3.25 3.25 0 0 0 4.27-3.087V76.17l4.703-2.355a3.23 3.23 0 0 0 1.797-2.884l.018-2.714 2.827-.939a3.236 3.236 0 0 0 2.13-2.298l.91-3.653a3.25 3.25 0 0 0-3.153-4.036H54.46l-2.245-3.413a3.24 3.24 0 0 0-2.716-1.462h-4.946l-3.494-3.535a3.25 3.25 0 0 0-4.002-.487L32.5 51.174V48.41a3.278 3.278 0 0 0-1.462-2.717l-3.413-2.28V40.75l6.663-1.324c.266-.06.524-.153.768-.276l5.959-2.982a3.028 3.028 0 0 0 1.138-.965l4.294-5.737 5.314-1.329a3.095 3.095 0 0 0 1.932-1.344l.543-.812a165.889 165.889 0 0 1 9.696 8.554h-2.925a3.275 3.275 0 0 0-2.715 1.453l-2.403 3.592a3.278 3.278 0 0 0-.412 2.548l1.203 4.905a3.275 3.275 0 0 0 2.395 2.366l5.03 1.22a3.135 3.135 0 0 0 1.836-.052l3.489-1.123 2.07 2.064v5.249c.004.702.231 1.385.65 1.95l1.313 1.746a172.92 172.92 0 0 1-6.524 6.904 157.879 157.879 0 0 1-23.794 19.7 35.81 35.81 0 0 1-26.895-34.64Zm20.962 11.097L35.1 62.456l-2.6-2.587v-4.888l6.25-3.812 3.5 3.533c.61.614 1.438.96 2.303.965h4.946l2.247 3.412a3.249 3.249 0 0 0 2.716 1.463h1.893l-.91 3.654-2.824.936a3.25 3.25 0 0 0-2.228 3.064l-.018 2.713-4.703 2.355a3.23 3.23 0 0 0-1.797 2.907v4.846l-1.974-.65L39 71.673v-5.252a3.23 3.23 0 0 0-1.788-2.907ZM52 88.167a36.01 36.01 0 0 1-4.314-.27 164.924 164.924 0 0 0 21.55-18.244 175.213 175.213 0 0 0 6.218-6.55l.921 1.225v5.298a3.26 3.26 0 0 0 .947 2.29l2.685 2.685A35.697 35.697 0 0 1 52 88.167Z" fill="url(#a)"/><defs><linearGradient id="a" x1="11.994" y1="12.183" x2="100.654" y2="123.568" gradientUnits="userSpaceOnUse"><stop stop-color="#007BC4"/><stop offset="1" stop-color="#0B4C97"/></linearGradient></defs></svg>