<svg width="104" height="105" fill="none" xmlns="http://www.w3.org/2000/svg"><path fill="#303030" d="M0 0h104v105H0z"/><g clip-path="url(#a)"><path fill="#FEFEFE" d="M-668-1976H772V8543H-668z"/><path d="M16.134 93.303a3.925 3.925 0 0 0 3.59-2.355h5.161c2.045 0 4.003.628 5.663 1.817l4.702 3.365a17.992 17.992 0 0 0 21.93-.722l21.8-17.972a3.542 3.542 0 0 0 .066-5.406 8.493 8.493 0 0 0-10.322-.616L58.48 78.329c-.718-2.388-3.05-4.146-5.704-4.146h-9.921a9.739 9.739 0 0 1-6.876-2.846 13.767 13.767 0 0 0-9.664-4.007h-6.593a3.924 3.924 0 0 0-3.585-2.347H6.838a1.962 1.962 0 1 0 0 3.925h9.296v20.47H6.838a1.962 1.962 0 1 0 0 3.925h9.296Zm3.924-22.048h6.254a9.811 9.811 0 0 1 6.887 2.855 13.685 13.685 0 0 0 9.655 3.997h9.921c1.054 0 2.072.85 2.006 1.884a1.77 1.77 0 0 1-1.767 1.654H39.436a1.962 1.962 0 1 0 0 3.925h13.578c1.15 0 2.245-.334 3.171-.964 1.806-1.205 14.943-10.08 14.741-9.943a4.562 4.562 0 0 1 5.188.05L54.682 92.38a14.073 14.073 0 0 1-17.146.56l-4.703-3.367a13.578 13.578 0 0 0-7.948-2.55h-4.827v-15.77Z" fill="url(#b)"/><path d="M13.795 85.434a1.962 1.962 0 0 0-1.963-1.962h-.013c-1.084 0-1.955.879-1.955 1.962a1.97 1.97 0 0 0 1.97 1.962c1.084 0 1.96-.879 1.96-1.962Zm37.6-15.176c10.12 0 18.352-8.234 18.352-18.351 0-10.12-8.232-18.35-18.351-18.35-10.12 0-18.352 8.23-18.352 18.348 0 10.12 8.232 18.353 18.352 18.353Zm0-32.776c7.956 0 14.427 6.47 14.427 14.423 0 7.955-6.471 14.428-14.426 14.428S36.969 59.86 36.969 51.907c0-7.955 6.472-14.425 14.427-14.425Z" fill="url(#c)"/><path d="M51.396 53.869c.977 0 1.771.793 1.771 1.77a1.783 1.783 0 0 1-1.771 1.791 1.759 1.759 0 0 1-1.69-1.255 1.962 1.962 0 1 0-3.756 1.142A5.651 5.651 0 0 0 49.433 61v.255a1.962 1.962 0 0 0 3.925 0v-.27a5.706 5.706 0 0 0 3.734-5.346 5.703 5.703 0 0 0-5.696-5.697 1.788 1.788 0 0 1-1.242-.496 1.811 1.811 0 0 1-.53-1.275c0-.983.79-1.784 1.766-1.788h.014a1.753 1.753 0 0 1 1.681 1.254 1.961 1.961 0 0 0 3.61.353 1.962 1.962 0 0 0 .146-1.495 5.656 5.656 0 0 0-3.483-3.683v-.253a1.962 1.962 0 0 0-3.925 0v.268a5.705 5.705 0 0 0-3.734 5.344c0 1.5.583 2.927 1.68 4.05a5.73 5.73 0 0 0 4.017 1.648ZM50.9 13.492l-9.646 2.482a1.96 1.96 0 0 0-1.085 3.081 1.963 1.963 0 0 0 2.062.72l9.16-2.355 9.158 2.355a1.962 1.962 0 1 0 .977-3.801l-9.647-2.482a1.97 1.97 0 0 0-.979 0Z" fill="url(#d)"/><path d="M99.124 49.675c0-2.55-1.648-4.707-3.933-5.518v-26.11c0-.853-.686-1.697-1.471-1.899L51.878 5.387a1.962 1.962 0 0 0-.977 0L9.064 16.148c-1.959.502-1.957 3.297 0 3.799l10.029 2.58v20.37a7.898 7.898 0 0 0 5.669 7.555c.683.2 1.387.4 2.07.583a1.963 1.963 0 0 0 1-3.795 76.727 76.727 0 0 1-1.973-.555 3.958 3.958 0 0 1-2.842-3.787V23.55l27.886 7.16c.32.082.656.082.975 0l27.888-7.162v19.35a3.956 3.956 0 0 1-2.845 3.787c-.656.194-1.314.379-1.974.555a1.964 1.964 0 0 0-.486 3.594 1.965 1.965 0 0 0 1.488.201 91.9 91.9 0 0 0 2.067-.58A7.9 7.9 0 0 0 83.69 42.9V22.525l7.576-1.948v23.58a5.867 5.867 0 0 0-3.917 5.514c0 2.56 1.64 4.72 3.915 5.534v.638a3.944 3.944 0 0 0-3.093 3.53l-.653 8.496a3.94 3.94 0 0 0 1.034 2.97 3.935 3.935 0 0 0 2.879 1.255h3.61a3.935 3.935 0 0 0 2.879-1.256 3.94 3.94 0 0 0 1.034-2.969l-.653-8.496a3.944 3.944 0 0 0-3.113-3.536v-.628a5.887 5.887 0 0 0 3.935-5.536v.002Zm-5.897 1.97a1.963 1.963 0 0 1 0-3.924c1.087 0 1.972.877 1.972 1.954 0 1.087-.885 1.97-1.972 1.97ZM51.392 26.783 17.43 18.047l33.96-8.733 33.962 8.733-33.961 8.738Zm40.04 41.389.653-8.497h2.304l.653 8.497h-3.61Z" fill="url(#e)"/></g><defs><linearGradient id="b" x1="11.937" y1="68.137" x2="32.457" y2="124.445" gradientUnits="userSpaceOnUse"><stop stop-color="#007BC4"/><stop offset="1" stop-color="#0B4C97"/></linearGradient><linearGradient id="c" x1="15.473" y1="38.476" x2="62.541" y2="104.267" gradientUnits="userSpaceOnUse"><stop stop-color="#007BC4"/><stop offset="1" stop-color="#0B4C97"/></linearGradient><linearGradient id="d" x1="41.952" y1="17.978" x2="82.086" y2="41.51" gradientUnits="userSpaceOnUse"><stop stop-color="#007BC4"/><stop offset="1" stop-color="#0B4C97"/></linearGradient><linearGradient id="e" x1="16.168" y1="11.424" x2="69.726" y2="103.689" gradientUnits="userSpaceOnUse"><stop stop-color="#007BC4"/><stop offset="1" stop-color="#0B4C97"/></linearGradient><clipPath id="a"><path fill="#fff" transform="translate(-668 -1976)" d="M0 0h1440v10519H0z"/></clipPath></defs></svg>