<svg width="104" height="105" fill="none" xmlns="http://www.w3.org/2000/svg"><path d="M49.493 36.943H67.61a1.625 1.625 0 1 0 0-3.25H49.493a1.625 1.625 0 0 0 0 3.25ZM24.78 47.646h42.834a1.625 1.625 0 0 0 0-3.25H24.78a1.625 1.625 0 1 0 0 3.25h.001Zm33.77 7.468h-9.058a1.625 1.625 0 1 0 0 3.25h9.057a1.625 1.625 0 1 0 0-3.25Zm-15.648 0H24.785a1.625 1.625 0 1 0 0 3.25h18.118a1.625 1.625 0 0 0 0-3.25Zm13.471 9.999H49.5a1.625 1.625 0 1 0 0 3.25h6.875a1.625 1.625 0 1 0 0-3.25Zm-13.47.011h-18.12a1.625 1.625 0 1 0 0 3.25h18.12a1.625 1.625 0 0 0 0-3.25Zm11.442 10.01h-4.853a1.625 1.625 0 1 0 0 3.25h4.853a1.625 1.625 0 0 0 0-3.25Zm-11.443 0H24.785a1.625 1.625 0 1 0 0 3.25h18.118a1.625 1.625 0 0 0 0-3.25Z" fill="url(#a)"/><path d="M91.544 96.289a18.143 18.143 0 0 0-11.511-16.856 12.18 12.18 0 0 0-.08-20.334v-42.53a9.664 9.664 0 0 0-9.652-9.652H35.49a1.817 1.817 0 0 0-1.15.476L12.922 28.811a1.782 1.782 0 0 0-.465 1.314v56.066a9.664 9.664 0 0 0 9.653 9.653h33.194a1.69 1.69 0 0 0 1.603 2.073h33.01a1.63 1.63 0 0 0 1.627-1.628Zm-3.342-1.622H58.624c2.331-17.561 27.25-17.542 29.578 0Zm-5.915-25.376c-.374 11.724-17.376 11.723-17.747 0 .374-11.728 17.376-11.724 17.747 0ZM33.865 12.465v9.462a6.414 6.414 0 0 1-6.407 6.407h-9.463l15.87-15.87ZM22.111 92.594a6.41 6.41 0 0 1-6.402-6.403V31.584h11.749a9.669 9.669 0 0 0 9.657-9.657v-11.76h33.186a6.41 6.41 0 0 1 6.402 6.403v41.063a12.069 12.069 0 0 0-3.29-.466c-12.022-.013-16.58 15.855-6.622 22.264a18.18 18.18 0 0 0-11.128 13.163H22.11Z" fill="url(#b)"/><defs><linearGradient id="a" x1="27.471" y1="37.776" x2="67.404" y2="89.526" gradientUnits="userSpaceOnUse"><stop stop-color="#007BC4"/><stop offset="1" stop-color="#0B4C97"/></linearGradient><linearGradient id="b" x1="19.862" y1="15.229" x2="103.595" y2="106.687" gradientUnits="userSpaceOnUse"><stop stop-color="#007BC4"/><stop offset="1" stop-color="#0B4C97"/></linearGradient></defs></svg>