<svg width="94" height="105" fill="none" xmlns="http://www.w3.org/2000/svg"><path fill="#303030" d="M0 0h94v105H0z"/><g clip-path="url(#a)"><path fill="#FEFEFE" d="M-133-1964h1440V8555H-133z"/><path d="M90.007 80.69a1.526 1.526 0 0 0-.94 1.943c.584 1.676.216 3.609-.96 5.044-1.153 1.408-2.873 2.07-4.718 1.817l-4.867-.671a1.528 1.528 0 0 0-1.72 1.719l.668 4.872c.377 2.739-1.223 4.577-2.847 5.383-1.624.807-4.055.972-6.01-.984L56.584 87.78c.381-.531.719-1.094 1.008-1.68a11.818 11.818 0 0 0 12.48.424 11.834 11.834 0 0 0 5.872-11.018 11.81 11.81 0 0 0 5.684-1.038l4.008 4.008a1.523 1.523 0 0 0 2.159 0 1.526 1.526 0 0 0 0-2.158l-3.511-3.51a11.792 11.792 0 0 0 4.26-9.062c0-2.349-.715-4.656-2.007-6.589a11.819 11.819 0 0 0 6.608-10.596c0-2.647-.858-5.15-2.48-7.235a11.893 11.893 0 0 0-4.127-3.356 11.82 11.82 0 0 0 .425-12.48 11.834 11.834 0 0 0-11.017-5.872 11.818 11.818 0 0 0-5.872-11.02 11.779 11.779 0 0 0-5.887-1.583 11.91 11.91 0 0 0-6.59 2.009A11.822 11.822 0 0 0 47 .417c-2.648 0-5.15.858-7.236 2.48a11.893 11.893 0 0 0-3.356 4.127 11.819 11.819 0 0 0-12.48-.425 11.835 11.835 0 0 0-5.872 11.023c-3.212-.212-6.45.905-8.838 3.126a1.526 1.526 0 0 0 2.08 2.235 8.802 8.802 0 0 1 8.209-2.044 1.527 1.527 0 0 0 1.868-1.87 8.66 8.66 0 0 1-.293-2.245 8.776 8.776 0 0 1 4.372-7.582 8.755 8.755 0 0 1 10.55 1.382 1.526 1.526 0 0 0 2.551-.684 8.802 8.802 0 0 1 3.083-4.634A8.657 8.657 0 0 1 47 3.47a8.756 8.756 0 0 1 8.445 6.471 1.526 1.526 0 0 0 2.552.684 8.815 8.815 0 0 1 6.19-2.555 8.726 8.726 0 0 1 4.36 1.173 8.754 8.754 0 0 1 4.078 9.829 1.526 1.526 0 0 0 1.87 1.868 8.65 8.65 0 0 1 2.244-.294 8.773 8.773 0 0 1 7.58 4.373 8.755 8.755 0 0 1-1.382 10.549 1.526 1.526 0 0 0 .684 2.552 8.802 8.802 0 0 1 4.634 3.082 8.657 8.657 0 0 1 1.837 5.362 8.755 8.755 0 0 1-6.47 8.445 1.527 1.527 0 0 0-.684 2.553 8.805 8.805 0 0 1 2.554 6.186 8.736 8.736 0 0 1-1.173 4.362 8.756 8.756 0 0 1-9.827 4.078 1.525 1.525 0 0 0-1.868 1.87 8.66 8.66 0 0 1 .294 2.245 8.774 8.774 0 0 1-4.372 7.58 8.752 8.752 0 0 1-10.55-1.381 1.526 1.526 0 0 0-2.552.683 8.802 8.802 0 0 1-3.082 4.634A8.657 8.657 0 0 1 47 89.655a8.755 8.755 0 0 1-8.445-6.47 1.526 1.526 0 0 0-2.553-.684 8.805 8.805 0 0 1-6.186 2.554 8.752 8.752 0 0 1-8.44-11 1.526 1.526 0 0 0-1.867-1.868 8.734 8.734 0 0 1-2.246.295 8.778 8.778 0 0 1-7.582-4.373 8.753 8.753 0 0 1 1.381-10.549 1.526 1.526 0 0 0-.683-2.552 8.802 8.802 0 0 1-4.634-3.083 8.656 8.656 0 0 1-1.837-5.362 8.755 8.755 0 0 1 6.47-8.445 1.526 1.526 0 0 0 .684-2.552 8.816 8.816 0 0 1-2.554-6.189c0-.65.074-1.305.22-1.945a1.526 1.526 0 1 0-2.975-.68 11.808 11.808 0 0 0-.297 2.625c0 2.348.716 4.657 2.008 6.59A11.82 11.82 0 0 0 .856 46.565c0 2.647.858 5.15 2.48 7.235a11.892 11.892 0 0 0 4.126 3.356 11.818 11.818 0 0 0-.424 12.48 11.748 11.748 0 0 0 2.683 3.172l-5.67 5.669c-2.553 2.553-3.165 6.293-1.56 9.526 1.607 3.234 4.956 5.006 8.535 4.515l2.876-.396-.397 2.876c-.491 3.578 1.281 6.928 4.515 8.534a8.338 8.338 0 0 0 3.716.885c2.126 0 4.203-.838 5.81-2.446l11.956-11.958A11.788 11.788 0 0 0 47 92.707c2.648 0 5.15-.857 7.235-2.48.09-.07.174-.144.261-.215l11.959 11.958c1.606 1.608 3.683 2.447 5.808 2.447 1.25 0 2.519-.291 3.717-.886 3.235-1.607 5.006-4.957 4.513-8.533l-.394-2.877 2.874.397c2.922.401 5.653-.658 7.495-2.907 1.844-2.251 2.412-5.31 1.482-7.981a1.526 1.526 0 0 0-1.943-.94ZM25.388 99.812c-1.955 1.956-4.387 1.792-6.01.985-1.624-.806-3.226-2.644-2.85-5.384l.672-4.87a1.528 1.528 0 0 0-1.72-1.72l-4.87.67c-2.74.377-4.578-1.224-5.385-2.848-.806-1.624-.97-4.055.985-6.011l6.164-6.164a11.793 11.793 0 0 0 5.68 1.037c-.3 4.42 1.926 8.74 5.874 11.018a11.794 11.794 0 0 0 5.888 1.582c2.347 0 4.655-.715 6.588-2.007.29.589.627 1.152 1.01 1.685L25.389 99.812Z" fill="url(#b)"/><path d="M47 79.834c18.346 0 33.271-14.925 33.271-33.271S65.346 13.29 47 13.29 13.728 28.217 13.728 46.563c0 18.346 14.926 33.271 33.272 33.271Zm0-63.491c16.663 0 30.22 13.556 30.22 30.22 0 16.663-13.557 30.22-30.22 30.22-16.663 0-30.22-13.557-30.22-30.22 0-16.664 13.557-30.22 30.22-30.22Z" fill="url(#c)"/><path d="M35.72 32.122v11.444a4.583 4.583 0 0 0 4.578 4.578 4.583 4.583 0 0 0 4.577-4.578V27.58a4.583 4.583 0 0 0-4.577-4.578h-4.006a4.583 4.583 0 0 0-4.578 4.578c0 2.33 1.75 4.26 4.006 4.542Zm.572-6.068h4.006c.841 0 1.526.684 1.526 1.526v15.986c0 .842-.685 1.526-1.526 1.526a1.528 1.528 0 0 1-1.526-1.526V30.631a1.526 1.526 0 0 0-1.526-1.526h-.954a1.528 1.528 0 0 1-1.526-1.526c0-.841.685-1.525 1.526-1.525Z" fill="url(#d)"/><path d="M52.861 32.122v11.444a4.583 4.583 0 0 0 4.578 4.578 4.583 4.583 0 0 0 4.578-4.578V27.58a4.583 4.583 0 0 0-4.578-4.578h-4.005a4.583 4.583 0 0 0-4.578 4.578c0 2.33 1.75 4.26 4.005 4.542Zm.573-6.068h4.005c.842 0 1.526.684 1.526 1.526v15.986c0 .842-.684 1.526-1.526 1.526a1.528 1.528 0 0 1-1.526-1.526V30.631a1.526 1.526 0 0 0-1.525-1.526h-.954a1.528 1.528 0 0 1-1.526-1.526c0-.841.685-1.525 1.526-1.525Z" fill="url(#e)"/><path d="M26.43 65.887a1.523 1.523 0 0 0 1.94-.943l4.483-12.968a1.526 1.526 0 1 0-2.884-.997l-1.78 5.147-1.828-5.158a1.525 1.525 0 1 0-2.876 1.02l3.106 8.762-1.105 3.196a1.526 1.526 0 0 0 .943 1.941Zm23.469-4.582c.873 0 1.698-.209 2.429-.578a1.526 1.526 0 0 0 2.989-.43v-8.82a1.526 1.526 0 0 0-2.99-.431 5.383 5.383 0 0 0-2.428-.577 5.424 5.424 0 0 0-5.418 5.418 5.424 5.424 0 0 0 5.418 5.418Zm0-7.784a2.369 2.369 0 0 1 2.366 2.366 2.369 2.369 0 0 1-2.366 2.366 2.369 2.369 0 0 1-2.366-2.366 2.369 2.369 0 0 1 2.366-2.366Zm-11.311-3.57a5.427 5.427 0 0 0-5.418 5.424l.016.472a5.88 5.88 0 0 0 5.873 5.853c.99 0 1.893-.242 2.683-.72a1.525 1.525 0 1 0-1.578-2.612c-.307.186-.679.28-1.105.28a2.817 2.817 0 0 1-2.275-1.16l5.692.011h.004a1.526 1.526 0 0 0 1.525-1.526v-.604a5.424 5.424 0 0 0-5.417-5.418Zm-2.173 4.485a2.369 2.369 0 0 1 2.173-1.433 2.37 2.37 0 0 1 2.177 1.441l-4.35-.008Zm26.919-1.468a3.187 3.187 0 0 0 1.422 3.154c.067.044.138.082.211.115.05.023 1.253.558 2.606 1.057.526.194.882.479.846.677-.038.214-.39.614-1.068.614-.734 0-1.436-.291-1.878-.779a1.526 1.526 0 0 0-2.261 2.05c1.026 1.131 2.534 1.78 4.14 1.78 2.035 0 3.748-1.315 4.072-3.128.377-2.11-1.27-3.515-2.795-4.078-.976-.36-1.89-.75-2.253-.908-.017-.025-.03-.063-.021-.121.02-.143.156-.262.373-.327.975-.294 1.924.435 1.966.468a1.526 1.526 0 1 0 1.952-2.346c-.81-.68-2.732-1.667-4.798-1.044-1.36.41-2.324 1.489-2.514 2.816Zm-2.994-2.634c-.12.061-.331.181-.597.367a1.523 1.523 0 0 0-2.837.776v8.697a1.526 1.526 0 1 0 3.052 0v-5.17c.009-.046.101-.41.891-1.242.475-.499.878-.71.882-.711a1.527 1.527 0 0 0 .66-2.055 1.525 1.525 0 0 0-2.05-.662ZM43.187 67.521l1.655 1.655-1.655 1.654a1.525 1.525 0 1 0 2.158 2.158L47 71.334l1.654 1.654a1.522 1.522 0 0 0 2.159 0 1.526 1.526 0 0 0 0-2.158l-1.655-1.654 1.655-1.655a1.526 1.526 0 0 0-2.158-2.158L47 67.018l-1.654-1.655a1.526 1.526 0 0 0-2.159 2.158Z" fill="url(#f)"/></g><defs><linearGradient id="b" x1="9.5" y1="9.917" x2="105" y2="116.417" gradientUnits="userSpaceOnUse"><stop stop-color="#007BC4"/><stop offset="1" stop-color="#0B4C97"/></linearGradient><linearGradient id="c" x1="19.961" y1="19.369" x2="79.859" y2="94.643" gradientUnits="userSpaceOnUse"><stop stop-color="#007BC4"/><stop offset="1" stop-color="#0B4C97"/></linearGradient><linearGradient id="d" x1="32.947" y1="25.299" x2="54.274" y2="39.328" gradientUnits="userSpaceOnUse"><stop stop-color="#007BC4"/><stop offset="1" stop-color="#0B4C97"/></linearGradient><linearGradient id="e" x1="50.089" y1="25.299" x2="71.416" y2="39.328" gradientUnits="userSpaceOnUse"><stop stop-color="#007BC4"/><stop offset="1" stop-color="#0B4C97"/></linearGradient><linearGradient id="f" x1="27.901" y1="52.096" x2="42.55" y2="89.789" gradientUnits="userSpaceOnUse"><stop stop-color="#007BC4"/><stop offset="1" stop-color="#0B4C97"/></linearGradient><clipPath id="a"><path fill="#fff" transform="translate(-133 -1964)" d="M0 0h1440v10519H0z"/></clipPath></defs></svg>