<svg width="104" height="105" fill="none" xmlns="http://www.w3.org/2000/svg"><g clip-path="url(#a)"><path d="M27.733 17.75a10.4 10.4 0 1 0-20.8 0 10.4 10.4 0 0 0 20.8 0Zm-17.333 0a6.933 6.933 0 1 1 13.867 0 6.933 6.933 0 0 1-13.867 0Z" fill="url(#b)"/><path d="M86.667 48.95c-9.41-.145-17.162 7.353-17.334 16.762 0 7.384 4.802 16.021 9.156 22.339-4.715 1.186-7.873 3.328-8.84 5.966H15.6a12.133 12.133 0 1 1 0-24.266h34.667a12.133 12.133 0 0 0 0-24.267H34.346c-.962-2.638-4.12-4.78-8.84-5.966 4.36-6.318 9.16-14.956 9.16-22.34C34.497 7.77 26.745.273 17.334.418 7.923.271.172 7.77 0 17.177c0 7.384 4.801 16.022 9.155 22.34C3.442 40.955 0 43.79 0 47.218c0 4.94 7.453 8.666 17.333 8.666 8.688 0 15.491-2.881 17.011-6.934h15.923a8.667 8.667 0 0 1 0 17.334H15.6a15.6 15.6 0 0 0 0 31.2h54.056c1.52 4.052 8.32 6.933 17.01 6.933 9.88 0 17.334-3.725 17.334-8.666 0-3.427-3.442-6.263-9.156-7.7C99.2 81.733 104 73.096 104 65.711c-.172-9.408-7.923-16.906-17.333-16.76Zm-83.2-31.772A13.605 13.605 0 0 1 17.333 3.884 13.605 13.605 0 0 1 31.2 17.178c0 9.804-10.206 22.965-13.867 27.372-3.662-4.405-13.866-17.556-13.866-27.371Zm13.866 35.24c-8.465 0-13.866-3.08-13.866-5.2 0-1.56 2.782-3.618 7.904-4.624a103.76 103.76 0 0 0 2.24 2.89h-1.478a1.733 1.733 0 1 0 0 3.466h10.4a1.734 1.734 0 0 0 0-3.466h-1.477c.663-.822 1.418-1.793 2.24-2.89 5.13 1.006 7.904 3.063 7.904 4.623 0 2.122-5.401 5.2-13.867 5.2Zm83.2 43.333c0 2.121-5.4 5.199-13.866 5.199S72.8 97.872 72.8 95.75c0-1.56 2.773-3.617 7.904-4.622a103.539 103.539 0 0 0 2.24 2.89h-1.477a1.733 1.733 0 1 0 0 3.466h10.4a1.733 1.733 0 1 0 0-3.467H90.39c.662-.822 1.418-1.792 2.24-2.89 5.13 1.006 7.903 3.064 7.903 4.624Zm-13.866-2.668C83.004 88.679 72.8 75.528 72.8 65.712a13.879 13.879 0 0 1 27.733 0c0 9.803-10.206 22.965-13.866 27.37Z" fill="url(#c)"/><path d="M86.667 55.884a10.4 10.4 0 1 0 0 20.8 10.4 10.4 0 0 0 0-20.8Zm0 17.333a6.933 6.933 0 1 1 0-13.867 6.933 6.933 0 0 1 0 13.867Z" fill="url(#d)"/></g><defs><linearGradient id="b" x1="8.882" y1="9.251" x2="27.604" y2="32.78" gradientUnits="userSpaceOnUse"><stop stop-color="#007BC4"/><stop offset="1" stop-color="#0B4C97"/></linearGradient><linearGradient id="c" x1="9.741" y1="9.915" x2="103.357" y2="127.561" gradientUnits="userSpaceOnUse"><stop stop-color="#007BC4"/><stop offset="1" stop-color="#0B4C97"/></linearGradient><linearGradient id="d" x1="78.215" y1="57.784" x2="96.938" y2="81.313" gradientUnits="userSpaceOnUse"><stop stop-color="#007BC4"/><stop offset="1" stop-color="#0B4C97"/></linearGradient><clipPath id="a"><path fill="#fff" transform="translate(0 .417)" d="M0 0h104v104H0z"/></clipPath></defs></svg>