<svg width="94" height="105" viewBox="0 0 94 105" fill="none" xmlns="http://www.w3.org/2000/svg">
<rect width="94" height="105" fill="#303030"/>
<g clip-path="url(#clip0_0_1)">
<rect width="1440" height="10519" transform="translate(-133 -1964)" fill="#FEFEFE"/>
<path d="M90.0074 80.6901C89.6252 80.8231 89.3115 81.1025 89.1353 81.4668C88.9591 81.8311 88.9348 82.2505 89.0678 82.6327C89.6509 84.3087 89.2831 86.2418 88.1071 87.6774C86.9541 89.0853 85.2345 89.7476 83.3891 89.4942L78.5225 88.8228C78.2891 88.7908 78.0516 88.8131 77.8283 88.8881C77.6051 88.9631 77.4022 89.0888 77.2356 89.2552C77.069 89.4217 76.9432 89.6244 76.868 89.8476C76.7927 90.0707 76.7702 90.3083 76.802 90.5416L77.4696 95.4136C77.8472 98.153 76.2466 99.9908 74.6228 100.797C72.9992 101.604 70.5677 101.769 68.6137 99.8128L56.5825 87.7813C56.9644 87.2496 57.3018 86.6873 57.5912 86.1002C61.2695 88.5716 66.1238 88.8043 70.0717 86.5246C73.7099 84.4247 75.9699 80.5076 75.9699 76.3017C75.9699 76.0358 75.9609 75.7707 75.9432 75.5066C77.9157 75.6401 79.8675 75.2696 81.6274 74.4692L85.6355 78.4773C85.9336 78.7751 86.3242 78.9243 86.7146 78.9243C87.1051 78.9243 87.4957 78.7753 87.7938 78.4773C88.0799 78.1911 88.2407 77.803 88.2407 77.3983C88.2407 76.9937 88.0799 76.6056 87.7938 76.3194L84.2829 72.8086C85.3573 71.918 86.2644 70.8431 86.9618 69.6344C87.9961 67.8443 88.5417 65.8138 88.5437 63.7464C88.5437 61.3985 87.8284 59.0909 86.536 57.158C90.5154 55.2081 93.1439 51.1203 93.1439 46.5624C93.1439 43.9148 92.2863 41.4127 90.6639 39.3265C89.5612 37.9088 88.1384 36.7589 86.5372 35.9709C89.0084 32.292 89.2412 27.4375 86.9623 23.4906C84.8624 19.8524 80.9452 17.5922 76.7394 17.5922C76.4736 17.5922 76.209 17.601 75.9453 17.6187C76.2462 13.1969 74.0202 8.87713 70.0729 6.59862C68.2835 5.56379 66.2532 5.01809 64.1861 5.01634C61.8384 5.01634 59.53 5.73189 57.5959 7.02486C55.645 3.04586 51.5573 0.416992 46.9997 0.416992C44.3519 0.416992 41.8498 1.27456 39.7639 2.89713C38.3461 3.99987 37.1961 5.42264 36.4081 7.02384C32.729 4.55245 27.8745 4.3197 23.9279 6.59882C20.2897 8.6987 18.0297 12.6167 18.0297 16.8237C18.0297 17.0907 18.0386 17.3568 18.0565 17.6219C14.8437 17.4099 11.6055 18.5269 9.21815 20.7482C8.92704 21.0252 8.75692 21.4058 8.74469 21.8074C8.73247 22.2091 8.87914 22.5993 9.15287 22.8935C9.42659 23.1877 9.80529 23.362 10.2068 23.3787C10.6082 23.3954 11.0001 23.253 11.2973 22.9826C13.4806 20.9507 16.6262 20.1676 19.507 20.9387C19.7658 21.0079 20.0382 21.0079 20.297 20.9385C20.5557 20.869 20.7916 20.7327 20.981 20.5432C21.1704 20.3537 21.3065 20.1177 21.3757 19.8589C21.4449 19.6001 21.4448 19.3276 21.3753 19.0689C21.1797 18.3366 21.081 17.5817 21.0819 16.8237C21.0819 13.7037 22.7572 10.7986 25.454 9.24193C28.8741 7.26738 33.2118 7.83564 36.0034 10.6238C36.1929 10.813 36.4287 10.949 36.6873 11.0182C36.9459 11.0874 37.2181 11.0873 37.4767 11.018C37.7352 10.9487 37.971 10.8127 38.1604 10.6234C38.3497 10.4342 38.486 10.1985 38.5554 9.93999C39.0449 8.11743 40.1397 6.47166 41.638 5.30626C43.1834 4.10444 45.0375 3.46905 47.0001 3.46905C50.9484 3.46905 54.4212 6.13006 55.445 9.9402C55.5144 10.1987 55.6507 10.4345 55.84 10.6237C56.0294 10.8129 56.2652 10.949 56.5238 11.0183C56.7824 11.0875 57.0547 11.0876 57.3133 11.0183C57.5719 10.9491 57.8077 10.813 57.9971 10.6238C59.6221 9.00043 61.8781 8.06921 64.1861 8.06921C65.7173 8.07088 67.2212 8.47547 68.5466 9.24234C71.9675 11.2169 73.6446 15.2584 72.6247 19.0707C72.5556 19.3295 72.5558 19.6019 72.6253 19.8605C72.6948 20.1192 72.8312 20.355 73.0207 20.5443C73.2101 20.7335 73.4461 20.8696 73.7048 20.9389C73.9635 21.0081 74.2359 21.008 74.4946 20.9387C75.2268 20.7429 75.9815 20.6442 76.7394 20.6451C79.8582 20.6451 82.7625 22.3203 84.3191 25.0176C86.2937 28.4371 85.7254 32.775 82.9375 35.5668C82.7482 35.7562 82.6121 35.992 82.5428 36.2506C82.4735 36.5092 82.4736 36.7815 82.5429 37.0401C82.6122 37.2988 82.7483 37.5346 82.9376 37.7239C83.1269 37.9132 83.3627 38.0494 83.6213 38.1188C85.4441 38.6083 87.0896 39.7033 88.255 41.2013C89.4568 42.7466 90.092 44.6009 90.092 46.5634C90.092 50.5123 87.4312 53.9849 83.6211 55.0083C83.3625 55.0778 83.1267 55.214 82.9374 55.4034C82.7482 55.5929 82.6121 55.8287 82.5428 56.0874C82.4735 56.3461 82.4736 56.6184 82.5429 56.877C82.6122 57.1357 82.7484 57.3715 82.9377 57.5609C84.5611 59.1841 85.4919 61.439 85.4919 63.7474C85.49 65.2791 85.0854 66.7833 84.3187 68.1093C82.3446 71.5286 78.3039 73.2059 74.492 72.1874C74.2332 72.1181 73.9608 72.1182 73.702 72.1877C73.4433 72.2572 73.2075 72.3935 73.0182 72.5831C72.8289 72.7726 72.6928 73.0086 72.6237 73.2674C72.5546 73.5262 72.5549 73.7987 72.6245 74.0574C72.8201 74.7897 72.9187 75.5445 72.9178 76.3025C72.9178 79.4213 71.2426 82.3256 68.5458 83.8823C65.1246 85.8577 60.7867 85.2894 57.9967 82.5008C57.8073 82.3116 57.5715 82.1756 57.3128 82.1063C57.0542 82.0371 56.782 82.0371 56.5233 82.1064C56.2647 82.1757 56.0289 82.3117 55.8395 82.501C55.6501 82.6902 55.5138 82.9259 55.4444 83.1844C54.9548 85.0072 53.86 86.6528 52.3618 87.8182C50.8163 89.02 48.9622 89.6554 46.9997 89.6554C43.051 89.6554 39.5782 86.9944 38.5548 83.1844C38.4853 82.9258 38.3491 82.69 38.1596 82.5007C37.9702 82.3114 37.7343 82.1753 37.4756 82.1061C37.2169 82.0369 36.9445 82.0369 36.6859 82.1063C36.4272 82.1757 36.1914 82.3119 36.002 82.5012C34.379 84.1244 32.1241 85.0552 29.8157 85.0552C28.2839 85.0533 26.7795 84.6487 25.4534 83.8821C22.0325 81.9075 20.3552 77.8671 21.3753 74.0561C21.4443 73.7976 21.4442 73.5255 21.3749 73.2671C21.3057 73.0087 21.1697 72.773 20.9806 72.5837C20.7915 72.3944 20.556 72.2581 20.2976 72.1885C20.0393 72.1189 19.7672 72.1185 19.5086 72.1872C18.7759 72.3824 18.0209 72.4814 17.2626 72.4816C14.1436 72.4816 11.2385 70.8061 9.68081 68.1091C7.70566 64.6886 8.27371 60.3507 11.0621 57.5603C11.2514 57.3709 11.3876 57.1351 11.4569 56.8764C11.5262 56.6178 11.5262 56.3455 11.4569 56.0868C11.3876 55.8281 11.2515 55.5923 11.0622 55.4029C10.8729 55.2135 10.6371 55.0773 10.3785 55.0079C8.5557 54.5182 6.90994 53.4234 5.74474 51.9253C4.54292 50.3801 3.90773 48.5258 3.90773 46.5632C3.90773 42.6143 6.56854 39.1417 10.3787 38.1184C10.6373 38.049 10.8731 37.9128 11.0624 37.7235C11.2517 37.5342 11.3878 37.2983 11.4571 37.0397C11.5264 36.7811 11.5264 36.5088 11.4572 36.2502C11.3879 35.9916 11.2518 35.7557 11.0625 35.5664C9.43911 33.9412 8.50789 31.6853 8.50789 29.3772C8.50789 28.7264 8.58194 28.0719 8.72803 27.4322C8.77268 27.2368 8.77841 27.0346 8.74488 26.837C8.71135 26.6395 8.63923 26.4504 8.53263 26.2808C8.42603 26.1111 8.28704 25.964 8.12361 25.8481C7.96018 25.7321 7.7755 25.6495 7.58012 25.6049C7.38477 25.5603 7.18254 25.5546 6.98498 25.5882C6.78743 25.6217 6.59841 25.6938 6.42873 25.8004C6.25905 25.907 6.11203 26.046 5.99607 26.2094C5.8801 26.3728 5.79747 26.5575 5.75288 26.7528C5.55608 27.6139 5.45651 28.4942 5.45603 29.3774C5.45603 31.7251 6.17159 34.0336 7.46436 35.9676C3.48494 37.9177 0.856079 42.0056 0.856079 46.5636C0.856079 49.2112 1.71365 51.7133 3.33601 53.7994C4.43855 55.2171 5.86112 56.3668 7.46232 57.155C4.99093 60.8331 4.75818 65.6876 7.03791 69.6356C7.73668 70.8439 8.64514 71.918 9.72069 72.8075L4.05157 78.4758C1.49819 81.0292 0.885783 84.7686 2.49146 88.0019C4.09755 91.236 7.44747 93.0077 11.0257 92.517L13.9015 92.1207L13.5048 94.9973C13.0138 98.5751 14.7862 101.925 18.0203 103.531C19.2185 104.126 20.4854 104.416 21.7364 104.416C23.8616 104.416 25.9388 103.578 27.5464 101.97L39.5025 90.0122C41.5635 91.7085 44.192 92.707 46.9997 92.707C49.6475 92.707 52.1496 91.8495 54.2354 90.2269C54.3245 90.1577 54.4092 90.0835 54.496 90.0116L66.4548 101.97C68.0613 103.578 70.1378 104.417 72.2629 104.417C73.5138 104.417 74.7817 104.126 75.9801 103.531C79.2146 101.924 80.9859 98.5745 80.4929 94.9984L80.0986 92.1213L82.9727 92.5178C85.8949 92.919 88.6265 91.8598 90.4682 89.6112C92.3119 87.36 92.8798 84.3016 91.9498 81.6298C91.6733 80.8341 90.8035 80.4136 90.0074 80.6901ZM25.3883 99.8124C23.4329 101.768 21.0014 101.604 19.3778 100.797C17.7538 99.9908 16.1524 98.1528 16.5284 95.4132L17.2 90.5425C17.2321 90.309 17.2098 90.0713 17.1348 89.848C17.0597 89.6246 16.934 89.4216 16.7674 89.255C16.6009 89.0883 16.3979 88.9625 16.1745 88.8874C15.9511 88.8124 15.7134 88.7901 15.4799 88.8224L10.61 89.4938C7.86924 89.8698 6.03161 88.2688 5.22491 86.6446C4.41861 85.0212 4.25421 82.5895 6.20964 80.6339L12.3738 74.47C14.1522 75.2811 16.1044 75.6375 18.0547 75.507C17.7538 79.9275 19.9798 84.2469 23.9277 86.5254C25.7178 87.5596 27.7483 88.1052 29.8157 88.1073C32.1634 88.1073 34.4714 87.3917 36.4041 86.0996C36.6931 86.6886 37.0312 87.2523 37.4146 87.7848L25.3883 99.8124Z" fill="url(#paint0_linear_0_1)"/>
<path d="M46.9997 79.8342C65.3458 79.8342 80.2712 64.9086 80.2712 46.5627C80.2712 28.2166 65.3458 13.291 46.9997 13.291C28.6536 13.291 13.7282 28.2166 13.7282 46.5627C13.7282 64.9086 28.6536 79.8342 46.9997 79.8342ZM46.9997 16.3429C63.6628 16.3429 77.2193 29.8994 77.2193 46.5627C77.2193 63.2258 63.6628 76.7824 46.9997 76.7824C30.3366 76.7824 16.7801 63.2258 16.7801 46.5627C16.7801 29.8994 30.3366 16.3429 46.9997 16.3429Z" fill="url(#paint1_linear_0_1)"/>
<path d="M35.7198 32.1219V43.5663C35.7198 46.0906 37.7735 48.1441 40.2976 48.1441C42.8217 48.1441 44.8754 46.0906 44.8754 43.5663V27.5797C44.8754 25.0554 42.8217 23.002 40.2976 23.002H36.2921C33.768 23.002 31.7144 25.0554 31.7144 27.5797C31.7144 29.9099 33.4647 31.8393 35.7198 32.1219ZM36.2921 26.0536H40.2976C41.1391 26.0536 41.8235 26.738 41.8235 27.5795V43.5661C41.8235 44.4076 41.1391 45.0921 40.2976 45.0921C39.4561 45.0921 38.7717 44.4076 38.7717 43.5661V30.6314C38.7717 30.2267 38.6109 29.8386 38.3247 29.5524C38.0386 29.2662 37.6504 29.1055 37.2457 29.1055H36.2921C35.4506 29.1055 34.7662 28.421 34.7662 27.5795C34.7662 26.738 35.4508 26.0536 36.2921 26.0536Z" fill="url(#paint2_linear_0_1)"/>
<path d="M52.8615 32.1219V43.5663C52.8615 46.0906 54.9152 48.1441 57.4393 48.1441C59.9634 48.1441 62.0171 46.0906 62.0171 43.5663V27.5797C62.0171 25.0554 59.9634 23.002 57.4393 23.002H53.4339C50.9098 23.002 48.8561 25.0554 48.8561 27.5797C48.8561 29.9099 50.6064 31.8393 52.8615 32.1219ZM53.4339 26.0536H57.4393C58.2808 26.0536 58.9652 26.738 58.9652 27.5795V43.5661C58.9652 44.4076 58.2808 45.0921 57.4393 45.0921C56.5978 45.0921 55.9134 44.4076 55.9134 43.5661V30.6314C55.9134 30.2267 55.7526 29.8386 55.4665 29.5524C55.1803 29.2662 54.7922 29.1055 54.3875 29.1055H53.4339C52.5924 29.1055 51.9079 28.421 51.9079 27.5795C51.9079 26.738 52.5926 26.0536 53.4339 26.0536Z" fill="url(#paint3_linear_0_1)"/>
<path d="M26.4292 65.8872C26.5896 65.9429 26.7581 65.9713 26.9279 65.9714C27.2453 65.9713 27.5547 65.8723 27.8132 65.6881C28.0717 65.5039 28.2663 65.2437 28.37 64.9438L32.8533 51.9762C32.9856 51.5938 32.9605 51.1744 32.7836 50.8105C32.6066 50.4465 32.2924 50.1677 31.9099 50.0355C31.7205 49.9699 31.5201 49.9423 31.32 49.9543C31.12 49.9663 30.9243 50.0175 30.744 50.1052C30.5638 50.1928 30.4026 50.3151 30.2696 50.465C30.1367 50.615 30.0346 50.7897 29.9691 50.9791L28.1897 56.1259L26.3614 50.9677C26.2945 50.7788 26.191 50.605 26.0569 50.4561C25.9227 50.3072 25.7606 50.1862 25.5797 50.1C25.3988 50.0138 25.2027 49.9641 25.0026 49.9537C24.8024 49.9433 24.6022 49.9724 24.4134 50.0393C24.2245 50.1063 24.0506 50.2098 23.9018 50.3439C23.7529 50.4781 23.6319 50.6402 23.5457 50.8211C23.4595 51.002 23.4098 51.1981 23.3993 51.3982C23.3889 51.5983 23.418 51.7985 23.485 51.9874L26.5909 60.7503L25.486 63.9464C25.3537 64.3288 25.3788 64.7482 25.5557 65.1121C25.7326 65.4761 26.0468 65.7549 26.4292 65.8872ZM49.899 61.3047C50.772 61.3047 51.5966 61.096 52.3278 60.7275C52.4317 61.0793 52.6588 61.3818 52.9675 61.5798C53.2763 61.7778 53.646 61.8579 54.009 61.8055C54.372 61.7531 54.704 61.5717 54.9442 61.2946C55.1843 61.0174 55.3166 60.663 55.3168 60.2962V51.4773C55.317 51.1104 55.1848 50.7557 54.9447 50.4782C54.7045 50.2008 54.3724 50.0192 54.0092 49.9668C53.646 49.9144 53.2761 49.9947 52.9673 50.1929C52.6584 50.3911 52.4314 50.694 52.3278 51.046C51.5746 50.6659 50.7426 50.4682 49.899 50.4688C46.9114 50.4688 44.4811 52.8993 44.4811 55.8867C44.4811 58.874 46.9116 61.3047 49.899 61.3047ZM49.899 53.5209C51.2035 53.5209 52.265 54.5823 52.265 55.8869C52.265 57.1914 51.2035 58.2529 49.899 58.2529C48.5944 58.2529 47.533 57.1914 47.533 55.8869C47.533 54.5823 48.5944 53.5209 49.899 53.5209ZM38.5876 49.9514C35.6 49.9514 33.1697 52.3846 33.1697 55.3754C33.1697 55.3937 33.1858 55.8474 33.1858 55.8474C33.1978 59.0763 35.8279 61.6996 39.0594 61.6996C40.0492 61.6996 40.9519 61.4575 41.7424 60.98C41.9139 60.8764 42.0633 60.74 42.1821 60.5786C42.3009 60.4172 42.3867 60.234 42.4347 60.0394C42.4827 59.8449 42.4919 59.6428 42.4618 59.4447C42.4316 59.2465 42.3628 59.0563 42.2592 58.8848C42.0498 58.5385 41.7115 58.2895 41.3186 58.1925C40.9257 58.0956 40.5104 58.1586 40.164 58.3678C39.8567 58.5536 39.485 58.6476 39.0594 58.6476C38.1251 58.6476 37.2981 58.1896 36.7841 57.4883L42.4764 57.4993H42.4795C42.8842 57.4992 43.2722 57.3384 43.5584 57.0522C43.8445 56.7661 44.0053 56.378 44.0054 55.9733V55.3689C44.0054 52.3819 41.5749 49.9514 38.5876 49.9514ZM36.4151 54.436C36.7786 53.5939 37.6155 53.0033 38.5876 53.0033C39.5642 53.0033 40.4046 53.598 40.7652 54.4444L36.4151 54.436ZM63.3336 52.9677C63.1532 54.2236 63.6982 55.4321 64.7556 56.1219C64.8231 56.1658 64.8939 56.2043 64.9674 56.237C65.0178 56.2596 66.2201 56.7947 67.5726 57.2936C68.0988 57.4877 68.4548 57.7725 68.4194 57.9713C68.3812 58.1851 68.0286 58.5847 67.3511 58.5847C66.617 58.5847 65.9149 58.2936 65.4734 57.8061C65.1998 57.5132 64.822 57.3397 64.4216 57.3231C64.0212 57.3064 63.6303 57.4479 63.3333 57.717C63.0364 57.9862 62.8572 58.3613 62.8345 58.7614C62.8118 59.1615 62.9474 59.5545 63.212 59.8555C64.2378 60.9873 65.7464 61.6364 67.3513 61.6364C69.3875 61.6364 71.1004 60.3206 71.4241 58.5076C71.8009 56.398 70.1539 54.9927 68.6292 54.4301C67.653 54.07 66.7387 53.6798 66.3757 53.5219C66.3586 53.4967 66.3464 53.459 66.3548 53.401C66.3753 53.2582 66.5114 53.139 66.7281 53.0737C67.7027 52.7801 68.6516 53.5091 68.6935 53.542C69.0045 53.8009 69.4057 53.9257 69.8087 53.8888C70.2117 53.8519 70.5836 53.6564 70.8425 53.3454C71.1014 53.0343 71.2261 52.6332 71.1893 52.2302C71.1524 51.8271 70.9569 51.4553 70.6459 51.1964C69.8359 50.5156 67.9136 49.5288 65.8479 50.1516C64.4874 50.5616 63.5241 51.6405 63.3336 52.9677ZM60.3402 50.3341C60.2209 50.3952 60.0087 50.515 59.7434 50.7008C59.6088 50.4726 59.4169 50.2835 59.1869 50.1521C58.9568 50.0207 58.6965 49.9515 58.4315 49.9514C58.0268 49.9514 57.6387 50.1122 57.3525 50.3984C57.0664 50.6845 56.9056 51.0726 56.9056 51.4773V60.1737C56.9056 61.0164 57.5886 61.6996 58.4315 61.6996C59.2745 61.6996 59.9575 61.0164 59.9575 60.1737V55.0047C59.9666 54.9581 60.0592 54.5943 60.8494 53.7624C61.3237 53.2633 61.7267 53.0529 61.7308 53.0507C62.4797 52.6653 62.7761 51.7457 62.3916 50.9964C62.0069 50.247 61.0893 49.9504 60.3402 50.3341ZM43.1871 67.5211L44.8416 69.1756L43.1871 70.8302C42.9737 71.0436 42.8284 71.3155 42.7696 71.6115C42.7107 71.9075 42.7409 72.2143 42.8564 72.4931C42.9719 72.7719 43.1675 73.0102 43.4185 73.1779C43.6694 73.3456 43.9645 73.435 44.2663 73.435C44.4667 73.4353 44.6652 73.3959 44.8504 73.3192C45.0356 73.2425 45.2038 73.1299 45.3454 72.988L46.9999 71.3335L48.6544 72.988C48.9525 73.2859 49.3431 73.435 49.7336 73.435C50.124 73.435 50.5146 73.2861 50.8127 72.988C51.0988 72.7019 51.2596 72.3138 51.2596 71.9091C51.2596 71.5044 51.0988 71.1163 50.8127 70.8302L49.1582 69.1756L50.8127 67.5211C51.0968 67.2345 51.2557 66.8471 51.2548 66.4435C51.2539 66.04 51.0932 65.6532 50.8079 65.3679C50.5225 65.0826 50.1357 64.9219 49.7322 64.921C49.3287 64.9201 48.9412 65.0792 48.6546 65.3633L47.0001 67.0178L45.3456 65.3633C45.2039 65.2216 45.0357 65.1092 44.8505 65.0325C44.6654 64.9558 44.467 64.9163 44.2666 64.9163C44.0662 64.9163 43.8677 64.9558 43.6826 65.0325C43.4974 65.1092 43.3292 65.2216 43.1875 65.3633C43.0458 65.5049 42.9333 65.6731 42.8565 65.8582C42.7798 66.0433 42.7402 66.2417 42.7402 66.4421C42.7402 66.6425 42.7796 66.841 42.8563 67.0261C42.933 67.2112 43.0454 67.3795 43.1871 67.5211Z" fill="url(#paint4_linear_0_1)"/>
</g>
<defs>
<linearGradient id="paint0_linear_0_1" x1="9.5" y1="9.91699" x2="105" y2="116.417" gradientUnits="userSpaceOnUse">
<stop stop-color="#007BC4"/>
<stop offset="1" stop-color="#0B4C97"/>
</linearGradient>
<linearGradient id="paint1_linear_0_1" x1="19.9608" y1="19.3695" x2="79.8586" y2="94.6433" gradientUnits="userSpaceOnUse">
<stop stop-color="#007BC4"/>
<stop offset="1" stop-color="#0B4C97"/>
</linearGradient>
<linearGradient id="paint2_linear_0_1" x1="32.9471" y1="25.2986" x2="54.274" y2="39.3283" gradientUnits="userSpaceOnUse">
<stop stop-color="#007BC4"/>
<stop offset="1" stop-color="#0B4C97"/>
</linearGradient>
<linearGradient id="paint3_linear_0_1" x1="50.0888" y1="25.2986" x2="71.4157" y2="39.3283" gradientUnits="userSpaceOnUse">
<stop stop-color="#007BC4"/>
<stop offset="1" stop-color="#0B4C97"/>
</linearGradient>
<linearGradient id="paint4_linear_0_1" x1="27.9007" y1="52.0963" x2="42.5498" y2="89.7886" gradientUnits="userSpaceOnUse">
<stop stop-color="#007BC4"/>
<stop offset="1" stop-color="#0B4C97"/>
</linearGradient>
<clipPath id="clip0_0_1">
<rect width="1440" height="10519" fill="white" transform="translate(-133 -1964)"/>
</clipPath>
</defs>
</svg>
