<svg width="104" height="105" fill="none" xmlns="http://www.w3.org/2000/svg"><path fill="#303030" d="M0 0h104v105H0z"/><g clip-path="url(#a)"><path fill="#FEFEFE" d="M-398-1976h1440V8543H-398z"/><path d="M53.14 89.25a6.615 6.615 0 0 1-3.181-.81l-2.158-1.167a1.625 1.625 0 0 1 1.55-2.856l2.165 1.17c.767.419 1.729.523 2.574.276a2.536 2.536 0 0 0 1.55-1.19c.598-1.092.383-2.411-.169-3.055a1.625 1.625 0 0 1 .059-2.177c.503-.523 1.355-.725 1.995-.387l4.797 2.512c1.469.8 3.302.328 4.037-1.017.572-1.05.273-2.37-.189-3.036l-4.44-3.087a1.632 1.632 0 0 1-.454-2.19 1.619 1.619 0 0 1 2.16-.573l8.447 4.615a2.545 2.545 0 0 0 1.99.212 3.036 3.036 0 0 0 1.787-1.472c.78-1.424.367-2.99-.975-3.725l-5.389-3.504a1.625 1.625 0 0 1 1.61-2.817l10.981 5.45c1.394.757 3.052.208 3.841-1.228a2.964 2.964 0 0 0-1.202-3.95 1.627 1.627 0 0 1-.686-2.222 1.626 1.626 0 0 1 2.24-.63c2.944 1.605 4.088 5.433 2.502 8.358-1.664 3.036-5.255 4.16-8.193 2.555l-1.144-.566a6.175 6.175 0 0 1-.735 3.838 6.302 6.302 0 0 1-3.724 3.033 5.84 5.84 0 0 1-4.466-.478l-.422-.228a5.931 5.931 0 0 1-.696 3.202c-1.58 2.889-5.43 3.958-8.42 2.324l-1.554-.813a6.19 6.19 0 0 1-.738 2.613 5.774 5.774 0 0 1-3.487 2.753 6.601 6.601 0 0 1-1.862.266ZM19.527 59.774a1.6 1.6 0 0 1-.731-.175l-5.402-2.724a1.617 1.617 0 0 1-.718-2.18 1.612 1.612 0 0 1 2.18-.719l5.402 2.724a1.619 1.619 0 0 1-.731 3.074ZM32.5 38.605c-.107 0-.214-.011-.319-.033l-11.03-2.18a1.622 1.622 0 0 1-1.277-1.909c.175-.88 1.03-1.465 1.908-1.277l11.03 2.181a1.622 1.622 0 0 1-.312 3.218Z" fill="url(#b)"/><path d="M85.26 65.424c-.272 0-.54-.07-.78-.202l-10.65-5.827-14.517-9.01a1.627 1.627 0 0 1 .474-2.965 1.626 1.626 0 0 1 1.229.197l14.446 8.97 8.914 4.875c.56-1.947.517-3.38.514-3.396a1.625 1.625 0 0 1 .962-1.56l3.36-1.495a1.625 1.625 0 0 1 1.32 2.97l-2.431 1.082a17.054 17.054 0 0 1-1.349 5.382 1.625 1.625 0 0 1-1.492.979Z" fill="url(#c)"/><path d="M39.348 56.756c-2.285 0-4.489-.995-6.289-2.857a1.632 1.632 0 0 1-.383-1.615c.552-1.778 1.15-3.439 1.703-4.976.89-2.483 1.663-4.625 1.894-6.279a1.624 1.624 0 0 1 .702-1.124l1.667-1.138c3.76-2.587 10.056-6.922 13.478-8.333 2.048-.842 12.87 1.245 21.587 3.15.23.048.447.148.634.292.37.28.711.569 1.033.864l6.23-1.716a1.624 1.624 0 1 1 .865 3.133l-7.121 1.963a1.616 1.616 0 0 1-1.59-.425c-.35-.358-.72-.696-1.108-1.014-8.424-1.83-17.881-3.5-19.396-3.208-3 1.245-9.356 5.622-12.772 7.972l-1.115.76c-.354 1.814-1.092 3.868-1.93 6.205-.436 1.212-.9 2.502-1.349 3.867 1.46 1.177 2.863 1.307 3.822 1.196 1.433-.172 2.766-1.04 3.478-2.258.559-.962 1.313-2.877 1.83-4.658a1.625 1.625 0 0 1 1.348-1.157c.994-.133 4.95-.968 7.29-1.524a1.624 1.624 0 0 1 1.759 2.434 1.626 1.626 0 0 1-1.009.728c-1.777.423-4.806 1.083-6.568 1.41-.474 1.463-1.153 3.225-1.84 4.401a7.952 7.952 0 0 1-6.85 3.907Zm5.028 32.279a5.34 5.34 0 0 1-3.81-1.58l-1.059-1.069a5.35 5.35 0 0 1-1.553-3.802 5.314 5.314 0 0 1 1.582-3.793l2.142-2.106c2.028-2.009 5.587-1.992 7.595.042l1.053 1.056c2.087 2.113 2.07 5.522-.029 7.602l-2.142 2.106a5.36 5.36 0 0 1-3.78 1.544Zm1.082-10.65a2.112 2.112 0 0 0-1.495.61l-2.139 2.103a2.106 2.106 0 0 0-.617 1.492c0 .572.214 1.105.61 1.505l1.057 1.066a2.184 2.184 0 0 0 3 .006l2.138-2.102a2.125 2.125 0 0 0 .004-3l-1.05-1.053a2.092 2.092 0 0 0-1.508-.627Zm-23.556-8.83a5.338 5.338 0 0 1-3.813-1.583l-1.056-1.063a5.382 5.382 0 0 1 .03-7.599l2.141-2.106c2.028-2.005 5.58-1.995 7.592.036l1.056 1.066a5.33 5.33 0 0 1 1.55 3.806 5.342 5.342 0 0 1-1.585 3.79l-2.139 2.102a5.326 5.326 0 0 1-3.776 1.55Zm1.082-10.65a2.125 2.125 0 0 0-1.498.61l-2.139 2.103a2.13 2.13 0 0 0-.006 3l1.053 1.06a2.178 2.178 0 0 0 3 .012l2.141-2.106c.397-.39.614-.92.618-1.488a2.096 2.096 0 0 0-.608-1.502l-1.056-1.066a2.088 2.088 0 0 0-1.505-.624Z" fill="url(#d)"/><path d="M27.485 78.05a5.307 5.307 0 0 1-3.812-1.59l-1.056-1.062a5.32 5.32 0 0 1-1.557-3.793 5.33 5.33 0 0 1 1.59-3.8l4.254-4.22c2.03-2.016 5.576-2 7.595.032l1.056 1.069a5.316 5.316 0 0 1 1.55 3.8 5.321 5.321 0 0 1-1.589 3.792l-4.251 4.215a5.323 5.323 0 0 1-3.78 1.557Zm3.198-12.77a2.09 2.09 0 0 0-1.491.612l-4.255 4.221a2.113 2.113 0 0 0-.016 2.994l1.06 1.066a2.178 2.178 0 0 0 2.996.013l4.254-4.219a2.088 2.088 0 0 0 .624-1.498 2.078 2.078 0 0 0-.607-1.495l-1.057-1.07a2.122 2.122 0 0 0-1.508-.623Z" fill="url(#e)"/><path d="M35.932 83.542a5.33 5.33 0 0 1-3.816-1.59l-1.052-1.065a5.33 5.33 0 0 1-1.557-3.796 5.314 5.314 0 0 1 1.582-3.793l3.202-3.162c2.031-2.012 5.583-1.996 7.595.039l1.053 1.063c2.08 2.1 2.064 5.505-.03 7.592l-3.197 3.162a5.338 5.338 0 0 1-3.78 1.55Zm2.139-11.71a2.105 2.105 0 0 0-1.492.611l-3.202 3.163c-.4.396-.617.926-.62 1.495a2.08 2.08 0 0 0 .61 1.495l1.06 1.069a2.178 2.178 0 0 0 2.997.016l3.198-3.162a2.129 2.129 0 0 0 .01-3l-1.053-1.063a2.096 2.096 0 0 0-1.508-.624Zm53.842-8.242a1.625 1.625 0 0 1-1.53-1.088L79.89 32.533a1.625 1.625 0 0 1 .93-2.044l17.654-7.075a1.625 1.625 0 0 1 1.209 3.016L83.47 32.927l9.425 26.93L98.8 57.63a1.626 1.626 0 0 1 1.144 3.042l-7.462 2.811a1.538 1.538 0 0 1-.569.107Zm-80.639-.104a1.59 1.59 0 0 1-.516-.084L4.332 61.25a1.624 1.624 0 1 1 1.034-3.08l4.904 1.64 9.457-27.013-15.3-6.448a1.623 1.623 0 0 1-.554-2.685 1.624 1.624 0 0 1 1.814-.309l16.705 7.043a1.628 1.628 0 0 1 .904 2.035L12.805 62.4a1.622 1.622 0 0 1-1.53 1.085Z" fill="url(#f)"/></g><defs><linearGradient id="b" x1="19.692" y1="38.294" x2="64.696" y2="115.747" gradientUnits="userSpaceOnUse"><stop stop-color="#007BC4"/><stop offset="1" stop-color="#0B4C97"/></linearGradient><linearGradient id="c" x1="61.626" y1="49.025" x2="73.836" y2="77.047" gradientUnits="userSpaceOnUse"><stop stop-color="#007BC4"/><stop offset="1" stop-color="#0B4C97"/></linearGradient><linearGradient id="d" x1="21.864" y1="35.613" x2="72.535" y2="109.463" gradientUnits="userSpaceOnUse"><stop stop-color="#007BC4"/><stop offset="1" stop-color="#0B4C97"/></linearGradient><linearGradient id="e" x1="22.563" y1="63.541" x2="36.919" y2="81.672" gradientUnits="userSpaceOnUse"><stop stop-color="#007BC4"/><stop offset="1" stop-color="#0B4C97"/></linearGradient><linearGradient id="f" x1="12.363" y1="28.717" x2="56.461" y2="118.537" gradientUnits="userSpaceOnUse"><stop stop-color="#007BC4"/><stop offset="1" stop-color="#0B4C97"/></linearGradient><clipPath id="a"><path fill="#fff" transform="translate(-398 -1976)" d="M0 0h1440v10519H0z"/></clipPath></defs></svg>