<svg width="104" height="105" fill="none" xmlns="http://www.w3.org/2000/svg"><path d="M100.744 100.54h-3.963V53.99h.69a3.672 3.672 0 0 0 3.668-3.667 3.672 3.672 0 0 0-3.668-3.668H72.442V37.68a5.812 5.812 0 0 0-2.008-4.395L55.808 20.612a5.75 5.75 0 0 0-2.574-1.264v-7.56h9.563a2.648 2.648 0 0 0 2.645-2.645V4.47a2.648 2.648 0 0 0-2.645-2.645H52a1.234 1.234 0 0 0-1.234 1.234v16.289c-.928.199-1.82.61-2.574 1.264L33.566 33.286a5.81 5.81 0 0 0-2.009 4.395v8.974H6.53a3.672 3.672 0 0 0-3.668 3.668 3.672 3.672 0 0 0 3.668 3.668h.688v46.55H3.256a1.234 1.234 0 1 0 0 2.468h97.488a1.235 1.235 0 0 0 0-2.469ZM53.234 4.293h9.563c.097 0 .177.08.177.177v4.672a.178.178 0 0 1-.177.178h-9.563V4.293Zm41.08 96.247H72.442V53.99h21.87v46.55Zm3.157-51.417c.661 0 1.2.538 1.2 1.2 0 .661-.539 1.2-1.2 1.2H72.442v-2.4h25.03Zm-92.142 1.2a1.202 1.202 0 0 1 1.2-1.2h25.029v2.4H6.527a1.202 1.202 0 0 1-1.2-1.2Zm4.356 3.668h21.872v46.549H9.685V53.99Zm40.98 46.549h-6.799V79.505a3.301 3.301 0 0 1 3.297-3.298h3.502v24.333Zm9.469 0h-7.002V76.207h3.705a3.301 3.301 0 0 1 3.297 3.298v21.035Zm-3.297-26.801h-9.674a5.772 5.772 0 0 0-5.765 5.765v21.036h-7.37l-.002-62.86c0-.971.421-1.893 1.155-2.53l14.627-12.673a3.363 3.363 0 0 1 4.385 0L68.819 35.15a3.348 3.348 0 0 1 1.156 2.53l-.005 62.86h-7.368V79.505a5.772 5.772 0 0 0-5.765-5.766Z" fill="url(#a)"/><path d="M51.898 49.125c4.6 0 8.341-3.742 8.341-8.34 0-4.6-3.741-8.34-8.34-8.34-4.6 0-8.342 3.74-8.342 8.34 0 4.598 3.742 8.34 8.341 8.34Zm0-14.213a5.88 5.88 0 0 1 5.873 5.873 5.879 5.879 0 0 1-5.873 5.872 5.879 5.879 0 0 1-5.873-5.872 5.88 5.88 0 0 1 5.873-5.873Z" fill="url(#b)"/><path d="M51.45 42.85h2.535a1.234 1.234 0 1 0 0-2.467h-1.301v-2.579a1.234 1.234 0 1 0-2.468 0v3.813a1.234 1.234 0 0 0 1.234 1.234Zm-9.805 15.16h20.71a1.234 1.234 0 1 0 0-2.468h-20.71a1.234 1.234 0 0 0 0 2.468Zm21.944 7.414a1.234 1.234 0 0 0-1.234-1.234h-20.71a1.234 1.234 0 0 0 0 2.468h20.71a1.234 1.234 0 0 0 1.234-1.234Zm-40.772-2.852h-4.39a3.441 3.441 0 0 0-3.436 3.438v4.388a3.441 3.441 0 0 0 3.437 3.437h4.389a3.441 3.441 0 0 0 3.436-3.437V66.01a3.441 3.441 0 0 0-3.436-3.438Zm.969 7.826a.97.97 0 0 1-.97.97h-4.388a.97.97 0 0 1-.97-.97V66.01a.97.97 0 0 1 .97-.97h4.389a.97.97 0 0 1 .969.97v4.388Zm-.97 10.298h-4.388a3.44 3.44 0 0 0-3.437 3.437v4.39a3.441 3.441 0 0 0 3.437 3.437h4.389a3.441 3.441 0 0 0 3.436-3.438v-4.389a3.44 3.44 0 0 0-3.436-3.437Zm.97 7.826a.97.97 0 0 1-.97.97h-4.388a.97.97 0 0 1-.97-.97v-4.389a.97.97 0 0 1 .97-.969h4.389a.97.97 0 0 1 .969.969v4.39Zm57.397-14.687h4.39a3.44 3.44 0 0 0 3.436-3.437V66.01a3.441 3.441 0 0 0-3.437-3.438h-4.389a3.441 3.441 0 0 0-3.437 3.438v4.388a3.441 3.441 0 0 0 3.437 3.437Zm-.969-7.825a.97.97 0 0 1 .97-.97h4.388a.97.97 0 0 1 .97.97v4.388a.97.97 0 0 1-.97.97h-4.389a.97.97 0 0 1-.969-.97V66.01Zm.97 25.95h4.388a3.441 3.441 0 0 0 3.437-3.438v-4.389a3.44 3.44 0 0 0-3.437-3.437h-4.389a3.44 3.44 0 0 0-3.437 3.437v4.39a3.441 3.441 0 0 0 3.437 3.437Zm-.97-7.827a.97.97 0 0 1 .97-.969h4.388a.97.97 0 0 1 .97.969v4.39a.97.97 0 0 1-.97.969h-4.389a.97.97 0 0 1-.969-.97v-4.389Z" fill="url(#c)"/><defs><linearGradient id="a" x1="11.384" y1="11.068" x2="102.706" y2="124.441" gradientUnits="userSpaceOnUse"><stop stop-color="#007BC4"/><stop offset="1" stop-color="#0B4C97"/></linearGradient><linearGradient id="b" x1="45.12" y1="33.968" x2="60.134" y2="52.838" gradientUnits="userSpaceOnUse"><stop stop-color="#007BC4"/><stop offset="1" stop-color="#0B4C97"/></linearGradient><linearGradient id="c" x1="21.924" y1="41.63" x2="66.908" y2="117.174" gradientUnits="userSpaceOnUse"><stop stop-color="#007BC4"/><stop offset="1" stop-color="#0B4C97"/></linearGradient></defs></svg>