<svg width="49" height="50" viewBox="0 0 49 50" fill="none" xmlns="http://www.w3.org/2000/svg">
<g id="Facebook">
<path id="Vector" fill-rule="evenodd" clip-rule="evenodd" d="M4.08301 12.5006C4.08301 10.2904 4.94342 8.17065 6.47497 6.60777C8.00652 5.04489 10.0837 4.16687 12.2497 4.16687H36.7497C38.9156 4.16687 40.9928 5.04489 42.5244 6.60777C44.0559 8.17065 44.9163 10.2904 44.9163 12.5006V37.5019C44.9163 39.7121 44.0559 41.8318 42.5244 43.3947C40.9928 44.9576 38.9156 45.8356 36.7497 45.8356H12.2497C10.0837 45.8356 8.00652 44.9576 6.47497 43.3947C4.94342 41.8318 4.08301 39.7121 4.08301 37.5019V12.5006ZM12.2497 8.33374C11.1667 8.33374 10.1281 8.77275 9.36232 9.55419C8.59655 10.3356 8.16634 11.3955 8.16634 12.5006V37.5019C8.16634 38.607 8.59655 39.6668 9.36232 40.4483C10.1281 41.2297 11.1667 41.6687 12.2497 41.6687H24.4997V27.0847H22.458C21.9165 27.0847 21.3972 26.8652 21.0143 26.4744C20.6314 26.0837 20.4163 25.5538 20.4163 25.0012C20.4163 24.4487 20.6314 23.9187 21.0143 23.528C21.3972 23.1373 21.9165 22.9178 22.458 22.9178H24.4997V19.7926C24.4997 17.8587 25.2525 16.0039 26.5926 14.6364C27.9327 13.2689 29.7503 12.5006 31.6455 12.5006H32.8705C33.412 12.5006 33.9313 12.7201 34.3142 13.1108C34.6971 13.5016 34.9122 14.0315 34.9122 14.5841C34.9122 15.1366 34.6971 15.6665 34.3142 16.0573C33.9313 16.448 33.412 16.6675 32.8705 16.6675H31.6455C31.2433 16.6675 30.8451 16.7483 30.4735 16.9054C30.102 17.0624 29.7644 17.2926 29.48 17.5828C29.1956 17.873 28.97 18.2175 28.8161 18.5967C28.6622 18.9759 28.583 19.3822 28.583 19.7926V22.9178H32.8705C33.412 22.9178 33.9313 23.1373 34.3142 23.528C34.6971 23.9187 34.9122 24.4487 34.9122 25.0012C34.9122 25.5538 34.6971 26.0837 34.3142 26.4744C33.9313 26.8652 33.412 27.0847 32.8705 27.0847H28.583V41.6687H36.7497C37.8326 41.6687 38.8713 41.2297 39.637 40.4483C40.4028 39.6668 40.833 38.607 40.833 37.5019V12.5006C40.833 11.3955 40.4028 10.3356 39.637 9.55419C38.8713 8.77275 37.8326 8.33374 36.7497 8.33374H12.2497Z" fill="white"/>
</g>
</svg>
