<svg width="49" height="50" viewBox="0 0 49 50" fill="none" xmlns="http://www.w3.org/2000/svg">
<g id="Instagram">
<path id="Vector" fill-rule="evenodd" clip-rule="evenodd" d="M4.08301 12.5006C4.08301 10.2904 4.94342 8.17065 6.47497 6.60777C8.00652 5.04489 10.0837 4.16687 12.2497 4.16687H36.7497C38.9156 4.16687 40.9928 5.04489 42.5244 6.60777C44.0559 8.17065 44.9163 10.2904 44.9163 12.5006V37.5019C44.9163 39.7121 44.0559 41.8318 42.5244 43.3947C40.9928 44.9576 38.9156 45.8356 36.7497 45.8356H12.2497C10.0837 45.8356 8.00652 44.9576 6.47497 43.3947C4.94342 41.8318 4.08301 39.7121 4.08301 37.5019V12.5006ZM12.2497 8.33374C11.1667 8.33374 10.1281 8.77275 9.36232 9.55419C8.59655 10.3356 8.16634 11.3955 8.16634 12.5006V37.5019C8.16634 38.607 8.59655 39.6668 9.36232 40.4483C10.1281 41.2297 11.1667 41.6687 12.2497 41.6687H36.7497C37.8326 41.6687 38.8713 41.2297 39.637 40.4483C40.4028 39.6668 40.833 38.607 40.833 37.5019V12.5006C40.833 11.3955 40.4028 10.3356 39.637 9.55419C38.8713 8.77275 37.8326 8.33374 36.7497 8.33374H12.2497ZM24.4997 18.7509C22.8752 18.7509 21.3173 19.4094 20.1686 20.5816C19.02 21.7538 18.3747 23.3435 18.3747 25.0012C18.3747 26.6589 19.02 28.2487 20.1686 29.4209C21.3173 30.593 22.8752 31.2515 24.4997 31.2515C26.1241 31.2515 27.682 30.593 28.8307 29.4209C29.9794 28.2487 30.6247 26.6589 30.6247 25.0012C30.6247 23.3435 29.9794 21.7538 28.8307 20.5816C27.682 19.4094 26.1241 18.7509 24.4997 18.7509ZM14.2913 25.0012C14.2913 22.2384 15.3669 19.5888 17.2813 17.6352C19.1957 15.6816 21.7923 14.5841 24.4997 14.5841C27.2071 14.5841 29.8036 15.6816 31.7181 17.6352C33.6325 19.5888 34.708 22.2384 34.708 25.0012C34.708 27.764 33.6325 30.4137 31.7181 32.3673C29.8036 34.3209 27.2071 35.4184 24.4997 35.4184C21.7923 35.4184 19.1957 34.3209 17.2813 32.3673C15.3669 30.4137 14.2913 27.764 14.2913 25.0012ZM35.7288 16.6675C36.5411 16.6675 37.32 16.3382 37.8944 15.7522C38.4687 15.1661 38.7913 14.3712 38.7913 13.5423C38.7913 12.7135 38.4687 11.9186 37.8944 11.3325C37.32 10.7464 36.5411 10.4172 35.7288 10.4172C34.9166 10.4172 34.1377 10.7464 33.5633 11.3325C32.989 11.9186 32.6663 12.7135 32.6663 13.5423C32.6663 14.3712 32.989 15.1661 33.5633 15.7522C34.1377 16.3382 34.9166 16.6675 35.7288 16.6675Z" fill="white"/>
</g>
</svg>
