<svg width="49" height="50" viewBox="0 0 49 50" fill="none" xmlns="http://www.w3.org/2000/svg">
<g id="Linkedin">
<path id="Vector" fill-rule="evenodd" clip-rule="evenodd" d="M12.2497 4.16687C10.0837 4.16687 8.00652 5.04489 6.47497 6.60777C4.94342 8.17065 4.08301 10.2904 4.08301 12.5006V37.5019C4.08301 39.7121 4.94342 41.8318 6.47497 43.3947C8.00652 44.9576 10.0837 45.8356 12.2497 45.8356H36.7497C38.9156 45.8356 40.9928 44.9576 42.5244 43.3947C44.0559 41.8318 44.9163 39.7121 44.9163 37.5019V12.5006C44.9163 10.2904 44.0559 8.17065 42.5244 6.60777C40.9928 5.04489 38.9156 4.16687 36.7497 4.16687H12.2497ZM8.16634 12.5006C8.16634 11.3955 8.59655 10.3356 9.36232 9.55419C10.1281 8.77275 11.1667 8.33374 12.2497 8.33374H36.7497C37.8326 8.33374 38.8713 8.77275 39.637 9.55419C40.4028 10.3356 40.833 11.3955 40.833 12.5006V37.5019C40.833 38.607 40.4028 39.6668 39.637 40.4483C38.8713 41.2297 37.8326 41.6687 36.7497 41.6687H12.2497C11.1667 41.6687 10.1281 41.2297 9.36232 40.4483C8.59655 39.6668 8.16634 38.607 8.16634 37.5019V12.5006ZM18.3747 22.9178C18.3747 22.3652 18.1596 21.8353 17.7767 21.4446C17.3938 21.0539 16.8745 20.8344 16.333 20.8344C15.7915 20.8344 15.2722 21.0539 14.8893 21.4446C14.5064 21.8353 14.2913 22.3652 14.2913 22.9178V35.4184C14.2913 35.971 14.5064 36.5009 14.8893 36.8916C15.2722 37.2824 15.7915 37.5019 16.333 37.5019C16.8745 37.5019 17.3938 37.2824 17.7767 36.8916C18.1596 36.5009 18.3747 35.971 18.3747 35.4184V22.9178ZM19.3955 15.6258C19.3955 16.4546 19.0729 17.2495 18.4985 17.8356C17.9242 18.4217 17.1452 18.7509 16.333 18.7509C15.5208 18.7509 14.7418 18.4217 14.1675 17.8356C13.5932 17.2495 13.2705 16.4546 13.2705 15.6258C13.2705 14.7969 13.5932 14.002 14.1675 13.416C14.7418 12.8299 15.5208 12.5006 16.333 12.5006C17.1452 12.5006 17.9242 12.8299 18.4985 13.416C19.0729 14.002 19.3955 14.7969 19.3955 15.6258ZM24.4997 20.8344C25.1938 20.8344 25.8063 21.1885 26.1738 21.7261C27.2261 21.1408 28.4054 20.8343 29.6038 20.8344C34.0138 20.8344 36.7497 24.8471 36.7497 28.2743V35.4184C36.7497 35.971 36.5346 36.5009 36.1517 36.8916C35.7688 37.2824 35.2495 37.5019 34.708 37.5019C34.1665 37.5019 33.6472 37.2824 33.2643 36.8916C32.8814 36.5009 32.6663 35.971 32.6663 35.4184V28.2722C32.6663 26.6721 31.3188 24.9992 29.6038 24.9992C28.534 24.9992 27.3519 25.5929 26.5413 27.0055V35.4184C26.5413 35.971 26.3262 36.5009 25.9434 36.8916C25.5605 37.2824 25.0412 37.5019 24.4997 37.5019C23.9582 37.5019 23.4389 37.2824 23.056 36.8916C22.6731 36.5009 22.458 35.971 22.458 35.4184V22.9178C22.458 22.3652 22.6731 21.8353 23.056 21.4446C23.4389 21.0539 23.9582 20.8344 24.4997 20.8344Z" fill="white"/>
</g>
</svg>
