<svg width="49" height="50" viewBox="0 0 49 50" fill="none" xmlns="http://www.w3.org/2000/svg">
<g id="Twitter">
<path id="Vector" fill-rule="evenodd" clip-rule="evenodd" d="M30.3163 11.788C29.3836 11.7876 28.4624 11.9986 27.6193 12.4056C26.7761 12.8126 26.0321 13.4056 25.4408 14.1417C24.8495 14.8779 24.4258 15.7388 24.2002 16.6623C23.9746 17.5858 23.9527 18.549 24.1362 19.4822C24.1993 19.8055 24.1864 20.1395 24.0984 20.4568C24.0105 20.774 23.85 21.0655 23.6301 21.3071C23.4103 21.5487 23.1374 21.7336 22.8339 21.8467C22.5304 21.9597 22.2049 21.9976 21.8842 21.9573C17.4941 21.407 13.3556 19.5654 9.97313 16.657C10.0364 17.9113 10.4631 19.2447 11.388 20.6406L12.7743 22.7323L10.4978 23.722L10.0589 23.9136C10.3855 24.2949 10.7775 24.6845 11.2165 25.07C11.8033 25.5825 12.4241 26.0531 13.0744 26.4784L13.0969 26.4929H13.0989L16.2594 28.4493L12.9519 30.1369C12.7886 30.2202 12.6253 30.2952 12.4619 30.3619C13.1731 30.9649 13.9566 31.4732 14.7935 31.8745L17.6314 33.2433L15.2549 35.335C13.9585 36.4768 12.6538 37.3289 10.9613 37.7789C13.5571 39.1899 16.4543 39.9249 19.3954 39.9186C29.2077 39.9186 37.1089 31.9286 37.1089 22.1386V21.0552L37.9766 20.4322C39.3323 19.4613 40.2898 18.1488 40.9758 16.6466H36.5658L36.0105 15.4591C35.4991 14.3604 34.6929 13.4323 33.6853 12.7825C32.6778 12.1327 31.5102 11.7879 30.3183 11.788H30.3163ZM7.2863 26.9971C7.09364 27.2223 6.95071 27.4871 6.86722 27.7736C6.78373 28.0601 6.76163 28.3616 6.80242 28.6576C7.03313 30.3265 8.01109 31.764 9.09317 32.862C9.38717 33.1599 9.70159 33.4454 10.0323 33.7183L9.87921 33.76C8.89717 34.01 7.57213 34.0621 5.36509 33.8433C4.9483 33.8016 4.52902 33.8916 4.16409 34.1013C3.79916 34.3109 3.50623 34.63 3.32503 35.0153C3.14383 35.4006 3.08312 35.8334 3.15113 36.2551C3.21913 36.6768 3.41257 37.0669 3.70521 37.3726C5.74846 39.5038 8.18931 41.1958 10.8838 42.3488C13.5782 43.5017 16.4717 44.0922 19.3934 44.0855C31.0574 44.0855 40.6247 34.8434 41.1657 23.1803C43.7995 20.9239 45.1163 17.8675 45.8268 15.0903C45.9058 14.782 45.9145 14.4594 45.8522 14.1472C45.7898 13.835 45.6582 13.5416 45.4673 13.2895C45.2764 13.0373 45.0314 12.8332 44.7511 12.6929C44.4708 12.5525 44.1627 12.4796 43.8505 12.4797H39.0465C37.8714 10.6178 36.1541 9.17842 34.136 8.36378C32.1179 7.54914 29.9004 7.40022 27.7951 7.93795C25.6898 8.47567 23.8026 9.67302 22.3985 11.3617C20.9944 13.0504 20.1441 15.1456 19.9671 17.3529C16.2036 16.3532 12.8362 14.1878 10.3284 11.1547C10.1063 10.8867 9.82145 10.6803 9.50032 10.5547C9.17918 10.4291 8.83216 10.3883 8.49144 10.4361C8.15072 10.4839 7.82736 10.6187 7.55136 10.8281C7.27536 11.0375 7.05567 11.3147 6.91267 11.6339C5.67542 14.3882 5.43859 17.5633 6.81876 20.7927L6.34101 21.001C5.88382 21.1998 5.51339 21.5619 5.29915 22.0195C5.08491 22.4771 5.04157 22.9987 5.17726 23.4865C5.55701 24.8449 6.41042 26.045 7.28426 26.9971H7.2863Z" fill="white"/>
</g>
</svg>
