<svg width="50" height="50" viewBox="0 0 50 50" fill="none" xmlns="http://www.w3.org/2000/svg">
<g id="YouTube">
<path id="Vector" fill-rule="evenodd" clip-rule="evenodd" d="M16.3439 9.9484C21.7439 9.18378 28.2564 9.18378 33.6564 9.9484C38.5626 10.6443 42.3647 14.0861 43.0897 17.7946C43.971 22.2844 43.971 27.718 43.0897 32.2078C42.3626 35.9163 38.5626 39.3582 33.6564 40.054C28.2564 40.8186 21.7418 40.8186 16.3439 40.054C11.4376 39.3582 7.63763 35.9163 6.91055 32.2078C6.0293 27.718 6.0293 22.2844 6.91055 17.7946C7.63763 14.0861 11.4376 10.6443 16.3439 9.9484ZM34.2397 5.8232C28.4543 5.00441 21.546 5.00441 15.7605 5.8232C9.4793 6.71282 3.95846 11.1943 2.82305 16.9946C1.83763 22.0136 1.83763 27.9889 2.82305 33.0078C3.95846 38.8081 9.4793 43.2896 15.7605 44.1792C21.546 44.998 28.4543 44.998 34.2397 44.1792C40.521 43.2896 46.0418 38.8081 47.1772 33.0078C48.1626 27.9889 48.1626 22.0136 47.1772 16.9946C46.0418 11.1943 40.521 6.71282 34.2397 5.8232ZM21.9897 14.9341C21.676 14.7247 21.3113 14.6045 20.9345 14.5862C20.5578 14.5679 20.1832 14.6522 19.8506 14.8301C19.5181 15.0081 19.24 15.273 19.0462 15.5966C18.8524 15.9202 18.7501 16.2903 18.7501 16.6675V33.3349C18.7501 33.7121 18.8524 34.0823 19.0462 34.4059C19.24 34.7294 19.5181 34.9943 19.8506 35.1723C20.1832 35.3502 20.5578 35.4345 20.9345 35.4162C21.3113 35.3979 21.676 35.2777 21.9897 35.0684L34.4897 26.7346C34.775 26.5444 35.009 26.2866 35.1708 25.9842C35.3326 25.6818 35.4173 25.3442 35.4173 25.0012C35.4173 24.6583 35.3326 24.3206 35.1708 24.0182C35.009 23.7158 34.775 23.4581 34.4897 23.2678L21.9897 14.9341ZM29.5772 25.0012L22.9168 29.4431V20.5614L29.5772 25.0012Z" fill="white"/>
</g>
</svg>
