# Blender v3.6.2 OBJ File: 'untitled.blend'
# www.blender.org
mtllib untitled3.mtl
o Cube
v 1.000000 1.000000 -1.000000
v 1.000000 -1.000000 -1.000000
v 1.000000 1.000000 1.000000
v 1.000000 -1.000000 1.000000
v -1.000000 1.000000 -1.000000
v -1.000000 -1.000000 -1.000000
v -1.000000 1.000000 1.000000
v -1.000000 -1.000000 1.000000
vt 0.625000 0.500000
vt 0.875000 0.500000
vt 0.875000 0.750000
vt 0.625000 0.750000
vt 0.375000 0.750000
vt 0.625000 1.000000
vt 0.375000 1.000000
vt 0.375000 0.000000
vt 0.625000 0.000000
vt 0.625000 0.250000
vt 0.375000 0.250000
vt 0.125000 0.500000
vt 0.375000 0.500000
vt 0.125000 0.750000
vn 0.0000 1.0000 0.0000
vn 0.0000 0.0000 1.0000
vn -1.0000 0.0000 0.0000
vn 0.0000 -1.0000 0.0000
vn 1.0000 0.0000 0.0000
vn 0.0000 0.0000 -1.0000
usemtl Material
s off
f 1/1/1 5/2/1 7/3/1 3/4/1
f 4/5/2 3/4/2 7/6/2 8/7/2
f 8/8/3 7/9/3 5/10/3 6/11/3
f 6/12/4 2/13/4 4/5/4 8/14/4
f 2/13/5 1/1/5 3/4/5 4/5/5
f 6/11/6 5/10/6 1/1/6 2/13/6
o Flag_Plane
v 0.000000 3.548657 -0.047689
v -0.000000 3.548657 -2.047689
v 0.000000 4.807397 -0.047689
v -0.000000 4.807397 -2.047689
vt 0.000000 0.000000
vt 1.000000 0.000000
vt 1.000000 1.000000
vt 0.000000 1.000000
vn 1.0000 0.0000 -0.0000
usemtl Material.001
s off
f 9/15/7 10/16/7 12/17/7
f 9/15/7 12/17/7 11/18/7
o Pole_Mesh
v -0.093834 -0.266144 0.093834
v -0.093834 -0.266144 0.093834
v -0.093834 -0.266144 0.093834
v -0.032397 4.853611 0.032397
v -0.032397 4.853611 0.032397
v -0.032397 4.853611 0.032397
v -0.093834 -0.266144 -0.093834
v -0.093834 -0.266144 -0.093834
v -0.032397 4.853611 -0.032397
v -0.032397 4.853611 -0.032397
v 0.093834 -0.266144 0.093834
v 0.032397 4.853611 0.032397
v 0.093834 -0.266144 -0.093834
v 0.032397 4.853611 -0.032397
v -0.045519 4.694538 0.045519
v -0.045519 4.694538 0.045519
v -0.045519 4.694538 -0.045519
v -0.045519 4.694538 -0.045519
v 0.045519 4.694538 -0.045519
v 0.045519 4.694538 -0.045519
v 0.045519 4.694538 0.045519
v 0.045519 4.694538 0.045519
v -0.060514 3.765266 -0.060514
v -0.060514 3.765266 -0.060514
v 0.060514 3.765266 -0.060514
v 0.060514 3.765265 0.060514
v 0.060514 3.765265 0.060514
v -0.060514 3.765266 0.060514
v -0.060514 3.765266 0.060514
v -0.121589 -0.019616 -0.121589
v 0.121589 -0.019616 -0.121589
v 0.121589 -0.019616 -0.121589
v 0.121589 -0.019616 0.121589
v 0.121589 -0.019616 0.121589
v -0.121589 -0.019616 0.121589
v -0.121589 -0.019616 0.121589
v -0.106443 0.918996 0.106443
v -0.106443 0.918996 0.106443
v -0.106443 0.918996 -0.106443
v -0.106443 0.918996 -0.106443
v 0.106443 0.918996 -0.106443
v 0.106443 0.918996 0.106443
v 0.106443 0.918996 0.106443
v -0.114676 -0.284691 0.000000
v -0.114676 -0.284691 0.000000
v -0.042019 4.799647 0.042019
v -0.042019 4.799647 0.042019
v -0.039346 4.863549 0.000000
v -0.039346 4.863549 0.000000
v -0.118600 -0.171722 -0.118600
v 0.000000 -0.284691 -0.114676
v 0.000000 -0.284691 -0.114676
v -0.000000 4.863549 -0.039346
v -0.000000 4.863549 -0.039346
v 0.118600 -0.171722 -0.118600
v 0.114676 -0.284691 -0.000000
v 0.039346 4.863549 -0.000000
v 0.118600 -0.171722 0.118600
v -0.000000 -0.284691 0.114676
v -0.000000 -0.284691 0.114676
v 0.000000 4.863549 0.039346
v 0.000000 4.863549 0.039346
v -0.049049 4.475811 0.049049
v -0.049049 4.475811 0.049049
v -0.042019 4.799647 -0.042019
v 0.042019 4.799647 -0.042019
v 0.042019 4.799647 0.042019
v 0.000000 4.694538 0.062589
v 0.062589 4.694538 0.000000
v 0.062589 4.694538 0.000000
v 0.000000 4.694538 -0.062589
v -0.062589 4.694538 0.000000
v -0.049049 4.475811 -0.049049
v -0.049049 4.475811 -0.049049
v 0.049049 4.475811 -0.049049
v 0.049049 4.475811 0.049049
v 0.049049 4.475811 0.049049
v -0.083504 2.340551 0.083504
v -0.083504 2.340551 0.083504
v -0.083207 3.765266 -0.000000
v 0.000000 3.765266 -0.083207
v 0.083207 3.765266 0.000000
v 0.000000 3.765266 0.083207
v -0.117825 0.213603 -0.117825
v -0.117825 0.213603 -0.117825
v 0.117825 0.213603 -0.117825
v 0.117825 0.213603 0.117825
v 0.117825 0.213603 0.117825
v -0.118600 -0.171722 0.118600
v -0.118600 -0.171722 0.118600
v 0.000000 -0.019616 0.167185
v 0.167185 -0.019616 0.000000
v 0.167185 -0.019616 0.000000
v 0.000000 -0.019616 -0.167185
v -0.167185 -0.019616 -0.000000
v -0.117825 0.213603 0.117825
v -0.117825 0.213603 0.117825
v -0.083504 2.340551 -0.083504
v -0.083504 2.340551 -0.083504
v 0.083504 2.340551 -0.083504
v 0.083504 2.340551 0.083504
v 0.083504 2.340551 0.083504
v -0.000000 0.918996 0.146359
v 0.146359 0.918996 0.000000
v 0.000000 0.918996 -0.146359
v -0.146359 0.918996 0.000000
v -0.057788 4.800627 -0.000000
v 0.000000 4.800627 -0.057788
v 0.057788 4.800627 0.000000
v -0.000000 4.800627 0.057788
v 0.000000 -0.323612 -0.000000
v -0.000000 4.884402 -0.000000
v -0.000000 4.475811 0.067442
v 0.067442 4.475811 0.000000
v 0.000000 4.475811 -0.067442
v -0.067442 4.475811 -0.000000
v -0.114818 2.340551 0.000000
v -0.000000 2.340551 -0.114818
v 0.114818 2.340551 -0.000000
v 0.000000 2.340551 0.114818
v -0.000000 -0.173551 0.163262
v 0.163262 -0.173551 0.000000
v 0.000000 -0.173551 -0.163262
v -0.163262 -0.173551 -0.000000
v 0.000000 0.213603 0.162010
v 0.162010 0.213603 0.000000
v 0.000000 0.213603 -0.162010
v -0.162010 0.213603 0.000000
vt 0.616362 0.000000
vt 0.620681 0.000000
vt 0.620567 0.125000
vt 0.615357 0.125000
vt 0.625000 0.000000
vt 0.625000 0.125000
vt 0.625000 0.250000
vt 0.620544 0.250000
vt 0.615265 0.250000
vt 0.620544 0.375000
vt 0.615265 0.375000
vt 0.625000 0.375000
vt 0.625000 0.500000
vt 0.621382 0.500000
vt 0.615265 0.500000
vt 0.623896 0.625000
vt 0.615265 0.625000
vt 0.658522 0.625000
vt 0.625000 0.750000
vt 0.621382 0.750000
vt 0.615265 0.750000
vt 0.620567 0.875000
vt 0.615357 0.875000
vt 0.625000 0.875000
vt 0.625000 1.000000
vt 0.620681 1.000000
vt 0.616362 1.000000
vt 0.125000 0.500000
vt 0.250000 0.500000
vt 0.246752 0.625000
vt 0.125000 0.625000
vt 0.375000 0.500000
vt 0.342517 0.625000
vt 0.375000 0.750000
vt 0.250000 0.750000
vt 0.125000 0.750000
vt 0.750000 0.500000
vt 0.753352 0.625000
vt 0.875000 0.500000
vt 0.875000 0.625000
vt 0.875000 0.750000
vt 0.750000 0.750000
vt 0.571012 0.750000
vt 0.604849 0.750000
vt 0.605500 0.875000
vt 0.573523 0.875000
vt 0.608753 1.000000
vt 0.601143 1.000000
vt 0.571012 0.500000
vt 0.604849 0.500000
vt 0.604849 0.625000
vt 0.571012 0.625000
vt 0.615265 0.500000
vt 0.615265 0.625000
vt 0.615265 0.750000
vt 0.604849 0.750000
vt 0.571012 0.750000
vt 0.571012 0.250000
vt 0.604849 0.250000
vt 0.604849 0.375000
vt 0.571012 0.375000
vt 0.615265 0.250000
vt 0.601143 0.000000
vt 0.608753 0.000000
vt 0.605500 0.125000
vt 0.573523 0.125000
vt 0.604849 0.250000
vt 0.571012 0.250000
vt 0.405137 0.000000
vt 0.503140 0.000000
vt 0.503161 0.125000
vt 0.432941 0.125000
vt 0.503165 0.250000
vt 0.435468 0.250000
vt 0.435468 0.250000
vt 0.503165 0.250000
vt 0.503165 0.375000
vt 0.435468 0.375000
vt 0.503165 0.500000
vt 0.435468 0.500000
vt 0.503165 0.625000
vt 0.435468 0.625000
vt 0.503165 0.750000
vt 0.435468 0.750000
vt 0.435468 0.750000
vt 0.503165 0.750000
vt 0.503161 0.875000
vt 0.432941 0.875000
vt 0.503140 1.000000
vt 0.405137 1.000000
vt 0.382205 0.750000
vt 0.383024 0.875000
vt 0.375000 0.875000
vt 0.390770 0.750000
vt 0.390800 0.875000
vt 0.391122 1.000000
vt 0.383061 1.000000
vt 0.375000 1.000000
vt 0.382205 0.500000
vt 0.379769 0.625000
vt 0.390770 0.500000
vt 0.390770 0.625000
vt 0.375000 0.250000
vt 0.383017 0.250000
vt 0.383017 0.375000
vt 0.375000 0.375000
vt 0.390770 0.250000
vt 0.390770 0.375000
vt 0.375000 0.000000
vt 0.383061 0.000000
vt 0.383024 0.125000
vt 0.375000 0.125000
vt 0.391122 0.000000
vt 0.390800 0.125000
vt 0.401877 0.750000
vt 0.401252 0.875000
vt 0.398129 1.000000
vt 0.390770 0.500000
vt 0.401877 0.500000
vt 0.401877 0.625000
vt 0.390770 0.625000
vt 0.401877 0.750000
vt 0.390770 0.750000
vt 0.401877 0.250000
vt 0.401877 0.375000
vt 0.398129 0.000000
vt 0.401252 0.125000
vt 0.401877 0.250000
vn -0.7083 0.0346 0.7051
vn -0.7087 0.1572 0.6877
vn -0.9888 0.1492 -0.0032
vn -0.9994 0.0337 -0.0001
vn -0.6214 0.5143 0.5911
vn -0.7866 0.6174 -0.0082
vn -0.6086 0.5184 -0.6007
vn -0.6994 0.1589 -0.6969
vn -0.7079 0.0291 -0.7057
vn 0.0032 0.1492 -0.9888
vn -0.0001 0.0241 -0.9997
vn 0.0082 0.6174 -0.7866
vn 0.6099 0.4987 -0.6158
vn 0.6969 0.1589 -0.6994
vn 0.7070 0.0245 -0.7068
vn 0.9888 0.1492 0.0032
vn 0.9997 0.0241 -0.0001
vn 0.7595 0.6504 0.0112
vn 0.6136 0.5047 0.6073
vn 0.6994 0.1589 0.6969
vn 0.7067 0.0290 0.7069
vn -0.0032 0.1492 0.9888
vn -0.0001 0.0337 0.9994
vn -0.0082 0.6174 0.7866
vn -0.5807 0.5109 0.6338
vn -0.6852 0.1590 0.7107
vn -0.7051 0.0345 0.7083
vn -0.5350 -0.6538 -0.5351
vn 0.0056 -0.7410 -0.6715
vn 0.0000 -1.0000 -0.0000
vn -0.6715 -0.7410 0.0056
vn 0.5502 -0.6322 -0.5455
vn 0.6907 -0.7231 -0.0059
vn 0.5491 -0.6259 0.5538
vn -0.0056 -0.7410 0.6715
vn -0.5217 -0.6749 0.5218
vn -0.0087 0.6062 -0.7952
vn 0.0000 1.0000 0.0000
vn -0.6125 0.4996 -0.6125
vn -0.7952 0.6063 -0.0087
vn -0.6237 0.4713 0.6237
vn 0.0087 0.6062 0.7952
vn 0.7068 0.0228 0.7071
vn 0.0000 0.0222 0.9998
vn -0.7068 0.0228 0.7071
vn 0.7069 0.0228 -0.7069
vn 0.9998 0.0222 -0.0000
vn 0.7064 0.0442 -0.7064
vn 0.9991 0.0431 0.0000
vn 0.7066 0.0455 0.7062
vn 0.7071 0.0228 0.7068
vn -0.7068 0.0228 -0.7071
vn 0.0000 0.0222 -0.9998
vn -0.7062 0.0455 -0.7066
vn 0.0000 0.0431 -0.9991
vn -0.7071 0.0228 0.7068
vn -0.9998 0.0222 -0.0000
vn -0.7071 0.0228 -0.7068
vn 0.6913 -0.2049 0.6929
vn 0.0022 -0.1925 0.9813
vn 0.0060 -0.6642 0.7475
vn 0.7049 0.0055 0.7093
vn 0.0002 -0.0019 1.0000
vn -0.7049 -0.0018 0.7093
vn -0.6758 -0.2031 0.7086
vn -0.5234 -0.6086 0.5963
vn 0.6929 -0.2049 -0.6913
vn 0.9813 -0.1925 -0.0022
vn 0.7069 0.0190 -0.7071
vn 0.9998 0.0174 0.0002
vn -0.5577 -0.6081 -0.5649
vn -0.6913 -0.2049 -0.6929
vn -0.0022 -0.1925 -0.9813
vn -0.0060 -0.6642 -0.7475
vn -0.7070 -0.0022 -0.7072
vn -0.0002 -0.0019 -1.0000
vn -0.6013 -0.6091 0.5171
vn -0.7088 -0.2024 0.6758
vn -0.9813 -0.1925 0.0022
vn -0.7475 -0.6642 0.0060
vn -0.7094 -0.0018 0.7048
vn -1.0000 -0.0019 0.0002
vn 0.7069 -0.0224 -0.7069
vn 0.9998 -0.0219 -0.0000
vn 0.7070 -0.0218 0.7069
usemtl Material.003
s 1
f 27/19/8 58/20/9 119/21/10
f 27/19/8 119/21/10 84/22/11
f 58/20/9 17/23/12 60/24/13
f 58/20/9 60/24/13 119/21/10
f 119/21/10 60/24/13 21/25/14
f 119/21/10 21/25/14 77/26/15
f 84/22/11 119/21/10 77/26/15
f 84/22/11 77/26/15 29/27/16
f 29/27/16 77/26/15 120/28/17
f 29/27/16 120/28/17 83/29/18
f 77/26/15 21/25/14 65/30/19
f 77/26/15 65/30/19 120/28/17
f 120/28/17 65/30/19 26/31/20
f 120/28/17 26/31/20 78/32/21
f 83/29/18 120/28/17 78/32/21
f 83/29/18 78/32/21 31/33/22
f 31/33/22 78/32/21 121/34/23
f 31/33/22 121/34/23 82/35/24
f 78/32/21 26/31/20 69/36/25
f 78/32/21 69/36/25 121/34/23
f 121/34/23 69/36/25 24/37/26
f 121/34/23 24/37/26 79/38/27
f 82/35/24 121/34/23 79/38/27
f 82/35/24 79/38/27 33/39/28
f 33/39/28 79/38/27 122/40/29
f 33/39/28 122/40/29 80/41/30
f 79/38/27 24/37/26 73/42/31
f 79/38/27 73/42/31 122/40/29
f 122/40/29 73/42/31 16/43/32
f 122/40/29 16/43/32 59/44/33
f 80/41/30 122/40/29 59/44/33
f 80/41/30 59/44/33 28/45/34
f 19/46/35 63/47/36 123/48/37
f 19/46/35 123/48/37 56/49/38
f 63/47/36 25/50/39 68/51/40
f 63/47/36 68/51/40 123/48/37
f 123/48/37 68/51/40 23/52/41
f 123/48/37 23/52/41 71/53/42
f 56/49/38 123/48/37 71/53/42
f 56/49/38 71/53/42 13/54/43
f 26/31/20 66/55/44 124/56/45
f 26/31/20 124/56/45 69/36/25
f 66/55/44 22/57/46 61/58/47
f 66/55/44 61/58/47 124/56/45
f 124/56/45 61/58/47 18/59/48
f 124/56/45 18/59/48 74/60/49
f 69/36/25 124/56/45 74/60/49
f 69/36/25 74/60/49 24/37/26
f 38/61/50 88/62/50 125/63/51
f 38/61/50 125/63/51 95/64/51
f 88/62/50 33/39/28 80/41/30
f 88/62/50 80/41/30 125/63/51
f 125/63/51 80/41/30 28/45/34
f 125/63/51 28/45/34 75/65/52
f 95/64/51 125/63/51 75/65/52
f 95/64/51 75/65/52 41/66/52
f 37/67/53 87/68/53 126/69/54
f 37/67/53 126/69/54 94/70/54
f 87/68/53 32/71/55 81/72/56
f 87/68/53 81/72/56 126/69/54
f 126/69/54 81/72/56 34/73/57
f 126/69/54 34/73/57 89/74/58
f 94/70/54 126/69/54 89/74/58
f 94/70/54 89/74/58 39/75/58
f 36/76/59 86/77/59 127/78/60
f 36/76/59 127/78/60 93/79/60
f 86/77/59 30/80/61 83/29/62
f 86/77/59 83/29/62 127/78/60
f 127/78/60 83/29/62 32/71/55
f 127/78/60 32/71/55 87/68/53
f 93/79/60 127/78/60 87/68/53
f 93/79/60 87/68/53 37/67/53
f 40/81/63 76/82/63 128/83/64
f 40/81/63 128/83/64 92/84/64
f 76/82/63 27/19/8 84/22/11
f 76/82/63 84/22/11 128/83/64
f 128/83/64 84/22/11 29/27/16
f 128/83/64 29/27/16 85/85/65
f 92/84/64 128/83/64 85/85/65
f 92/84/64 85/85/65 35/86/65
f 50/87/63 91/88/63 129/89/64
f 50/87/63 129/89/64 118/90/64
f 91/88/63 40/81/63 92/84/64
f 91/88/63 92/84/64 129/89/64
f 129/89/64 92/84/64 35/86/65
f 129/89/64 35/86/65 110/91/65
f 118/90/64 129/89/64 110/91/65
f 118/90/64 110/91/65 51/92/65
f 52/93/59 111/94/59 130/95/60
f 52/93/59 130/95/60 117/96/60
f 111/94/59 36/76/59 93/79/60
f 111/94/59 93/79/60 130/95/60
f 130/95/60 93/79/60 37/67/53
f 130/95/60 37/67/53 112/97/53
f 117/96/60 130/95/60 112/97/53
f 117/96/60 112/97/53 53/98/53
f 53/98/53 112/97/53 131/99/54
f 53/98/53 131/99/54 116/100/54
f 112/97/53 37/67/53 94/70/54
f 112/97/53 94/70/54 131/99/54
f 131/99/54 94/70/54 39/75/58
f 131/99/54 39/75/58 114/101/58
f 116/100/54 131/99/54 114/101/58
f 116/100/54 114/101/58 55/102/58
f 54/103/50 113/104/50 132/105/51
f 54/103/50 132/105/51 115/106/51
f 113/104/50 38/61/50 95/64/51
f 113/104/50 95/64/51 132/105/51
f 132/105/51 95/64/51 41/66/52
f 132/105/51 41/66/52 90/107/52
f 115/106/51 132/105/51 90/107/52
f 115/106/51 90/107/52 49/108/52
f 23/52/41 70/109/66 133/110/67
f 23/52/41 133/110/67 72/111/68
f 70/109/66 45/112/69 103/113/70
f 70/109/66 103/113/70 133/110/67
f 133/110/67 103/113/70 47/114/71
f 133/110/67 47/114/71 101/115/72
f 72/111/68 133/110/67 101/115/72
f 72/111/68 101/115/72 14/116/73
f 25/50/39 67/117/74 134/118/75
f 25/50/39 134/118/75 68/51/40
f 67/117/74 44/119/76 105/120/77
f 67/117/74 105/120/77 134/118/75
f 134/118/75 105/120/77 45/112/69
f 134/118/75 45/112/69 70/109/66
f 68/51/40 134/118/75 70/109/66
f 68/51/40 70/109/66 23/52/41
f 20/121/78 62/122/79 135/123/80
f 20/121/78 135/123/80 64/124/81
f 62/122/79 42/125/82 106/126/83
f 62/122/79 106/126/83 135/123/80
f 135/123/80 106/126/83 44/119/76
f 135/123/80 44/119/76 67/117/74
f 64/124/81 135/123/80 67/117/74
f 64/124/81 67/117/74 25/50/39
f 15/127/84 102/128/85 136/129/86
f 15/127/84 136/129/86 57/130/87
f 102/128/85 48/131/88 107/132/89
f 102/128/85 107/132/89 136/129/86
f 136/129/86 107/132/89 42/125/82
f 136/129/86 42/125/82 62/122/79
f 57/130/87 136/129/86 62/122/79
f 57/130/87 62/122/79 20/121/78
f 45/112/69 99/133/50 137/134/51
f 45/112/69 137/134/51 103/113/70
f 99/133/50 54/103/50 115/106/51
f 99/133/50 115/106/51 137/134/51
f 137/134/51 115/106/51 49/108/52
f 137/134/51 49/108/52 108/135/52
f 103/113/70 137/134/51 108/135/52
f 103/113/70 108/135/52 47/114/71
f 43/136/90 98/137/53 138/138/54
f 43/136/90 138/138/54 104/139/91
f 98/137/53 53/98/53 116/100/54
f 98/137/53 116/100/54 138/138/54
f 138/138/54 116/100/54 55/102/58
f 138/138/54 55/102/58 100/140/58
f 104/139/91 138/138/54 100/140/58
f 104/139/91 100/140/58 46/141/92
f 42/125/82 97/142/59 139/143/60
f 42/125/82 139/143/60 106/126/83
f 97/142/59 52/93/59 117/96/60
f 97/142/59 117/96/60 139/143/60
f 139/143/60 117/96/60 53/98/53
f 139/143/60 53/98/53 98/137/53
f 106/126/83 139/143/60 98/137/53
f 106/126/83 98/137/53 43/136/90
f 48/131/88 109/144/63 140/145/64
f 48/131/88 140/145/64 107/132/89
f 109/144/63 50/87/63 118/90/64
f 109/144/63 118/90/64 140/145/64
f 140/145/64 118/90/64 51/92/65
f 140/145/64 51/92/65 96/146/65
f 107/132/89 140/145/64 96/146/65
f 107/132/89 96/146/65 42/125/82
