<svg width="32" height="32" fill="none" xmlns="http://www.w3.org/2000/svg"><path d="M25.232 5H6.768C5.792 5 5 5.792 5 6.768v18.464C5 26.208 5.792 27 6.768 27h18.464c.976 0 1.768-.792 1.768-1.768V6.768C27 5.792 26.208 5 25.232 5Zm0 20.24c-12.315-.003-18.472-.005-18.472-.008.003-12.315.006-18.472.008-18.472 12.315.003 18.472.006 18.472.008-.003 12.315-.005 18.472-.008 18.472ZM8.262 13.247h3.264v10.5H8.262v-10.5Zm1.633-1.435a1.894 1.894 0 0 0 1.338-3.23 1.89 1.89 0 0 0-3.23 1.338 1.888 1.888 0 0 0 1.892 1.892Zm6.938 6.74c0-1.37.262-2.695 1.958-2.695 1.672 0 1.697 1.565 1.697 2.783v5.107h3.262v-5.759c0-2.827-.611-5.002-3.914-5.002-1.586 0-2.65.872-3.088 1.697h-.044v-1.436h-3.132v10.5h3.261v-5.195Z" fill="#fff"/></svg>