<svg width="32" height="32" fill="none" xmlns="http://www.w3.org/2000/svg"><path d="M30 15.913c0-.069 0-.147-.003-.237-.003-.253-.01-.538-.016-.84a47.1 47.1 0 0 0-.137-2.56c-.094-1.128-.232-2.069-.419-2.775a4.36 4.36 0 0 0-3.072-3.078c-.884-.238-2.616-.385-5.053-.475-1.16-.044-2.4-.072-3.64-.088-.435-.006-.838-.01-1.2-.012h-.92c-.362.003-.765.006-1.2.012-1.24.016-2.48.044-3.64.088-2.438.093-4.172.24-5.053.475A4.355 4.355 0 0 0 2.575 9.5c-.19.706-.325 1.647-.419 2.775a47.05 47.05 0 0 0-.137 2.56c-.01.302-.013.587-.016.84 0 .09-.003.168-.003.237v.175c0 .069 0 .147.003.238.003.253.01.537.016.84.025.872.068 1.741.137 2.56.094 1.128.232 2.069.419 2.775a4.355 4.355 0 0 0 3.072 3.078c.881.237 2.615.384 5.053.475 1.16.044 2.4.072 3.64.087.435.007.838.01 1.2.013h.92c.362-.003.765-.006 1.2-.013 1.24-.015 2.48-.043 3.64-.087 2.438-.094 4.172-.24 5.053-.475a4.35 4.35 0 0 0 3.072-3.078c.19-.707.325-1.647.419-2.775.069-.819.112-1.688.137-2.56.01-.303.013-.587.016-.84 0-.09.003-.169.003-.238v-.175Zm-2.25.163c0 .065 0 .137-.003.222-.003.243-.01.512-.016.803a42.301 42.301 0 0 1-.131 2.434c-.084 1.006-.203 1.831-.35 2.384a2.103 2.103 0 0 1-1.481 1.485c-.656.175-2.31.316-4.556.4a141.615 141.615 0 0 1-4.766.097h-.894l-1.181-.01a141.974 141.974 0 0 1-3.585-.087c-2.246-.088-3.903-.225-4.556-.4a2.108 2.108 0 0 1-1.481-1.485c-.147-.553-.266-1.378-.35-2.384a45.275 45.275 0 0 1-.131-2.434c-.01-.29-.013-.563-.016-.803 0-.085-.003-.16-.003-.222v-.15c0-.066 0-.138.003-.222.003-.244.01-.513.016-.803.022-.832.065-1.663.131-2.435.084-1.006.203-1.83.35-2.384a2.103 2.103 0 0 1 1.481-1.484c.657-.175 2.31-.316 4.556-.4a141.944 141.944 0 0 1 4.766-.097h.894l1.181.01c1.222.015 2.444.043 3.584.087 2.247.087 3.904.225 4.557.4a2.108 2.108 0 0 1 1.481 1.484c.147.553.266 1.378.35 2.384.066.772.106 1.604.131 2.435.01.29.013.562.016.803 0 .084.003.16.003.222v.15Zm-14.531 4.112 7.25-4.218-7.25-4.157v8.375Z" fill="#fff"/></svg>