<svg width="40" height="40" fill="none" xmlns="http://www.w3.org/2000/svg"><path d="M36.892 12.865a18.382 18.382 0 0 0-9.756-9.756 18.388 18.388 0 0 0-14.273 0 18.382 18.382 0 0 0-9.756 9.756 18.388 18.388 0 0 0 0 14.273 18.382 18.382 0 0 0 9.756 9.756 18.39 18.39 0 0 0 14.273 0 18.382 18.382 0 0 0 9.756-9.756 18.387 18.387 0 0 0 0-14.273ZM20 35.002c-8.271 0-15-6.73-15-15 0-8.271 6.729-15 15-15 8.27 0 15 6.728 15 15 0 8.27-6.73 15-15 15Z" fill="url(#a)"/><path d="M21.667 19.312v-9.31a1.666 1.666 0 0 0-3.333 0v10a1.662 1.662 0 0 0 .488 1.178l5 5a1.667 1.667 0 1 0 2.357-2.357l-4.512-4.511Z" fill="url(#b)"/><defs><linearGradient id="a" x1="5.1" y1="5.017" x2="38.106" y2="46.495" gradientUnits="userSpaceOnUse"><stop stop-color="#007BC4"/><stop offset="1" stop-color="#0B4C97"/></linearGradient><linearGradient id="b" x1="19.115" y1="10.011" x2="33.707" y2="18.348" gradientUnits="userSpaceOnUse"><stop stop-color="#007BC4"/><stop offset="1" stop-color="#0B4C97"/></linearGradient></defs></svg>