<svg width="32" height="32" fill="none" xmlns="http://www.w3.org/2000/svg"><path d="M31.017 14.13c.607-.31.983-.924.983-1.605 0-.68-.377-1.295-.983-1.605L16.818 3.672a1.81 1.81 0 0 0-1.638 0L.984 10.922A1.793 1.793 0 0 0 0 12.525c0 .68.377 1.296.983 1.605l5.538 2.828v7.32c0 2.143 4.695 4.247 9.479 4.247 4.785 0 9.48-2.104 9.48-4.248v-7.32l3.134-1.6v5.713l-.746 1.905a1.765 1.765 0 0 0 .186 1.641 1.767 1.767 0 0 0 2.923 0 1.77 1.77 0 0 0 .186-1.642l-.747-1.904v-6.633l.601-.307Zm-7.334 10.1c-.19.62-3.218 2.493-7.683 2.493-4.466 0-7.493-1.872-7.678-2.446v-7.871l-.003-.003a.897.897 0 0 0-.488-.8l-6.029-3.078L16 5.277l14.198 7.248L16 19.773l-5.178-2.643a.901.901 0 0 0-.82 1.605l5.179 2.643a1.804 1.804 0 0 0 1.639 0l6.859-3.501.004 6.353Z" fill="url(#a)"/><defs><linearGradient id="a" x1="2.997" y1="5.765" x2="23.764" y2="39.105" gradientUnits="userSpaceOnUse"><stop stop-color="#007BC4"/><stop offset="1" stop-color="#0B4C97"/></linearGradient></defs></svg>