<svg width="40" height="40" fill="none" xmlns="http://www.w3.org/2000/svg"><g clip-path="url(#a)"><path d="m38.364 12.696-16.74-7.083a4.19 4.19 0 0 0-3.25 0l-16.74 7.083a2.5 2.5 0 0 0 0 4.605L7.5 19.782v7.978a4.127 4.127 0 0 0 2 3.562 20.804 20.804 0 0 0 21 0 4.126 4.126 0 0 0 2-3.562v-7.978l2.5-1.058v3.951a2.074 2.074 0 0 0-.404 3.574 2.076 2.076 0 0 0-.846 1.667v2.083a.833.833 0 0 0 .834.833h2.5a.833.833 0 0 0 .833-.833v-2.083a2.076 2.076 0 0 0-.846-1.667 2.073 2.073 0 0 0-.404-3.573v-4.657l1.697-.718a2.5 2.5 0 0 0 0-4.605ZM36.25 24.582a.417.417 0 1 1-.834 0 .417.417 0 0 1 .834 0Zm0 4.584h-.833v-1.25a.416.416 0 1 1 .833 0v1.25Zm-5.416-1.406a2.456 2.456 0 0 1-1.18 2.125 19.139 19.139 0 0 1-19.308 0 2.455 2.455 0 0 1-1.18-2.125v-7.273l9.21 3.897a4.187 4.187 0 0 0 3.25 0l9.207-3.897v7.273Zm6.88-11.994-16.74 7.084a2.517 2.517 0 0 1-1.948 0l-16.74-7.084a.833.833 0 0 1 0-1.535l16.74-7.083a2.511 2.511 0 0 1 1.948 0l16.74 7.083a.833.833 0 0 1 0 1.535Z" fill="url(#b)" stroke="url(#c)"/></g><defs><linearGradient id="b" x1="3.834" y1="7.923" x2="26.945" y2="47.93" gradientUnits="userSpaceOnUse"><stop stop-color="#007BC4"/><stop offset="1" stop-color="#0B4C97"/></linearGradient><linearGradient id="c" x1="3.834" y1="7.923" x2="26.945" y2="47.93" gradientUnits="userSpaceOnUse"><stop stop-color="#007BC4"/><stop offset="1" stop-color="#0B4C97"/></linearGradient><clipPath id="a"><path fill="#fff" d="M0 0h40v40H0z"/></clipPath></defs></svg>