<svg width="48" height="48" fill="none" xmlns="http://www.w3.org/2000/svg"><g stroke-width="4" stroke-linecap="round" stroke-linejoin="round"><path d="M10 19.846c0 9.703 8.489 17.728 12.246 20.804.538.44.81.663 1.211.776.313.088.773.088 1.085 0 .402-.113.672-.333 1.212-.775C29.51 37.574 38 29.55 38 19.847a13.77 13.77 0 0 0-4.1-9.792A14.079 14.079 0 0 0 24 6a14.08 14.08 0 0 0-9.9 4.056 13.768 13.768 0 0 0-4.1 9.79Z" stroke="url(#a)"/><path d="M20 18a4 4 0 1 0 8 0 4 4 0 0 0-8 0Z" stroke="url(#b)"/></g><defs><linearGradient id="a" x1="12.623" y1="9.242" x2="45.407" y2="41.745" gradientUnits="userSpaceOnUse"><stop stop-color="#007BC4"/><stop offset="1" stop-color="#0B4C97"/></linearGradient><linearGradient id="b" x1="12.623" y1="9.242" x2="45.407" y2="41.745" gradientUnits="userSpaceOnUse"><stop stop-color="#007BC4"/><stop offset="1" stop-color="#0B4C97"/></linearGradient></defs></svg>