<svg width="40" height="40" fill="none" xmlns="http://www.w3.org/2000/svg"><g stroke-width=".5"><path d="M19.488 34.719h-14a1.864 1.864 0 0 1-1.863-1.863V6.991l2.525-1.52 3.07 1.85a1.125 1.125 0 0 0 1.161 0l3.069-1.85 3.056 1.85a1.12 1.12 0 0 0 1.163 0l3.069-1.848 3.056 1.848a1.12 1.12 0 0 0 1.162.002l3.069-1.85 2.514 1.52v7.942a1.125 1.125 0 0 0 2.25 0V6.36a1.124 1.124 0 0 0-.543-.962l-3.637-2.2a1.125 1.125 0 0 0-1.163-.002l-3.069 1.85-3.056-1.85a1.125 1.125 0 0 0-1.162 0L17.09 5.043l-3.056-1.849a1.125 1.125 0 0 0-1.163-.001L9.8 5.043l-3.07-1.85a1.125 1.125 0 0 0-1.161 0l-3.65 2.2a1.126 1.126 0 0 0-.544.963v26.5a4.117 4.117 0 0 0 4.112 4.113h14a1.125 1.125 0 1 0 0-2.25Z" fill="url(#a)" stroke="url(#b)"/><path d="M26.72 14.965a1.125 1.125 0 0 0-1.126-1.125H8.574a1.125 1.125 0 0 0 0 2.25h17.02a1.125 1.125 0 0 0 1.125-1.125Zm-7.582 6.142a1.125 1.125 0 0 0-1.125-1.125H8.575a1.125 1.125 0 0 0 0 2.25h9.438a1.125 1.125 0 0 0 1.125-1.125ZM8.574 26.115a1.125 1.125 0 0 0 0 2.25h7.66a1.125 1.125 0 1 0 0-2.25h-7.66Zm20.767.231c-1.003-.229-1.17-.442-1.166-.43.02-.282.628-.5 1.537-.56a1.125 1.125 0 0 0 2.222-.25c0-.544-.224-1.071-.615-1.45a2.001 2.001 0 0 0-1.108-.534 1.122 1.122 0 0 0-2.242.04v.242c-1.62.535-1.989 1.636-2.039 2.358-.095 1.383.886 2.318 2.912 2.778.966.22 1.182.455 1.177.441-.013.26-.676.491-1.548.551a1.125 1.125 0 0 0-2.223.25 1.987 1.987 0 0 0 1.729 1.982 1.122 1.122 0 0 0 2.241-.042v-.238c1.766-.583 2.035-1.837 2.051-2.45.024-.917-.463-2.127-2.928-2.688Z" fill="url(#c)" stroke="url(#d)"/><path d="M29.098 17.914c-5.254 0-9.528 4.274-9.528 9.528 0 5.253 4.274 9.527 9.528 9.527 5.254 0 9.527-4.274 9.527-9.527 0-5.254-4.275-9.528-9.527-9.528Zm0 16.805c-4.013 0-7.278-3.265-7.278-7.277 0-4.013 3.265-7.278 7.278-7.278 4.012 0 7.277 3.265 7.277 7.278 0 4.012-3.265 7.277-7.277 7.277Z" fill="url(#e)" stroke="url(#f)"/></g><defs><linearGradient id="a" x1="4.317" y1="6.131" x2="35.312" y2="42.185" gradientUnits="userSpaceOnUse"><stop stop-color="#007BC4"/><stop offset="1" stop-color="#0B4C97"/></linearGradient><linearGradient id="b" x1="4.317" y1="6.131" x2="35.312" y2="42.185" gradientUnits="userSpaceOnUse"><stop stop-color="#007BC4"/><stop offset="1" stop-color="#0B4C97"/></linearGradient><linearGradient id="c" x1="9.774" y1="15.575" x2="25.361" y2="41.173" gradientUnits="userSpaceOnUse"><stop stop-color="#007BC4"/><stop offset="1" stop-color="#0B4C97"/></linearGradient><linearGradient id="d" x1="9.774" y1="15.575" x2="25.361" y2="41.173" gradientUnits="userSpaceOnUse"><stop stop-color="#007BC4"/><stop offset="1" stop-color="#0B4C97"/></linearGradient><linearGradient id="e" x1="21.355" y1="19.655" x2="38.507" y2="41.21" gradientUnits="userSpaceOnUse"><stop stop-color="#007BC4"/><stop offset="1" stop-color="#0B4C97"/></linearGradient><linearGradient id="f" x1="21.355" y1="19.655" x2="38.507" y2="41.21" gradientUnits="userSpaceOnUse"><stop stop-color="#007BC4"/><stop offset="1" stop-color="#0B4C97"/></linearGradient></defs></svg>