<svg width="16" height="17" fill="none" xmlns="http://www.w3.org/2000/svg"><path d="M.781 16.5a.782.782 0 0 1-.552-1.334L14.666.729a.782.782 0 0 1 1.105 1.105L1.334 16.27a.777.777 0 0 1-.553.228Z" fill="url(#a)"/><path d="M15.218 16.5a.779.779 0 0 1-.552-.23L.229 1.835A.781.781 0 1 1 1.334.729L15.77 15.166a.781.781 0 0 1-.553 1.333Z" fill="url(#b)"/><defs><linearGradient id="a" x1="1.499" y1="1.961" x2="15.9" y2="20.06" gradientUnits="userSpaceOnUse"><stop stop-color="#007BC4"/><stop offset="1" stop-color="#0B4C97"/></linearGradient><linearGradient id="b" x1="1.499" y1="1.961" x2="15.9" y2="20.06" gradientUnits="userSpaceOnUse"><stop stop-color="#007BC4"/><stop offset="1" stop-color="#0B4C97"/></linearGradient></defs></svg>