<svg width="40" height="40" fill="none" xmlns="http://www.w3.org/2000/svg"><path d="M38.437 16.227 27.77 5.56a5.337 5.337 0 0 0-7.541 0 5.293 5.293 0 0 0-1.563 3.77c0 1.425.555 2.766 1.563 3.771l6.896 6.896-6.896 6.896a5.297 5.297 0 0 0-1.563 3.771c0 1.424.555 2.763 1.563 3.77a5.297 5.297 0 0 0 3.77 1.563 5.297 5.297 0 0 0 3.771-1.562l10.667-10.667a5.292 5.292 0 0 0 1.562-3.77 5.292 5.292 0 0 0-1.562-3.771Zm-1.886 5.656L25.885 32.549c-1.011 1.008-2.76 1.008-3.771 0a2.668 2.668 0 0 1 0-3.77l8.781-8.782-8.781-8.781a2.648 2.648 0 0 1-.781-1.885c0-.712.277-1.382.781-1.886a2.66 2.66 0 0 1 1.885-.781c.707 0 1.385.28 1.886.779L36.55 18.109a2.66 2.66 0 0 1 .782 1.888c0 .712-.278 1.382-.782 1.886Z" fill="url(#a)"/><path d="M19.77 16.227 9.105 5.56a5.337 5.337 0 0 0-7.541 0A5.292 5.292 0 0 0 0 9.33c0 1.425.555 2.766 1.563 3.771l6.896 6.896-6.896 6.896A5.297 5.297 0 0 0 0 30.664c0 1.424.555 2.763 1.563 3.77a5.297 5.297 0 0 0 3.77 1.563 5.297 5.297 0 0 0 3.771-1.562l10.667-10.667a5.292 5.292 0 0 0 1.562-3.77 5.292 5.292 0 0 0-1.562-3.771Zm-1.885 5.656L7.22 32.549c-1.011 1.008-2.76 1.008-3.771 0a2.668 2.668 0 0 1 0-3.77l8.781-8.782-8.781-8.781a2.648 2.648 0 0 1-.781-1.885c0-.712.277-1.382.781-1.886a2.668 2.668 0 0 1 3.77-.003L17.886 18.11a2.66 2.66 0 0 1 .782 1.888c0 .712-.278 1.382-.782 1.886Z" fill="url(#b)"/><defs><linearGradient id="a" x1="20.664" y1="6.923" x2="49.765" y2="31.305" gradientUnits="userSpaceOnUse"><stop stop-color="#007BC4"/><stop offset="1" stop-color="#0B4C97"/></linearGradient><linearGradient id="b" x1="1.998" y1="6.923" x2="31.099" y2="31.305" gradientUnits="userSpaceOnUse"><stop stop-color="#007BC4"/><stop offset="1" stop-color="#0B4C97"/></linearGradient></defs></svg>