<svg width="24" height="24" fill="none" xmlns="http://www.w3.org/2000/svg"><path d="M18.073 3.485a2.495 2.495 0 0 1-2.492 2.488 2.495 2.495 0 0 1-2.493-2.486v-.015l.5.003 4.485.01Zm0 0v-.007m0 .007v-.007m0 0V3.469v.009Zm-4.985 17.037v-.005l.5.003-.5.002Zm0 0v.01m0-.01v.01m0 0a2.495 2.495 0 0 0 2.493 2.487 2.495 2.495 0 0 0 2.492-2.49m-4.985.003 4.985-.002m0 0v-.007m0 .007v-.007m0 0V20.507v.009Zm-12.146-8.52A2.495 2.495 0 0 1 8.42 9.507a2.495 2.495 0 0 1 2.492 2.487v.015l-.5-.003a1.996 1.996 0 0 1-1.992 1.986 1.997 1.997 0 0 1-1.993-1.984l-.5-.012Zm0 0v.017-.017Zm6.73-7.872-.086-.393H.75a.25.25 0 0 1 0-.5h11.821l.087-.393A3.001 3.001 0 0 1 15.58.488a3.002 3.002 0 0 1 2.922 2.35l.087.393h4.66a.25.25 0 0 1 0 .5h-4.66l-.086.393a2.999 2.999 0 0 1-2.924 2.35 2.999 2.999 0 0 1-2.923-2.35Zm5.846 15.753.087.392h4.66a.25.25 0 1 1 0 .5h-4.66l-.086.393a2.999 2.999 0 0 1-2.924 2.35 2.999 2.999 0 0 1-2.923-2.35l-.086-.393H.75a.25.25 0 0 1 0-.5h11.821l.087-.392a3.001 3.001 0 0 1 2.923-2.35 3.002 3.002 0 0 1 2.922 2.35Zm-7.16-8.52.086.393H23.25a.25.25 0 0 1 0 .5H11.429l-.087.392a3.001 3.001 0 0 1-2.922 2.35 3.002 3.002 0 0 1-2.923-2.35l-.087-.392H.75a.25.25 0 1 1 0-.5h4.66l.086-.393a2.999 2.999 0 0 1 2.924-2.35 2.999 2.999 0 0 1 2.923 2.35Z" fill="#fff" stroke="#fff"/></svg>