<svg width="48" height="48" viewBox="0 0 48 48" fill="none" xmlns="http://www.w3.org/2000/svg">
<g id="icon/location">
<g id="Vector">
<path d="M10 19.8457C10 29.5493 18.489 37.5739 22.2464 40.6504C22.7841 41.0907 23.0562 41.3135 23.4574 41.4265C23.7698 41.5144 24.2296 41.5144 24.542 41.4265C24.9439 41.3133 25.2141 41.0927 25.7539 40.6507C29.5113 37.5742 37.9998 29.5502 37.9998 19.8466C37.9998 16.1744 36.5249 12.6521 33.8994 10.0554C31.2739 7.45879 27.7132 6 24.0002 6C20.2871 6 16.726 7.45901 14.1005 10.0557C11.475 12.6523 10 16.1735 10 19.8457Z" stroke="url(#paint0_linear_513_9418)" stroke-width="4" stroke-linecap="round" stroke-linejoin="round"/>
<path d="M20 18C20 20.2091 21.7909 22 24 22C26.2091 22 28 20.2091 28 18C28 15.7909 26.2091 14 24 14C21.7909 14 20 15.7909 20 18Z" stroke="url(#paint1_linear_513_9418)" stroke-width="4" stroke-linecap="round" stroke-linejoin="round"/>
</g>
</g>
<defs>
<linearGradient id="paint0_linear_513_9418" x1="12.6225" y1="9.2421" x2="45.4069" y2="41.7449" gradientUnits="userSpaceOnUse">
<stop stop-color="#007BC4"/>
<stop offset="1" stop-color="#0B4C97"/>
</linearGradient>
<linearGradient id="paint1_linear_513_9418" x1="12.6225" y1="9.2421" x2="45.4069" y2="41.7449" gradientUnits="userSpaceOnUse">
<stop stop-color="#007BC4"/>
<stop offset="1" stop-color="#0B4C97"/>
</linearGradient>
</defs>
</svg>
