<svg width="34" height="34" viewBox="0 0 34 34" fill="none" xmlns="http://www.w3.org/2000/svg">
<g id="Group">
<path id="Vector" d="M25.456 24.1593L18.2965 16.9999L25.456 9.8404C25.8221 9.47428 25.8221 8.8807 25.456 8.51458C25.0899 8.14845 24.4963 8.14845 24.1302 8.51458L16.9707 15.674L9.81125 8.51458C9.44512 8.14845 8.85155 8.14845 8.48542 8.51458C8.1193 8.8807 8.1193 9.47428 8.48542 9.8404L15.6449 16.9999L8.48542 24.1593C8.1193 24.5254 8.1193 25.119 8.48542 25.4851C8.85155 25.8513 9.44512 25.8513 9.81125 25.4851L16.9707 18.3257L24.1302 25.4851C24.4963 25.8513 25.0899 25.8513 25.456 25.4851C25.8221 25.119 25.8221 24.5254 25.456 24.1593Z" fill="#2A3545"/>
</g>
</svg>
