<svg width="24" height="24" viewBox="0 0 24 24" fill="none" xmlns="http://www.w3.org/2000/svg">
<g id="Frame" clip-path="url(#clip0_763_19251)">
<g id="Group">
<path id="Vector" d="M22.0625 11.0625H11.9375V0.9375C11.9375 0.419719 11.5178 0 11 0C10.4822 0 10.0625 0.419719 10.0625 0.9375V11.0625H-0.0625C-0.580281 11.0625 -1 11.4822 -1 12C-1 12.5178 -0.580281 12.9375 -0.0625 12.9375H10.0625V23.0625C10.0625 23.5803 10.4822 24 11 24C11.5178 24 11.9375 23.5803 11.9375 23.0625V12.9375H22.0625C22.5803 12.9375 23 12.5178 23 12C23 11.4822 22.5803 11.0625 22.0625 11.0625Z" fill="#2A3545"/>
</g>
</g>
<defs>
<clipPath id="clip0_763_19251">
<rect width="24" height="24" fill="white"/>
</clipPath>
</defs>
</svg>
