<svg width="16" height="17" viewBox="0 0 16 17" fill="none" xmlns="http://www.w3.org/2000/svg">
<g id="Group">
<g id="02 User">
<path id="Vector" d="M0.78136 16.4994C0.62683 16.4994 0.475762 16.4536 0.347265 16.3678C0.218768 16.2819 0.118615 16.1599 0.0594749 16.0171C0.000334646 15.8744 -0.0151362 15.7173 0.0150191 15.5657C0.0451745 15.4142 0.119601 15.2749 0.228886 15.1657L14.6657 0.728843C14.8123 0.582317 15.011 0.5 15.2182 0.5C15.4254 0.5 15.6242 0.582317 15.7707 0.728843C15.9172 0.875368 15.9995 1.0741 15.9995 1.28132C15.9995 1.48854 15.9172 1.68727 15.7707 1.83379L1.33384 16.2706C1.26135 16.3433 1.17523 16.4009 1.08042 16.4401C0.985608 16.4794 0.883976 16.4995 0.78136 16.4994Z" fill="url(#paint0_linear_1678_14791)"/>
<path id="Vector_2" d="M15.2182 16.4994C15.1155 16.4995 15.0139 16.4794 14.9191 16.4401C14.8243 16.4009 14.7382 16.3433 14.6657 16.2706L0.228843 1.83379C0.0823171 1.68727 0 1.48854 0 1.28132C0 1.0741 0.0823171 0.875368 0.228843 0.728843C0.375368 0.582317 0.574099 0.5 0.781317 0.5C0.988536 0.5 1.18727 0.582317 1.33379 0.728843L15.7706 15.1657C15.8799 15.2749 15.9543 15.4142 15.9845 15.5657C16.0147 15.7173 15.9992 15.8744 15.94 16.0171C15.8809 16.1599 15.7808 16.2819 15.6523 16.3678C15.5238 16.4536 15.3727 16.4994 15.2182 16.4994Z" fill="url(#paint1_linear_1678_14791)"/>
</g>
</g>
<defs>
<linearGradient id="paint0_linear_1678_14791" x1="1.49856" y1="1.96148" x2="15.9001" y2="20.0602" gradientUnits="userSpaceOnUse">
<stop stop-color="#007BC4"/>
<stop offset="1" stop-color="#0B4C97"/>
</linearGradient>
<linearGradient id="paint1_linear_1678_14791" x1="1.49856" y1="1.96148" x2="15.9001" y2="20.0602" gradientUnits="userSpaceOnUse">
<stop stop-color="#007BC4"/>
<stop offset="1" stop-color="#0B4C97"/>
</linearGradient>
</defs>
</svg>
