<svg width="20" height="21" fill="none" xmlns="http://www.w3.org/2000/svg"><g clip-path="url(#a)"><path d="m13.563 12.266-2.788-2.091v-4.26a.774.774 0 1 0-1.55 0v4.647c0 .244.115.474.31.62l3.098 2.323a.77.77 0 0 0 .465.155.773.773 0 0 0 .466-1.394Z" fill="url(#b)"/><path d="M10 .5C4.486.5 0 4.986 0 10.5s4.486 10 10 10 10-4.486 10-10-4.486-10-10-10Zm0 18.45c-4.66 0-8.45-3.79-8.45-8.45 0-4.66 3.79-8.45 8.45-8.45 4.66 0 8.45 3.79 8.45 8.45 0 4.66-3.79 8.45-8.45 8.45Z" fill="url(#c)"/></g><defs><linearGradient id="b" x1="9.661" y1="5.918" x2="17.002" y2="10.951" gradientUnits="userSpaceOnUse"><stop stop-color="#007BC4"/><stop offset="1" stop-color="#0B4C97"/></linearGradient><linearGradient id="c" x1="1.873" y1="2.327" x2="19.876" y2="24.951" gradientUnits="userSpaceOnUse"><stop stop-color="#007BC4"/><stop offset="1" stop-color="#0B4C97"/></linearGradient><clipPath id="a"><path fill="#fff" transform="translate(0 .5)" d="M0 0h20v20H0z"/></clipPath></defs></svg>