<svg width="32" height="32" fill="none" xmlns="http://www.w3.org/2000/svg"><path d="M31.448 14.975h-7.056v-1.363a.551.551 0 0 0-.282-.48l-7.558-4.248V6.72h1.495v.822a.552.552 0 0 0 .552.552h4.507a.552.552 0 0 0 .519-.74l-.453-1.285.458-1.258a.55.55 0 0 0-.518-.74h-2.053v-.8a.552.552 0 0 0-.551-.551h-3.956v-.673a.552.552 0 1 0-1.104 0v6.836L7.89 13.126a.551.551 0 0 0-.282.48v1.363H.552a.552.552 0 0 0-.552.552v14.433a.552.552 0 0 0 .552.552h30.896a.552.552 0 0 0 .552-.552V15.526a.552.552 0 0 0-.552-.551ZM21.06 6.169l-.022-.022v-.949h1.258l-.226.706a.551.551 0 0 0 0 .381l.26.706H19.15v-.27h1.358a.552.552 0 0 0 .551-.552Zm-4.507-2.345h3.404v1.793h-3.404V3.824ZM7.608 29.402H1.103V16.078h6.505v13.324Zm7.84 0h-2.896v-6.3h2.896v6.3Zm4 0h-2.896v-6.3h2.896v6.3Zm3.862 0h-2.758V22.55a.551.551 0 0 0-.552-.552h-8a.551.551 0 0 0-.552.552v6.852H8.69V13.954L16 9.838l7.288 4.094.022 1.589v13.881Zm7.587 0h-6.505V16.078h6.505v13.324Z" fill="url(#a)"/><path d="M16 11.527a2.312 2.312 0 1 0 0 4.624 2.312 2.312 0 0 0 0-4.624Zm0 3.52a1.208 1.208 0 0 1 0-2.416 1.214 1.214 0 0 1 1.209 1.214h.005a1.208 1.208 0 0 1-1.213 1.202ZM2.434 17.293h1.103V19.5H2.434v-2.207Zm2.72 0h1.103V19.5H5.154v-2.207Zm5.213 0h2.207v1.103h-2.207v-1.103Zm4.53 0h2.207v1.103h-2.207v-1.103Zm4.53 0h2.207v1.103h-2.207v-1.103Zm-9.06 2.57h2.207v1.104h-2.207v-1.103Zm4.53 0h2.207v1.104h-2.207v-1.103Zm4.53 0h2.207v1.104h-2.207v-1.103ZM2.434 21.636h1.103v2.207H2.434v-2.207Zm2.72 0h1.103v2.207H5.154v-2.207Zm-2.72 4.348h1.103v2.206H2.434v-2.206Zm2.72 0h1.103v2.206H5.154v-2.206Zm20.59-8.69h1.103V19.5h-1.103v-2.207Zm2.72 0h1.103V19.5h-1.103v-2.207Zm-2.72 4.342h1.103v2.207h-1.103v-2.207Zm2.72 0h1.103v2.207h-1.103v-2.207Zm-2.72 4.348h1.103v2.206h-1.103v-2.206Zm2.72 0h1.103v2.206h-1.103v-2.206Z" fill="url(#b)"/><defs><linearGradient id="a" x1="8.035" y1="-14.304" x2="60.873" y2="3.637" gradientUnits="userSpaceOnUse"><stop stop-color="#0B4C97"/><stop offset="1" stop-color="#68B8E8"/></linearGradient><linearGradient id="b" x1="9.247" y1="2.452" x2="49.181" y2="22.47" gradientUnits="userSpaceOnUse"><stop stop-color="#0B4C97"/><stop offset="1" stop-color="#68B8E8"/></linearGradient></defs></svg>