<svg xmlns="http://www.w3.org/2000/svg" width="81" height="80" fill="none"><path fill="url(#a)" d="M63.381 12.502H17.222c-2.44 0-4.42 1.98-4.42 4.42v46.16c0 2.44 1.98 4.42 4.42 4.42h46.16c2.44 0 4.42-1.98 4.42-4.42v-46.16c0-2.44-1.98-4.42-4.42-4.42Zm0 50.6c-30.786-.007-46.18-.014-46.18-.02.008-30.787.014-46.18.021-46.18 30.787.007 46.18.014 46.18.02-.007 30.787-.014 46.18-.02 46.18ZM20.956 33.12h8.16V59.37h-8.16V33.12Zm4.083-3.589a4.734 4.734 0 0 0 4.37-6.54 4.73 4.73 0 0 0-9.1 1.81 4.72 4.72 0 0 0 4.73 4.73Zm17.346 16.851c0-3.424.653-6.737 4.895-6.737 4.18 0 4.242 3.911 4.242 6.957v12.767h8.154V44.973c0-7.068-1.527-12.506-9.784-12.506-3.967 0-6.627 2.18-7.72 4.242h-.11V33.12h-7.83V59.37h8.153V46.382Z"/><defs><linearGradient id="a" x1="17.953" x2="67.46" y1="17.526" y2="79.742" gradientUnits="userSpaceOnUse"><stop stop-color="#007BC4"/><stop offset="1" stop-color="#0B4C97"/></linearGradient></defs></svg>