<svg xmlns="http://www.w3.org/2000/svg" width="81" height="80" fill="none"><path fill="url(#a)" d="M75.434 39.783c0-.172 0-.367-.008-.593-.008-.633-.024-1.344-.04-2.102-.062-2.18-.171-4.352-.343-6.399-.234-2.82-.578-5.171-1.047-6.937a10.9 10.9 0 0 0-7.68-7.695c-2.21-.594-6.539-.961-12.632-1.188a368 368 0 0 0-9.102-.219c-1.086-.015-2.094-.023-3-.03h-2.297c-.906.007-1.914.015-3 .03a368 368 0 0 0-9.101.22c-6.094.234-10.43.6-12.633 1.187a10.886 10.886 0 0 0-7.68 7.695c-.476 1.766-.812 4.117-1.047 6.938a117.62 117.62 0 0 0-.344 6.398c-.023.758-.03 1.469-.039 2.102 0 .226-.007.421-.007.593v.438c0 .172 0 .367.007.594.008.632.024 1.343.04 2.101.062 2.18.171 4.352.343 6.399.235 2.82.578 5.171 1.047 6.937 1 3.742 3.938 6.695 7.68 7.695 2.203.594 6.539.961 12.633 1.188 2.898.11 6 .18 9.101.218 1.086.016 2.094.024 3 .032h2.297c.906-.008 1.914-.016 3-.032a367.51 367.51 0 0 0 9.102-.218c6.093-.235 10.43-.602 12.632-1.188 3.743-1 6.68-3.945 7.68-7.695.477-1.766.813-4.117 1.047-6.938.172-2.046.281-4.218.344-6.398.023-.758.031-1.469.039-2.101 0-.227.008-.422.008-.594v-.438Zm-5.625.407c0 .163 0 .343-.008.554-.008.61-.024 1.281-.04 2.008a105.61 105.61 0 0 1-.327 6.086c-.211 2.515-.508 4.578-.875 5.96a5.257 5.257 0 0 1-3.703 3.712c-1.641.437-5.774.789-11.391 1-2.844.11-5.906.18-8.961.218-1.07.016-2.063.024-2.953.024h-2.235l-2.953-.024a355.9 355.9 0 0 1-8.96-.218c-5.618-.219-9.758-.563-11.391-1a5.27 5.27 0 0 1-3.703-3.711c-.368-1.383-.664-3.446-.875-5.961-.164-1.93-.266-4.008-.329-6.086-.023-.727-.03-1.406-.039-2.008 0-.21-.007-.398-.007-.554v-.375c0-.165 0-.344.007-.555.008-.61.024-1.282.04-2.008.054-2.078.164-4.156.328-6.086.21-2.516.507-4.578.875-5.96a5.257 5.257 0 0 1 3.703-3.712c1.64-.437 5.773-.789 11.39-1 2.844-.11 5.907-.18 8.961-.219 1.07-.015 2.063-.023 2.953-.023h2.235l2.953.023c3.055.04 6.11.11 8.96.22 5.618.218 9.759.562 11.392 1a5.27 5.27 0 0 1 3.703 3.71c.367 1.383.664 3.445.875 5.961.164 1.93.265 4.008.328 6.086.023.726.031 1.406.039 2.008 0 .21.008.398.008.555v.375ZM33.48 50.47l18.124-10.546-18.124-10.39V50.47Z"/><defs><linearGradient id="a" x1="11.99" x2="52.592" y1="19.256" y2="89.614" gradientUnits="userSpaceOnUse"><stop stop-color="#007BC4"/><stop offset="1" stop-color="#0B4C97"/></linearGradient></defs></svg>