<svg xmlns="http://www.w3.org/2000/svg" width="81" height="80" fill="none"><path fill="url(#a)" d="M40.565 10.002c-8.14 0-9.165.037-12.363.18-3.2.15-5.378.652-7.287 1.395a14.688 14.688 0 0 0-5.313 3.461 14.727 14.727 0 0 0-3.462 5.314c-.742 1.905-1.248 4.087-1.395 7.275-.142 3.206-.18 4.226-.18 12.379 0 8.145.038 9.165.18 12.364.15 3.195.653 5.373 1.395 7.282.77 1.972 1.793 3.645 3.462 5.314 1.665 1.669 3.337 2.696 5.31 3.461 1.912.742 4.087 1.249 7.282 1.395 3.203.142 4.223.18 12.371.18 8.15 0 9.165-.037 12.368-.18 3.191-.15 5.377-.653 7.286-1.395 2.001-.754 3.813-1.935 5.31-3.461 1.669-1.669 2.693-3.341 3.461-5.314.74-1.909 1.245-4.087 1.395-7.282.143-3.2.18-4.22.18-12.368 0-8.149-.037-9.169-.18-12.371-.15-3.192-.656-5.374-1.395-7.279a14.722 14.722 0 0 0-3.46-5.314 14.665 14.665 0 0 0-5.315-3.461c-1.912-.742-4.095-1.249-7.286-1.395-3.202-.143-4.219-.18-12.371-.18h.011-.004Zm-2.688 5.407h2.692c8.01 0 8.959.027 12.12.173 2.925.131 4.515.622 5.573 1.031 1.398.544 2.4 1.197 3.45 2.247 1.05 1.05 1.698 2.047 2.242 3.45.413 1.053.9 2.643 1.031 5.568.147 3.162.177 4.11.177 12.117 0 8.006-.03 8.958-.177 12.12-.13 2.924-.622 4.51-1.03 5.568a9.264 9.264 0 0 1-2.247 3.447c-1.05 1.05-2.048 1.698-3.45 2.242-1.05.413-2.64.9-5.569 1.035-3.161.142-4.11.176-12.12.176-8.01 0-8.962-.034-12.124-.176-2.925-.135-4.51-.622-5.568-1.035a9.293 9.293 0 0 1-3.45-2.242 9.3 9.3 0 0 1-2.25-3.45c-.41-1.054-.9-2.644-1.032-5.57-.142-3.16-.172-4.11-.172-12.123 0-8.01.03-8.955.172-12.116.135-2.925.623-4.515 1.035-5.573.544-1.398 1.197-2.4 2.247-3.45 1.05-1.05 2.047-1.698 3.45-2.242 1.057-.413 2.643-.9 5.568-1.035 2.768-.128 3.84-.165 9.432-.169v.008Zm18.705 4.98a3.6 3.6 0 1 0 0 7.201 3.6 3.6 0 0 0 0-7.2Zm-16.013 4.208a15.408 15.408 0 1 0-.481 30.812 15.408 15.408 0 0 0 .481-30.812Zm0 5.404a10.001 10.001 0 1 1 0 20.002 10.001 10.001 0 0 1 0-20.002Z"/><defs><linearGradient id="a" x1="16.185" x2="70.193" y1="15.483" y2="83.355" gradientUnits="userSpaceOnUse"><stop stop-color="#007BC4"/><stop offset="1" stop-color="#0B4C97"/></linearGradient></defs></svg>