<svg xmlns="http://www.w3.org/2000/svg" width="81" height="80" fill="none"><path fill="url(#a)" d="M40.697 10.002c-16.54 0-30 13.46-30 30s13.46 30 30 30 30-13.46 30-30-13.46-30-30-30Zm0 5c13.838 0 25 11.162 25 25a24.942 24.942 0 0 1-21.28 24.697V47.293h7.12l1.118-7.233h-8.238v-3.95c0-3 .988-5.667 3.795-5.667h4.513v-6.31c-.793-.108-2.47-.34-5.64-.34-6.62 0-10.5 3.495-10.5 11.46v4.807H29.78v7.233h6.805v17.345a24.937 24.937 0 0 1-20.888-24.635c0-13.838 11.163-25 25-25Z"/><defs><linearGradient id="a" x1="16.317" x2="70.325" y1="15.483" y2="83.355" gradientUnits="userSpaceOnUse"><stop stop-color="#007BC4"/><stop offset="1" stop-color="#0B4C97"/></linearGradient></defs></svg>