<svg width="24" height="24" viewBox="0 0 24 24" fill="none" xmlns="http://www.w3.org/2000/svg">
<path fill-rule="evenodd" clip-rule="evenodd" d="M3 11.9995C3 10.8176 3.23279 9.64736 3.68508 8.55548C4.13738 7.46361 4.80031 6.4715 5.63604 5.63581C6.47177 4.80013 7.46392 4.13722 8.55585 3.68495C9.64778 3.23268 10.8181 2.9999 12 2.9999C13.1819 2.9999 14.3522 3.23268 15.4442 3.68495C16.5361 4.13722 17.5282 4.80013 18.364 5.63581C19.1997 6.4715 19.8626 7.46361 20.3149 8.55548C20.7672 9.64736 21 10.8176 21 11.9995C21 14.3863 20.0518 16.6754 18.364 18.3631C16.6761 20.0509 14.3869 20.999 12 20.999C9.61305 20.999 7.32387 20.0509 5.63604 18.3631C3.94821 16.6754 3 14.3863 3 11.9995ZM12 1C5.925 1 1 5.92476 1 11.9995C1 18.0742 5.925 22.9989 12 22.9989C18.075 22.9989 23 18.0742 23 11.9995C23 5.92476 18.075 1 12 1ZM7 10.9995C6.73478 10.9995 6.48043 11.1049 6.29289 11.2924C6.10536 11.4799 6 11.7343 6 11.9995C6 12.2647 6.10536 12.519 6.29289 12.7065C6.48043 12.8941 6.73478 12.9994 7 12.9994H17C17.2652 12.9994 17.5196 12.8941 17.7071 12.7065C17.8946 12.519 18 12.2647 18 11.9995C18 11.7343 17.8946 11.4799 17.7071 11.2924C17.5196 11.1049 17.2652 10.9995 17 10.9995H7Z" fill="#2575FC"/>
</svg>
