<svg width="104" height="105" viewBox="0 0 104 105" fill="none" xmlns="http://www.w3.org/2000/svg">
<g id="Frame">
<g id="Group">
<g id="Q and A">
<path id="Vector" d="M86.3623 41.4659H69.875V15.5342C69.8331 13.1085 68.8311 10.7984 67.0888 9.11022C65.3464 7.42208 63.0058 6.49363 60.58 6.5284H17.6361C15.1819 6.46588 12.8029 7.37855 11.0202 9.06652C9.23751 10.7545 8.19644 13.0802 8.125 15.5342V43.0227C8.19643 45.4769 9.23773 47.8029 11.0208 49.4909C12.8038 51.1789 15.1832 52.0914 17.6378 52.0284H17.875V60.6685C17.8753 61.0373 17.9795 61.3986 18.1758 61.7108C18.3721 62.0231 18.6524 62.2737 18.9846 62.4338C19.3168 62.594 19.6874 62.6572 20.0539 62.6163C20.4205 62.5754 20.768 62.432 21.0568 62.2025L33.8211 52.03H34.125V77.8529C34.1678 80.3078 35.1822 82.6455 36.946 84.3535C38.7097 86.0615 41.0788 87.0004 43.5338 86.9643H70.1789L82.9449 97.1384C83.2333 97.368 83.5807 97.5115 83.947 97.5526C84.3134 97.5936 84.6839 97.5305 85.016 97.3705C85.3481 97.2105 85.6283 96.96 85.8245 96.6479C86.0206 96.3358 86.1248 95.9747 86.125 95.606V86.9659H86.3623C88.8168 87.0289 91.1962 86.1164 92.9792 84.4284C94.7623 82.7404 95.8036 80.4144 95.875 77.9602V50.4717C95.8036 48.0174 94.7623 45.6914 92.9792 44.0034C91.1962 42.3154 88.8168 41.403 86.3623 41.4659ZM33.462 48.7784C32.9604 48.7812 32.4742 48.9516 32.0808 49.2627L21.125 57.9922V50.938C21.1203 50.3617 20.8872 49.8107 20.4769 49.4058C20.0666 49.001 19.5125 48.7754 18.9361 48.7784H17.6361C16.0439 48.8406 14.4917 48.2701 13.3186 47.1917C12.1455 46.1133 11.4468 44.6145 11.375 43.0227V15.5342C11.4468 13.942 12.1457 12.443 13.3192 11.3645C14.4926 10.286 16.0452 9.71582 17.6378 9.7784H60.5784C62.1427 9.7426 63.6574 10.3283 64.7908 11.4071C65.9241 12.4859 66.5837 13.97 66.625 15.5342V43.0227C66.5833 44.587 65.9234 46.071 64.7897 47.1498C63.6561 48.2286 62.1412 48.8142 60.5768 48.7784H33.462ZM92.625 77.9602C92.5532 79.5523 91.8543 81.0514 90.6808 82.1298C89.5074 83.2083 87.9548 83.7785 86.3623 83.7159H85.0622C84.4861 83.7133 83.9325 83.9391 83.5225 84.3439C83.1126 84.7487 82.8797 85.2994 82.875 85.8755V92.928L71.916 84.1969C71.5236 83.8865 71.0383 83.7171 70.538 83.7159H43.5338C41.9406 83.7526 40.3978 83.1563 39.2434 82.0576C38.089 80.959 37.4171 79.4476 37.375 77.8545V52.0284H60.5768C62.7084 52.0503 64.782 51.3341 66.4457 50.0012C68.1094 48.6684 69.2607 46.801 69.7044 44.7159H86.3623C87.9548 44.6533 89.5074 45.2235 90.6808 46.302C91.8543 47.3805 92.5532 48.8795 92.625 50.4717V77.9602Z" fill="white"/>
<path id="Vector_2" d="M47.5098 36.6074C49.42 34.4462 50.4405 31.6415 50.3659 28.7581C50.2913 25.8746 49.1272 23.1265 47.1079 21.0669C45.0886 19.0072 42.364 17.789 39.4826 17.6574C36.6012 17.5258 33.7769 18.4906 31.5783 20.3577C29.3797 22.2247 27.9699 24.8553 27.6329 27.72C27.2958 30.5846 28.0564 33.4706 29.7617 35.7969C31.4669 38.1233 33.9901 39.7174 36.8233 40.2582C39.6565 40.799 42.5895 40.2465 45.0317 38.7118L45.9515 39.7567C46.2368 40.0799 46.6388 40.2766 47.0691 40.3034C47.4994 40.3302 47.9227 40.185 48.246 39.8997C48.5692 39.6144 48.7659 39.2124 48.7927 38.7821C48.8195 38.3517 48.6743 37.9284 48.389 37.6052L47.5098 36.6074ZM38.9997 37.2119C37.3927 37.2119 35.8219 36.7354 34.4857 35.8426C33.1496 34.9498 32.1082 33.6809 31.4932 32.1962C30.8782 30.7116 30.7173 29.0779 31.0308 27.5018C31.3443 25.9257 32.1182 24.478 33.2545 23.3417C34.3908 22.2054 35.8385 21.4316 37.4146 21.1181C38.9907 20.8045 40.6244 20.9655 42.109 21.5804C43.5937 22.1954 44.8626 23.2368 45.7554 24.5729C46.6482 25.9091 47.1247 27.48 47.1247 29.0869C47.117 30.9244 46.4805 32.7039 45.321 34.1293L41.798 30.1351C41.5129 29.8118 41.1111 29.6151 40.6809 29.5881C40.2508 29.5611 39.8275 29.7062 39.5043 29.9912C39.181 30.2763 38.9843 30.6782 38.9573 31.1083C38.9304 31.5385 39.0754 31.9617 39.3605 32.2849L42.8233 36.2109C41.6523 36.8583 40.3378 37.2024 38.9997 37.2119ZM74.623 73.2593L66.5045 53.9299L66.498 53.9137C66.3735 53.6192 66.165 53.368 65.8985 53.1913C65.632 53.0146 65.3194 52.9204 64.9997 52.9204C64.68 52.9204 64.3674 53.0146 64.1009 53.1913C63.8345 53.368 63.6259 53.6192 63.5015 53.9137L63.495 53.9299L55.3765 73.2593C55.2095 73.6567 55.2071 74.1041 55.37 74.5032C55.5329 74.9022 55.8477 75.2202 56.245 75.3872C56.6424 75.5543 57.0898 75.5566 57.4889 75.3937C57.8879 75.2308 58.206 74.916 58.373 74.5187L60.6301 69.1448H69.3693L71.6281 74.5187C71.8024 74.9048 72.1207 75.2075 72.515 75.3624C72.9093 75.5173 73.3485 75.5121 73.739 75.3478C74.1295 75.1836 74.4404 74.8734 74.6056 74.4833C74.7707 74.0932 74.7769 73.654 74.623 73.2593ZM61.9951 65.8948L64.9997 58.7399L68.006 65.8948H61.9951Z" fill="white"/>
</g>
</g>
</g>
</svg>
