<svg width="104" height="105" viewBox="0 0 104 105" fill="none" xmlns="http://www.w3.org/2000/svg">
<g id="Frame" clip-path="url(#clip0_168_625)">
<g id="Group">
<path id="Vector" d="M98.1205 75.3144C97.526 75.3199 96.9353 75.4104 96.3664 75.583L90.0415 77.6769L91.7245 75.3334C92.5209 74.2454 92.8842 72.9001 92.7438 71.5592C92.6034 70.2182 91.9693 68.9773 90.9648 68.0779C89.9603 67.1785 88.6573 66.6847 87.309 66.6927C85.9607 66.7007 84.6635 67.2098 83.6697 68.121L66.3867 84.917L54.0661 80.367C53.9571 80.3283 53.8659 80.2512 53.8097 80.15C53.7535 80.0488 53.7362 79.9306 53.7611 79.8176L54.5029 76.0042C54.5176 75.9134 54.5581 75.8286 54.6195 75.7601C54.681 75.6915 54.7608 75.6421 54.8496 75.6177L65.9048 73.6625C67.2517 73.3411 68.4351 72.5393 69.2327 71.4073C70.0303 70.2754 70.3875 68.8913 70.2371 67.5148C70.0866 66.1383 69.439 64.864 68.4157 63.931C67.3925 62.9981 66.0639 62.4707 64.6793 62.4478L44.4531 63.727C42.4076 63.8412 40.4223 64.4599 38.6741 65.528L29.4199 71.0521C27.332 72.2697 24.9499 72.8909 22.5333 72.8478H5.2C3.82087 72.8478 2.49823 73.3957 1.52304 74.3709C0.547856 75.3461 0 76.6687 0 78.0478L0 90.1812C0 91.5603 0.547856 92.8829 1.52304 93.8581C2.49823 94.8333 3.82087 95.3812 5.2 95.3812H30.9764L62.6531 103.675C63.6477 103.922 64.6686 104.047 65.6933 104.048C67.7498 104.046 69.7742 103.537 71.5867 102.566L100.835 86.5481C102.129 85.8525 103.122 84.7059 103.626 83.3262C104.131 81.9464 104.111 80.4295 103.57 79.0636C103.137 77.9678 102.388 77.026 101.417 76.3582C100.446 75.6904 99.2986 75.327 98.1205 75.3144ZM86.0652 70.6344C86.422 70.3173 86.8839 70.1442 87.3612 70.1487C87.8385 70.1532 88.2971 70.335 88.6479 70.6586C89.0051 70.9912 89.2296 71.442 89.2796 71.9275C89.3297 72.4129 89.2019 72.9001 88.92 73.2985L84.4428 79.5281L73.0201 83.3085L86.0652 70.6344ZM99.1969 83.5078L69.9469 99.5186C67.9749 100.574 65.681 100.858 63.5111 100.316L31.6385 91.97C31.4953 91.9332 31.3479 91.9146 31.2 91.9145H5.2C4.74029 91.9145 4.29941 91.7319 3.97435 91.4068C3.64929 91.0818 3.46667 90.6409 3.46667 90.1812V78.0478C3.46667 77.5881 3.64929 77.1472 3.97435 76.8222C4.29941 76.4971 4.74029 76.3145 5.2 76.3145H22.5333C25.5774 76.3612 28.5756 75.5696 31.2 74.0265L40.4716 68.492C41.7394 67.7159 43.1803 67.2673 44.6645 67.1868L64.4488 65.9145H64.6793C65.1793 65.9221 65.6612 66.1026 66.0432 66.4252C66.4252 66.7478 66.6837 67.1926 66.7749 67.6842C66.892 68.2312 66.7971 68.8021 66.5095 69.2818C66.2218 69.7615 65.7629 70.1142 65.2253 70.2686L54.2325 72.21C53.4606 72.3595 52.751 72.7365 52.1951 73.2925C51.6391 73.8485 51.2621 74.558 51.1125 75.33L50.3689 79.152C50.1843 80.0716 50.3337 81.0269 50.7903 81.8463C51.2468 82.6656 51.9806 83.2953 52.8597 83.6222L65.8597 88.4201C66.6753 88.7274 67.57 88.7543 68.4025 88.4964L97.4029 78.9006C97.987 78.7069 98.6237 78.7491 99.1771 79.0182C99.7305 79.2873 100.157 79.762 100.365 80.341C100.593 80.9193 100.599 81.561 100.384 82.1438C100.168 82.7266 99.7459 83.2097 99.1969 83.5009V83.5078ZM87.3063 48.2345C88.0077 48.5572 88.7886 48.6665 89.5517 48.5488C90.3148 48.431 91.0264 48.0915 91.598 47.5724L102.65 37.7132C103.073 37.338 103.413 36.8771 103.645 36.3611C103.877 35.8451 103.997 35.2856 103.997 34.7197C103.997 34.1538 103.877 33.5943 103.645 33.0783C103.413 32.5623 103.073 32.1014 102.65 31.7262L91.5928 21.8653C91.0144 21.3548 90.301 21.022 89.5381 20.907C88.7753 20.7921 87.9954 20.8997 87.2923 21.2171C86.5891 21.5344 85.9925 22.048 85.574 22.6961C85.1556 23.3443 84.9331 24.0994 84.9333 24.8709V27.7812H72.8C72.2178 27.7797 71.637 27.8378 71.0667 27.9545V19.1145H73.9787C74.7519 19.117 75.5094 18.8956 76.1596 18.4771C76.8098 18.0586 77.325 17.4608 77.643 16.756C77.9609 16.0511 78.0681 15.2693 77.9515 14.5049C77.835 13.7405 77.4996 13.0261 76.986 12.4481L67.1303 1.40157C66.7446 0.995585 66.2805 0.67215 65.7661 0.450869C65.2517 0.229589 64.6978 0.115073 64.1378 0.114262C63.5778 0.113452 63.0235 0.226364 62.5085 0.446155C61.9935 0.665946 61.5284 0.988036 61.1416 1.3929L51.2807 12.4516C50.7682 13.0297 50.4338 13.7437 50.3178 14.5076C50.2019 15.2714 50.3093 16.0525 50.6271 16.7567C50.945 17.4609 51.4597 18.0581 52.1092 18.4765C52.7587 18.8948 53.5154 19.1164 54.288 19.1145H57.2V27.9545C56.6297 27.8378 56.0488 27.7797 55.4667 27.7812H43.3333V24.8692C43.3354 24.0959 43.1137 23.3386 42.6949 22.6885C42.2762 22.0384 41.6783 21.5234 40.9734 21.2055C40.2686 20.8876 39.4867 20.7804 38.7223 20.8968C37.9579 21.0133 37.2434 21.3484 36.6652 21.8618L25.6169 31.7158C25.1922 32.0906 24.8518 32.5513 24.6184 33.0675C24.385 33.5836 24.2639 34.1435 24.2631 34.7099C24.2623 35.2764 24.3818 35.8366 24.6137 36.3534C24.8456 36.8703 25.1846 37.332 25.6083 37.708L36.6652 47.5689C37.2437 48.0815 37.958 48.416 38.7222 48.532C39.4864 48.6481 40.2678 48.5408 40.9724 48.223C41.677 47.9052 42.2747 47.3905 42.6936 46.7409C43.1125 46.0913 43.3346 45.3345 43.3333 44.5616V41.6478H52C53.3791 41.6478 54.7018 42.1957 55.677 43.1709C56.6521 44.1461 57.2 45.4687 57.2 46.8478V55.5145C57.2 56.4339 57.5652 57.3157 58.2154 57.9658C58.8655 58.6159 59.7473 58.9812 60.6667 58.9812H67.6C68.5194 58.9812 69.4012 58.6159 70.0513 57.9658C70.7014 57.3157 71.0667 56.4339 71.0667 55.5145V46.8478C71.0667 45.4687 71.6145 44.1461 72.5897 43.1709C73.5649 42.1957 74.8876 41.6478 76.2667 41.6478H84.9333V44.5598C84.9261 45.3373 85.147 46.0998 85.5688 46.753C85.9906 47.4061 86.5947 47.9212 87.3063 48.2345ZM76.2667 38.1812C73.9681 38.1812 71.7637 39.0943 70.1384 40.7196C68.5131 42.3449 67.6 44.5493 67.6 46.8478V55.5145H60.6667V46.8478C60.6667 44.5493 59.7536 42.3449 58.1283 40.7196C56.5029 39.0943 54.2985 38.1812 52 38.1812H41.6C41.1403 38.1812 40.6994 38.3638 40.3744 38.6889C40.0493 39.0139 39.8667 39.4548 39.8667 39.9145V44.5598C39.87 44.6677 39.8405 44.7741 39.782 44.8648C39.7235 44.9555 39.6387 45.0263 39.5391 45.0677C39.4475 45.1131 39.3442 45.1293 39.2432 45.1141C39.1421 45.0989 39.0482 45.0531 38.974 44.9828L27.9067 35.1149C27.8491 35.0651 27.8029 35.0035 27.7712 34.9343C27.7395 34.865 27.7231 34.7898 27.7231 34.7136C27.7231 34.6375 27.7395 34.5622 27.7712 34.493C27.8029 34.4238 27.8491 34.3622 27.9067 34.3124L38.9636 24.4497C39.0382 24.3795 39.1324 24.3337 39.2337 24.3185C39.335 24.3034 39.4385 24.3195 39.5304 24.3648C39.6305 24.4049 39.7156 24.4752 39.774 24.5659C39.8324 24.6566 39.8611 24.7632 39.8563 24.8709V29.5145C39.8563 29.9742 40.0389 30.4151 40.364 30.7402C40.689 31.0652 41.1299 31.2478 41.5896 31.2478H55.4563C56.3699 31.2483 57.2671 31.4912 58.0563 31.9516C58.3198 32.1037 58.6187 32.1838 58.9229 32.1838C59.2272 32.1838 59.5261 32.1037 59.7896 31.9516C60.0531 31.7995 60.2719 31.5806 60.424 31.3172C60.5762 31.0537 60.6563 30.7548 60.6563 30.4505V17.3812C60.6563 16.9215 60.4737 16.4806 60.1486 16.1555C59.8235 15.8305 59.3826 15.6478 58.9229 15.6478H54.288C54.1803 15.6527 54.0737 15.624 53.983 15.5656C53.8923 15.5072 53.822 15.4221 53.7819 15.322C53.7362 15.2305 53.7199 15.1271 53.7351 15.026C53.7503 14.9249 53.7963 14.8309 53.8668 14.7569L63.7364 3.68783C64.0137 3.37583 64.246 3.36717 64.5372 3.68783L74.3999 14.7465C74.4704 14.8205 74.5164 14.9145 74.5316 15.0156C74.5468 15.1167 74.5304 15.2201 74.4848 15.3116C74.4464 15.4136 74.3768 15.501 74.286 15.5613C74.1951 15.6217 74.0876 15.6519 73.9787 15.6478H69.3333C68.8736 15.6478 68.4327 15.8305 68.1077 16.1555C67.7826 16.4806 67.6 16.9215 67.6 17.3812V30.4488C67.6 30.753 67.6801 31.0519 67.8322 31.3154C67.9844 31.5789 68.2032 31.7977 68.4667 31.9498C68.7302 32.102 69.0291 32.1821 69.3334 32.1821C69.6376 32.1821 69.9365 32.102 70.2 31.9498C70.9893 31.49 71.8865 31.2478 72.8 31.2478H86.6667C87.1264 31.2478 87.5673 31.0652 87.8923 30.7402C88.2174 30.4151 88.4 29.9742 88.4 29.5145V24.8692C88.3951 24.7614 88.4239 24.6548 88.4823 24.5642C88.5406 24.4735 88.6258 24.4032 88.7259 24.363C88.8179 24.3182 88.9213 24.3024 89.0225 24.3175C89.1236 24.3327 89.2178 24.3782 89.2927 24.448L100.36 34.3176C100.417 34.3673 100.462 34.4287 100.493 34.4974C100.524 34.5662 100.541 34.6408 100.541 34.7162C100.541 34.7917 100.524 34.8663 100.493 34.9351C100.462 35.0038 100.417 35.0651 100.36 35.1149L89.3031 44.9776C89.2289 45.0479 89.1349 45.0937 89.0339 45.1089C88.9328 45.1241 88.8296 45.1079 88.738 45.0625C88.6375 45.0231 88.5514 44.9541 88.491 44.8647C88.4306 44.7752 88.3989 44.6695 88.4 44.5616V39.9145C88.4 39.4548 88.2174 39.0139 87.8923 38.6889C87.5673 38.3638 87.1264 38.1812 86.6667 38.1812H76.2667Z" fill="white"/>
</g>
</g>
<defs>
<clipPath id="clip0_168_625">
<rect width="104" height="104" fill="white" transform="translate(0 0.0478516)"/>
</clipPath>
</defs>
</svg>
