<svg width="104" height="105" viewBox="0 0 104 105" fill="none" xmlns="http://www.w3.org/2000/svg">
<g id="Group">
<path id="Vector" d="M101.92 44.7682C101.379 44.7682 100.839 44.5394 100.443 44.165C100.069 43.7698 99.8401 43.229 99.8401 42.6882C99.8401 42.1474 100.069 41.6066 100.443 41.2114C101.234 40.4418 102.627 40.4418 103.397 41.2114C103.771 41.6066 104 42.1474 104 42.6882C104 43.2498 103.771 43.7698 103.397 44.165C103.002 44.5394 102.461 44.7682 101.92 44.7682ZM31.2001 82.2082C30.6593 82.2082 30.1185 81.9794 29.7233 81.605C29.3489 81.2098 29.1201 80.669 29.1201 80.1282C29.1201 79.5874 29.3489 79.0466 29.7233 78.6514C30.5137 77.8818 31.8865 77.8818 32.6769 78.6514C33.0513 79.0466 33.2801 79.5874 33.2801 80.1282C33.2801 80.669 33.0513 81.2098 32.6769 81.605C32.2817 81.9794 31.7409 82.2082 31.2001 82.2082ZM101.92 61.4082C101.368 61.4082 100.839 61.189 100.449 60.799C100.059 60.4089 99.8401 59.8798 99.8401 59.3282V51.0082C99.8401 50.4565 100.059 49.9275 100.449 49.5374C100.839 49.1473 101.368 48.9282 101.92 48.9282C102.472 48.9282 103.001 49.1473 103.391 49.5374C103.781 49.9275 104 50.4565 104 51.0082V59.3282C104 59.8798 103.781 60.4089 103.391 60.799C103.001 61.189 102.472 61.4082 101.92 61.4082ZM101.92 36.4482C101.368 36.4482 100.839 36.229 100.449 35.8389C100.059 35.4489 99.8401 34.9198 99.8401 34.3682V10.4482C99.8401 9.89651 100.059 9.36746 100.449 8.97738C100.839 8.58731 101.368 8.36816 101.92 8.36816C102.472 8.36816 103.001 8.58731 103.391 8.97738C103.781 9.36746 104 9.89651 104 10.4482V34.3682C104 34.9198 103.781 35.4489 103.391 35.8389C103.001 36.229 102.472 36.4482 101.92 36.4482ZM31.2001 73.8882C30.6485 73.8882 30.1194 73.669 29.7293 73.279C29.3393 72.8889 29.1201 72.3598 29.1201 71.8082V47.2475C29.1201 46.6959 29.3393 46.1668 29.7293 45.7767C30.1194 45.3867 30.6485 45.1675 31.2001 45.1675C31.7518 45.1675 32.2808 45.3867 32.6709 45.7767C33.061 46.1668 33.2801 46.6959 33.2801 47.2475V71.8082C33.2801 72.3598 33.061 72.8889 32.6709 73.279C32.2808 73.669 31.7518 73.8882 31.2001 73.8882ZM31.2001 98.8482C30.6485 98.8482 30.1194 98.629 29.7293 98.239C29.3393 97.8489 29.1201 97.3198 29.1201 96.7682V88.4482C29.1201 87.8965 29.3393 87.3675 29.7293 86.9774C30.1194 86.5873 30.6485 86.3682 31.2001 86.3682C31.7518 86.3682 32.2808 86.5873 32.6709 86.9774C33.061 87.3675 33.2801 87.8965 33.2801 88.4482V96.7682C33.2801 97.3198 33.061 97.8489 32.6709 98.239C32.2808 98.629 31.7518 98.8482 31.2001 98.8482ZM58.5084 97.8248C57.9568 97.8248 57.4277 97.6057 57.0377 97.2156C56.6476 96.8255 56.4284 96.2965 56.4284 95.7448V63.4882C56.4284 62.9365 56.6476 62.4075 57.0377 62.0174C57.4277 61.6273 57.9568 61.4082 58.5084 61.4082C59.0601 61.4082 59.5891 61.6273 59.9792 62.0174C60.3693 62.4075 60.5884 62.9365 60.5884 63.4882V95.7448C60.5884 96.2965 60.3693 96.8255 59.9792 97.2156C59.5891 97.6057 59.0601 97.8248 58.5084 97.8248Z" fill="white"/>
<path id="Vector_2" d="M97.7597 65.568C97.208 65.568 96.679 65.3489 96.2889 64.9588C95.8988 64.5688 95.6797 64.0397 95.6797 63.488C95.6797 62.9364 95.8988 62.4073 96.2889 62.0173C96.679 61.6272 97.208 61.408 97.7597 61.408C98.9058 61.408 99.8397 60.4741 99.8397 59.328C99.8397 58.7764 100.059 58.2473 100.449 57.8573C100.839 57.4672 101.368 57.248 101.92 57.248C102.471 57.248 103 57.4672 103.39 57.8573C103.781 58.2473 104 58.7764 104 59.328C104 62.7684 101.2 65.568 97.7597 65.568Z" fill="white"/>
<path id="Vector_3" d="M97.7597 65.5678H31.1997C30.6481 65.5678 30.119 65.3487 29.7289 64.9586C29.3389 64.5686 29.1197 64.0395 29.1197 63.4879C29.1197 62.9362 29.3389 62.4071 29.7289 62.0171C30.119 61.627 30.6481 61.4078 31.1997 61.4078H97.7597C98.3114 61.4078 98.8404 61.627 99.2305 62.0171C99.6206 62.4071 99.8397 62.9362 99.8397 63.4879C99.8397 64.0395 99.6206 64.5686 99.2305 64.9586C98.8404 65.3487 98.3114 65.5678 97.7597 65.5678ZM89.4397 29.1679H58.9968C58.4452 29.1679 57.9161 28.9487 57.5261 28.5586C57.136 28.1686 56.9168 27.6395 56.9168 27.0879C56.9168 26.5362 57.136 26.0071 57.5261 25.6171C57.9161 25.227 58.4452 25.0079 58.9968 25.0079H89.4397C89.9914 25.0079 90.5204 25.227 90.9105 25.6171C91.3006 26.0071 91.5197 26.5362 91.5197 27.0879C91.5197 27.6395 91.3006 28.1686 90.9105 28.5586C90.5204 28.9487 89.9914 29.1679 89.4397 29.1679ZM89.4397 37.4879H61.3285C60.7769 37.4879 60.2478 37.2687 59.8577 36.8786C59.4677 36.4886 59.2485 35.9595 59.2485 35.4079C59.2485 34.8562 59.4677 34.3271 59.8577 33.9371C60.2478 33.547 60.7769 33.3279 61.3285 33.3279H89.4397C89.9914 33.3279 90.5204 33.547 90.9105 33.9371C91.3006 34.3271 91.5197 34.8562 91.5197 35.4079C91.5197 35.9595 91.3006 36.4886 90.9105 36.8786C90.5204 37.2687 89.9914 37.4879 89.4397 37.4879ZM89.4397 45.8078H57.1893C56.6377 45.8078 56.1086 45.5887 55.7185 45.1986C55.3285 44.8086 55.1093 44.2795 55.1093 43.7279C55.1093 43.1762 55.3285 42.6471 55.7185 42.2571C56.1086 41.867 56.6377 41.6479 57.1893 41.6479H89.4397C89.9914 41.6479 90.5204 41.867 90.9105 42.2571C91.3006 42.6471 91.5197 43.1762 91.5197 43.7279C91.5197 44.2795 91.3006 44.8086 90.9105 45.1986C90.5204 45.5887 89.9914 45.8078 89.4397 45.8078ZM81.1197 20.8479H41.5997C41.0481 20.8479 40.519 20.6287 40.1289 20.2386C39.7389 19.8486 39.5197 19.3195 39.5197 18.7679C39.5197 18.2162 39.7389 17.6871 40.1289 17.2971C40.519 16.907 41.0481 16.6879 41.5997 16.6879H81.1197C81.6714 16.6879 82.2004 16.907 82.5905 17.2971C82.9806 17.6871 83.1997 18.2162 83.1997 18.7679C83.1997 19.3195 82.9806 19.8486 82.5905 20.2386C82.2004 20.6287 81.6714 20.8479 81.1197 20.8479ZM61.3597 8.36785C60.8081 8.36785 60.279 8.14871 59.8889 7.75863C59.4989 7.36856 59.2797 6.8395 59.2797 6.28785V2.12785C59.2797 1.5762 59.4989 1.04715 59.8889 0.65707C60.279 0.266994 60.8081 0.0478516 61.3597 0.0478516C61.9114 0.0478516 62.4404 0.266994 62.8305 0.65707C63.2206 1.04715 63.4397 1.5762 63.4397 2.12785V6.28785C63.4397 6.8395 63.2206 7.36856 62.8305 7.75863C62.4404 8.14871 61.9114 8.36785 61.3597 8.36785ZM20.7997 20.8395C20.2481 20.8395 19.719 20.6204 19.3289 20.2303C18.9389 19.8402 18.7197 19.3112 18.7197 18.7595V10.4479C18.7197 9.8962 18.9389 9.36715 19.3289 8.97707C19.719 8.58699 20.2481 8.36785 20.7997 8.36785C21.3514 8.36785 21.8804 8.58699 22.2705 8.97707C22.6606 9.36715 22.8797 9.8962 22.8797 10.4479V18.7595C22.8797 19.0327 22.8259 19.3032 22.7214 19.5555C22.6169 19.8079 22.4637 20.0372 22.2705 20.2303C22.0774 20.4235 21.8481 20.5767 21.5957 20.6812C21.3433 20.7857 21.0729 20.8395 20.7997 20.8395Z" fill="white"/>
<path id="Vector_4" d="M20.7997 12.528C20.2481 12.528 19.719 12.3089 19.3289 11.9188C18.9389 11.5287 18.7197 10.9997 18.7197 10.448C18.7197 7.00769 21.5194 4.20801 24.9597 4.20801C25.5114 4.20801 26.0404 4.42715 26.4305 4.81723C26.8206 5.2073 27.0397 5.73636 27.0397 6.28801C27.0397 6.83966 26.8206 7.36871 26.4305 7.75879C26.0404 8.14886 25.5114 8.36801 24.9597 8.36801C23.8136 8.36801 22.8797 9.30193 22.8797 10.448C22.8797 10.9997 22.6606 11.5287 22.2705 11.9188C21.8804 12.3089 21.3514 12.528 20.7997 12.528Z" fill="white"/>
<path id="Vector_5" d="M97.7599 8.36801H24.9599C24.4082 8.36801 23.8792 8.14886 23.4891 7.75879C23.099 7.36871 22.8799 6.83966 22.8799 6.28801C22.8799 5.73636 23.099 5.2073 23.4891 4.81723C23.8792 4.42715 24.4082 4.20801 24.9599 4.20801H97.7599C98.3115 4.20801 98.8406 4.42715 99.2307 4.81723C99.6207 5.2073 99.8399 5.73636 99.8399 6.28801C99.8399 6.83966 99.6207 7.36871 99.2307 7.75879C98.8406 8.14886 98.3115 8.36801 97.7599 8.36801Z" fill="white"/>
<path id="Vector_6" d="M101.92 12.528C101.368 12.528 100.839 12.3089 100.449 11.9188C100.059 11.5287 99.8401 10.9997 99.8401 10.448C99.8401 9.30193 98.9062 8.36801 97.7601 8.36801C97.2084 8.36801 96.6794 8.14886 96.2893 7.75879C95.8992 7.36871 95.6801 6.83966 95.6801 6.28801C95.6801 5.73636 95.8992 5.2073 96.2893 4.81723C96.6794 4.42715 97.2084 4.20801 97.7601 4.20801C101.2 4.20801 104 7.00769 104 10.448C104 10.9997 103.781 11.5287 103.391 11.9188C103.001 12.3089 102.472 12.528 101.92 12.528ZM7.98729 42.9002C7.4909 42.9002 7.01086 42.7227 6.63391 42.3997C6.25695 42.0767 6.00792 41.6296 5.93182 41.1391C5.85572 40.6485 5.95755 40.147 6.21893 39.7249C6.48031 39.3029 6.88399 38.9883 7.35705 38.8379C14.086 36.6959 21.2449 36.2768 28.1779 37.619C29.3052 37.8374 30.0415 38.9294 29.8252 40.0568C29.719 40.5978 29.403 41.0747 28.9462 41.3834C28.4894 41.6921 27.929 41.8074 27.3875 41.7042C21.1389 40.4938 14.6864 40.8715 8.62169 42.8024C8.41622 42.8661 8.20243 42.8991 7.98729 42.9002Z" fill="white"/>
<path id="Vector_7" d="M27.7831 41.7389C27.3091 41.7398 26.8489 41.5787 26.4789 41.2824C26.1089 40.986 25.8512 40.5721 25.7486 40.1093C25.6459 39.6465 25.7044 39.1625 25.9144 38.7375C26.1244 38.3125 26.4733 37.972 26.9033 37.7723L46.2514 28.7514C46.7515 28.5183 47.3237 28.4934 47.8421 28.6822C48.3605 28.871 48.7827 29.258 49.0158 29.7581C49.2488 30.2582 49.2737 30.8304 49.0849 31.3488C48.8961 31.8672 48.5091 32.2894 48.009 32.5224L28.6609 41.5434C28.3866 41.6735 28.0867 41.7403 27.7831 41.7389Z" fill="white"/>
<path id="Vector_8" d="M50.6485 40.2579C50.1751 40.2583 49.7157 40.0971 49.3463 39.801C48.9768 39.505 48.7194 39.0917 48.6166 38.6296C48.5138 38.1675 48.5718 37.6841 48.7808 37.2593C48.9899 36.8346 49.3377 36.4939 49.7666 36.2935C51.4431 35.5114 50.7962 33.9015 50.6485 33.5874C50.5029 33.2733 49.6938 31.7466 48.0069 32.5245C47.5068 32.7576 46.9347 32.7825 46.4163 32.5937C45.8978 32.4049 45.4757 32.0179 45.2426 31.5178C45.0095 31.0177 44.9846 30.4455 45.1734 29.9271C45.3622 29.4087 45.7492 28.9865 46.2493 28.7535C49.8768 27.0583 53.1071 29.0176 54.4175 31.8298C55.7279 34.6399 55.1538 38.3714 51.5242 40.0645C51.2499 40.1922 50.951 40.2582 50.6485 40.2579Z" fill="white"/>
<path id="Vector_9" d="M31.2006 49.3272C30.7272 49.3275 30.2678 49.1664 29.8984 48.8703C29.529 48.5742 29.2716 48.161 29.1688 47.6989C29.066 47.2367 29.1239 46.7533 29.333 46.3286C29.5421 45.9038 29.8898 45.5631 30.3187 45.3627L49.7667 36.2939C50.0142 36.1784 50.282 36.1127 50.5549 36.1007C50.8277 36.0886 51.1003 36.1304 51.357 36.2237C51.6136 36.317 51.8494 36.4599 52.0509 36.6444C52.2523 36.8288 52.4155 37.0511 52.531 37.2985C52.6466 37.546 52.7123 37.8138 52.7243 38.0867C52.7363 38.3595 52.6945 38.6321 52.6012 38.8888C52.5079 39.1455 52.365 39.3813 52.1806 39.5827C51.9962 39.7842 51.7739 39.9473 51.5264 40.0629L32.0784 49.1317C31.8038 49.2608 31.5041 49.3275 31.2006 49.3272ZM39.0402 104.048C38.6166 104.048 38.2031 103.919 37.8549 103.677C37.5068 103.436 37.2406 103.094 37.0921 102.697C36.9435 102.301 36.9196 101.868 37.0235 101.458C37.1274 101.047 37.3542 100.678 37.6736 100.4L57.1445 83.4392C57.5604 83.0768 58.1033 82.8944 58.6537 82.9322C59.2041 82.9701 59.7169 83.225 60.0794 83.641C60.4418 84.0569 60.6242 84.5998 60.5863 85.1502C60.5485 85.7006 60.2935 86.2134 59.8776 86.5758L40.4067 103.536C40.028 103.866 39.5426 104.048 39.0402 104.048Z" fill="white"/>
<path id="Vector_10" d="M77.9792 104.048C77.4774 104.048 76.9924 103.867 76.6147 103.536L57.1438 86.5757C56.9379 86.3963 56.7693 86.178 56.6477 85.9334C56.5261 85.6888 56.4539 85.4226 56.4351 85.1501C56.4164 84.8776 56.4515 84.604 56.5385 84.3451C56.6255 84.0861 56.7626 83.8468 56.9421 83.6409C57.1215 83.4349 57.3398 83.2663 57.5844 83.1447C57.829 83.0231 58.0952 82.9509 58.3677 82.9321C58.6403 82.9134 58.9138 82.9485 59.1728 83.0355C59.4317 83.1225 59.671 83.2596 59.877 83.4391L79.3478 100.399C79.6674 100.678 79.8942 101.047 79.9981 101.458C80.102 101.869 80.0779 102.302 79.929 102.698C79.7802 103.095 79.5137 103.437 79.1652 103.678C78.8168 103.919 78.403 104.048 77.9792 104.048ZM2.08 72.3194C1.52835 72.3194 0.999294 72.1003 0.609218 71.7102C0.219143 71.3201 0 70.7911 0 70.2394V48.7821C0 48.2305 0.219143 47.7014 0.609218 47.3114C0.999294 46.9213 1.52835 46.7021 2.08 46.7021C2.63165 46.7021 3.16071 46.9213 3.55078 47.3114C3.94086 47.7014 4.16 48.2305 4.16 48.7821V70.2394C4.16 70.7911 3.94086 71.3201 3.55078 71.7102C3.16071 72.1003 2.63165 72.3194 2.08 72.3194Z" fill="white"/>
<path id="Vector_11" d="M2.08009 50.8616C1.52844 50.8616 0.999383 50.6424 0.609307 50.2523C0.219232 49.8623 8.90472e-05 49.3332 8.90472e-05 48.7816C-0.00917978 46.5471 0.705366 44.3697 2.0368 42.5752C3.36824 40.7807 5.24497 39.4656 7.38617 38.8267C7.6482 38.7452 7.92376 38.7164 8.19697 38.7419C8.47018 38.7675 8.73564 38.8468 8.97807 38.9753C9.22049 39.1039 9.43508 39.2791 9.60947 39.491C9.78386 39.7028 9.91462 39.9471 9.9942 40.2097C10.0738 40.4723 10.1006 40.7481 10.0731 41.0211C10.0457 41.2941 9.96447 41.559 9.83418 41.8005C9.7039 42.042 9.52712 42.2553 9.31402 42.4282C9.10093 42.6011 8.85574 42.7301 8.59257 42.8078C7.30777 43.1914 6.18167 43.9806 5.3827 45.0574C4.58372 46.1342 4.1548 47.4407 4.16009 48.7816C4.16009 49.3332 3.94095 49.8623 3.55087 50.2523C3.16079 50.6424 2.63174 50.8616 2.08009 50.8616ZM10.4001 98.8472C9.84844 98.8472 9.31938 98.628 8.92931 98.2379C8.53923 97.8479 8.32009 97.3188 8.32009 96.7672V51.0384C8.32009 50.4867 8.53923 49.9577 8.92931 49.5676C9.31938 49.1775 9.84844 48.9584 10.4001 48.9584C10.9517 48.9584 11.4808 49.1775 11.8709 49.5676C12.2609 49.9577 12.4801 50.4867 12.4801 51.0384V96.7672C12.4801 97.3188 12.2609 97.8479 11.8709 98.2379C11.4808 98.628 10.9517 98.8472 10.4001 98.8472ZM20.8001 41.0003C14.2086 41.0003 8.63833 35.43 8.63833 28.8385C8.63833 22.247 14.2086 16.6768 20.8001 16.6768C27.3916 16.6768 32.9618 22.2449 32.9618 28.8385C32.9618 35.4321 27.3916 41.0003 20.8001 41.0003ZM20.8001 20.8388C16.4633 20.8388 12.7983 24.5038 12.7983 28.8406C12.7983 33.1774 16.4633 36.8424 20.8001 36.8424C25.1369 36.8424 28.8018 33.1774 28.8018 28.8406C28.8018 24.5017 25.1369 20.8388 20.8001 20.8388ZM20.8001 98.8472C20.2484 98.8472 19.7194 98.628 19.3293 98.2379C18.9392 97.8479 18.7201 97.3188 18.7201 96.7672V70.2388C18.7201 69.6872 18.9392 69.1581 19.3293 68.7681C19.7194 68.378 20.2484 68.1588 20.8001 68.1588C21.3517 68.1588 21.8808 68.378 22.2709 68.7681C22.6609 69.1581 22.8801 69.6872 22.8801 70.2388V96.7672C22.8801 97.3188 22.6609 97.8479 22.2709 98.2379C21.8808 98.628 21.3517 98.8472 20.8001 98.8472Z" fill="white"/>
<path id="Vector_12" d="M6.24 76.344C3.13872 76.344 0 74.2473 0 70.2392C0 69.6875 0.219143 69.1585 0.609218 68.7684C0.999294 68.3783 1.52835 68.1592 2.08 68.1592C2.63165 68.1592 3.16071 68.3783 3.55078 68.7684C3.94086 69.1585 4.16 69.6875 4.16 70.2392C4.16 72.0904 5.89264 72.184 6.24 72.184C6.58736 72.184 8.32 72.0904 8.32 70.2392C8.32 69.6875 8.53914 69.1585 8.92922 68.7684C9.31929 68.3783 9.84835 68.1592 10.4 68.1592C10.9516 68.1592 11.4807 68.3783 11.8708 68.7684C12.2609 69.1585 12.48 69.6875 12.48 70.2392C12.48 74.2473 9.34128 76.344 6.24 76.344ZM26 103.877C24.1405 103.877 22.3891 103.253 21.0683 102.117C19.5541 100.815 18.72 98.9141 18.72 96.7675C18.72 96.2159 18.9391 95.6868 19.3292 95.2967C19.7193 94.9066 20.2483 94.6875 20.8 94.6875C21.3517 94.6875 21.8807 94.9066 22.2708 95.2967C22.6609 95.6868 22.88 96.2159 22.88 96.7675C22.88 99.6337 25.6818 99.7169 26 99.7169C26.3182 99.7169 29.12 99.6337 29.12 96.7675C29.12 96.2159 29.3391 95.6868 29.7292 95.2967C30.1193 94.9066 30.6483 94.6875 31.2 94.6875C31.7516 94.6875 32.2807 94.9066 32.6708 95.2967C33.0609 95.6868 33.28 96.2159 33.28 96.7675C33.28 101.435 29.6171 103.877 26 103.877Z" fill="white"/>
<path id="Vector_13" d="M15.6003 103.877C13.7408 103.877 11.9894 103.253 10.6686 102.117C9.15439 100.815 8.32031 98.9141 8.32031 96.7675C8.32031 96.2158 8.53946 95.6868 8.92953 95.2967C9.31961 94.9066 9.84866 94.6875 10.4003 94.6875C10.952 94.6875 11.481 94.9066 11.8711 95.2967C12.2612 95.6868 12.4803 96.2158 12.4803 96.7675C12.4803 99.6337 15.2821 99.7169 15.6003 99.7169C15.9186 99.7169 18.7203 99.6337 18.7203 96.7675C18.7203 96.2158 18.9395 95.6868 19.3295 95.2967C19.7196 94.9066 20.2487 94.6875 20.8003 94.6875C21.352 94.6875 21.881 94.9066 22.2711 95.2967C22.6612 95.6868 22.8803 96.2158 22.8803 96.7675C22.8803 101.435 19.2174 103.877 15.6003 103.877Z" fill="white"/>
</g>
</svg>
